<svg xmlns="http://www.w3.org/2000/svg" version="1.1" viewBox="0 0 100 125"><g transform="translate(0,-952.36218)"><path d="m 44.8125,966.36438 a 2.0001998,2.0001387 0 0 0 -1.78125,1.6562 l -1.625,8.87473 c -1.155972,0.39586 -2.272124,0.86827 -3.34375,1.4062 l -7.4375,-5.15609 a 2.0001998,2.0001387 0 0 0 -2.53125,0.24999 l -7.0625,7.06229 a 2.0001998,2.0001387 0 0 0 -0.25,2.53117 l 5.15625,7.43727 c -0.537953,1.0716 -1.010368,2.18772 -1.40625,3.34365 l -8.875,1.62495 A 2.0001998,2.0001387 0 0 0 14,997.36343 l 0,9.99967 a 2.0001998,2.0001387 0 0 0 1.65625,1.9687 l 8.875,1.625 c 0.395882,1.1559 0.868297,2.272 1.40625,3.3436 l -5.15625,7.4373 a 2.0001998,2.0001387 0 0 0 0.25,2.5312 l 7.0625,7.0622 a 2.0001998,2.0001387 0 0 0 2.53125,0.25 l 7.4375,-5.1561 c 1.071626,0.5379 2.187778,1.0104 3.34375,1.4063 l 1.625,8.8747 A 2.0001998,2.0001387 0 0 0 45,1038.3622 l 10,0 a 2.0001998,2.0001387 0 0 0 1.96875,-1.6562 l 1.625,-8.8747 c 1.155972,-0.3959 2.272124,-0.8684 3.34375,-1.4063 l 7.4375,5.1561 a 2.0001998,2.0001387 0 0 0 2.53125,-0.25 l 7.0625,-7.0622 a 2.0001998,2.0001387 0 0 0 0.25,-2.5312 l -5.15625,-7.4373 c 0.537953,-1.0716 1.010368,-2.1877 1.40625,-3.3436 l 8.875,-1.625 A 2.0001998,2.0001387 0 0 0 86,1007.3631 l 0,-9.99967 a 2.0001998,2.0001387 0 0 0 -1.65625,-1.96869 l -8.875,-1.62495 c -0.395882,-1.15593 -0.868297,-2.27205 -1.40625,-3.34365 l 5.15625,-7.43727 a 2.0001998,2.0001387 0 0 0 -0.25,-2.53117 l -7.0625,-7.06229 A 2.0001998,2.0001387 0 0 0 69.375,973.14542 l -7.4375,5.15609 c -1.071626,-0.53793 -2.187778,-1.01034 -3.34375,-1.4062 l -1.625,-8.87473 A 2.0001998,2.0001387 0 0 0 55,966.36438 l -10,0 a 2.0001998,2.0001387 0 0 0 -0.1875,0 z m 1.84375,3.99988 6.6875,0 1.5,8.28099 a 2.0001998,2.0001387 0 0 0 1.4375,1.5937 c 1.73065,0.48892 3.375988,1.18812 4.9375,2.06244 a 2.0001998,2.0001387 0 0 0 2.09375,-0.0937 l 6.96875,-4.81235 4.6875,4.68736 -4.8125,6.96854 a 2.0001998,2.0001387 0 0 0 -0.09375,2.09368 c 0.874349,1.56146 1.573566,3.20675 2.0625,4.93735 a 2.0001998,2.0001387 0 0 0 1.59375,1.43746 L 82,999.01963 l 0,6.68727 -8.28125,1.5 a 2.0001998,2.0001387 0 0 0 -1.59375,1.4374 c -0.488934,1.7307 -1.188151,3.3759 -2.0625,4.9374 a 2.0001998,2.0001387 0 0 0 0.09375,2.0937 l 4.8125,6.9685 -4.6875,4.6874 -6.96875,-4.8124 a 2.0001998,2.0001387 0 0 0 -2.09375,-0.094 c -1.561512,0.8742 -3.20685,1.5734 -4.9375,2.0624 a 2.0001998,2.0001387 0 0 0 -1.4375,1.5937 l -1.5,8.281 -6.6875,0 -1.5,-8.281 a 2.0001998,2.0001387 0 0 0 -1.4375,-1.5937 c -1.73065,-0.489 -3.375988,-1.1882 -4.9375,-2.0624 a 2.0001998,2.0001387 0 0 0 -2.09375,0.094 l -6.96875,4.8124 -4.6875,-4.6874 4.8125,-6.9685 a 2.0001998,2.0001387 0 0 0 0.09375,-2.0937 c -0.874349,-1.5615 -1.573566,-3.2067 -2.0625,-4.9374 a 2.0001998,2.0001387 0 0 0 -1.59375,-1.4374 l -8.28125,-1.5 0,-6.68727 8.28125,-1.49995 a 2.0001998,2.0001387 0 0 0 1.59375,-1.43746 c 0.488934,-1.7306 1.188151,-3.37589 2.0625,-4.93735 a 2.0001998,2.0001387 0 0 0 -0.09375,-2.09368 l -4.8125,-6.96854 4.6875,-4.68736 6.96875,4.81235 a 2.0001998,2.0001387 0 0 0 2.09375,0.0937 c 1.561512,-0.87432 3.20685,-1.57352 4.9375,-2.06244 a 2.0001998,2.0001387 0 0 0 1.4375,-1.5937 l 1.5,-8.28099 z M 50,986.36377 c -8.812786,0 -16,7.18694 -16,15.99953 0,8.8126 7.187214,15.9995 16,15.9995 8.812875,0 16,-7.1869 16,-15.9995 0,-8.81259 -7.187125,-15.99953 -16,-15.99953 z m 0,3.99988 c 6.651122,0 12,5.34874 12,11.99965 0,6.651 -5.348878,11.9996 -12,11.9996 -6.651032,0 -12,-5.3486 -12,-11.9996 0,-6.65091 5.348968,-11.99965 12,-11.99965 z" fill-opacity="1" stroke="none"/></g></svg>