<svg xmlns="http://www.w3.org/2000/svg" version="1.1" viewBox="0 0 96 120" enable-background="new 0 0 96 96"><path d="M89.838,57.349c-0.315-0.662-0.355-1.908-0.403-3.351c-0.061-1.873-0.137-4.203-0.828-6.806  c-0.261-0.984-0.393-1.955-0.533-2.983c-0.477-3.504-1.018-7.476-7.158-11.782c-3.203-2.247-5.276-4.466-6.583-6.19  c1.171-3.677,5.591-13.53,8.595-19.925l1.004-2.138H55.835l-0.323,1.065c-0.042,0.139-4.233,13.921-6.405,17.505  c-0.451,0.744-0.801,1.411-1.107,2.038c-0.307-0.627-0.656-1.293-1.107-2.038C44.721,19.16,40.53,5.377,40.488,5.239l-0.323-1.065  H12.068l1.004,2.138c3.008,6.403,7.436,16.275,8.6,19.939c-1.3,1.712-3.369,3.917-6.588,6.176c-6.14,4.306-6.681,8.277-7.158,11.782  c-0.14,1.028-0.272,1.999-0.533,2.983c-0.69,2.603-0.767,4.933-0.828,6.805c-0.047,1.444-0.087,2.691-0.402,3.352  c-0.207,0.433-0.509,0.916-0.803,1.383c-0.898,1.432-2.571,4.096,0.03,5.739c0.323,0.204,0.784,0.387,1.398,0.387  c0.466,0,1.021-0.105,1.67-0.386c2.415-1.042,5.662-4.361,6.966-7.508c0.281,4.421,0.864,10.333,2.072,15.217  c3.117,12.604,5.255,18.77,8.664,18.77c0.134,0,0.27-0.01,0.408-0.029c1.014-0.14,1.872-0.696,2.479-1.607  c0.211-0.317,0.38-0.678,0.525-1.061c1.406,1.767,3.359,3.512,5.611,3.512c0.584,0,1.189-0.118,1.808-0.383  c0.492-0.211,0.91-0.492,1.273-0.816c0.783,0.656,1.83,1.264,3.031,1.264c0.28,0,0.568-0.033,0.862-0.106  c1.055-0.261,1.9-0.875,2.443-1.778c0.915-1.52,0.969-3.819,0.167-7.029c-0.051-0.204-0.102-0.414-0.152-0.625  c0.2,0.025,0.403,0.045,0.616,0.045c0.166,0,0.334-0.008,0.507-0.026c1.02-0.104,1.745-0.438,2.261-0.925  c0.516,0.488,1.241,0.821,2.261,0.925c0.173,0.018,0.342,0.026,0.507,0.026c0.212,0,0.416-0.02,0.616-0.045  c-0.051,0.211-0.102,0.422-0.152,0.625c-0.802,3.21-0.748,5.509,0.167,7.029c0.543,0.903,1.388,1.518,2.443,1.778  c0.295,0.073,0.583,0.106,0.862,0.106c1.201,0,2.249-0.608,3.032-1.264c0.363,0.324,0.782,0.605,1.273,0.816  c0.62,0.266,1.223,0.383,1.808,0.383c2.251,0,4.206-1.746,5.612-3.512c0.146,0.382,0.313,0.744,0.525,1.061  c0.608,0.912,1.465,1.468,2.48,1.608c0.138,0.019,0.274,0.029,0.408,0.029c3.407,0,5.547-6.166,8.663-18.769  c1.208-4.884,1.791-10.798,2.072-15.218c1.304,3.146,4.551,6.466,6.965,7.508c0.65,0.281,1.206,0.386,1.672,0.386  c0.614,0,1.075-0.183,1.398-0.387c2.601-1.643,0.928-4.308,0.029-5.739C90.348,58.264,90.044,57.781,89.838,57.349z M46.46,50.299  c-0.06,3.816-0.62,8.208-0.955,10.832c-0.196,1.538-0.283,2.235-0.283,2.64c0,0.348,0.02,0.776,0.041,1.228  c0.033,0.698,0.082,1.752-0.004,2.14c-0.166,0.742-0.042,1.774,0.254,4.038c0.153,1.171,0.327,2.5,0.475,4.011  c0.395,4.042,0.058,4.076-0.554,4.139c-0.756,0.073-1.311-0.3-1.589-0.544c-0.625-3.075-1.104-6.004-1.146-6.757  c-0.033-0.611-0.273-1.458-0.695-2.901c-0.511-1.748-1.211-4.143-1.264-5.811l-2.998,0.095c0.064,2.05,0.795,4.549,1.382,6.558  c0.25,0.857,0.563,1.924,0.579,2.221c0.074,1.365,1.111,7.284,2.154,11.458c0.803,3.215,0.388,4.396,0.173,4.755  c-0.134,0.222-0.306,0.342-0.593,0.413c-0.488,0.125-1.283-0.499-1.833-1.123c0.123-2.036-0.898-4.314-1.768-6.218  c-0.356-0.78-0.693-1.518-0.857-2.044c-0.33-1.064-0.742-2.199-1.141-3.297c-0.43-1.183-1.016-2.795-1.066-3.271  c0.036-0.508-0.108-1.239-0.445-2.881c-0.37-1.802-1.059-5.157-0.816-6.309l-2.936-0.62c-0.344,1.63,0.165,4.375,0.813,7.532  c0.169,0.827,0.381,1.856,0.396,2.021c-0.094,0.843,0.334,2.072,1.235,4.55c0.387,1.065,0.787,2.167,1.096,3.163  c0.22,0.71,0.596,1.532,0.993,2.402c0.747,1.635,1.875,4.106,1.433,5.252c-0.074,0.191-0.224,0.438-0.732,0.655  c-1.922,0.825-4.548-2.835-5.669-4.976c-0.107-2.76-0.749-5.716-1.287-7.759c-1.13-4.294-1.461-7.271-1.728-9.663  c-0.171-1.535-0.318-2.86-0.642-4.073l-2.898,0.772c0.265,0.995,0.395,2.159,0.559,3.632c0.262,2.358,0.622,5.587,1.808,10.095  c1.55,5.891,1.417,9.767,0.598,10.996c-0.137,0.205-0.25,0.266-0.329,0.288c-1.963-0.9-4.858-12.608-5.814-16.477  c-1.879-7.598-2.19-18.205-2.236-20.522c0.339-0.485,0.692-0.969,1.042-1.448c1.146-1.569,2.229-3.052,2.776-4.512l-2.809-1.054  c-0.404,1.076-1.369,2.398-2.39,3.797c-1.561,2.137-3.329,4.559-3.833,7.144c-0.548,2.812-4.385,6.519-5.895,6.952  c0.156-0.406,0.569-1.063,0.837-1.491c0.339-0.54,0.689-1.098,0.97-1.688c0.585-1.227,0.635-2.765,0.693-4.544  c0.059-1.81,0.126-3.861,0.729-6.133c0.309-1.165,0.46-2.274,0.606-3.348c0.451-3.314,0.841-6.177,5.908-9.73  c7.595-5.327,9.563-10.632,9.643-10.855l-2.75-0.986c-1.822-4.753-5.191-12.144-6.915-15.868h21.161  c1.055,3.397,4.37,13.805,6.383,17.125c1.982,3.271,2.131,5.104,2.133,5.104c0,0,0,0,0,0C46.461,29.554,46.548,44.698,46.46,50.299z   M83.043,54.864c-0.504-2.585-2.273-5.007-3.833-7.144c-1.022-1.399-1.987-2.721-2.391-3.797l-2.809,1.054  c0.548,1.46,1.63,2.943,2.776,4.512c0.35,0.479,0.703,0.963,1.042,1.448c-0.046,2.318-0.357,12.924-2.236,20.522  c-0.957,3.868-3.852,15.575-5.814,16.476c-0.079-0.021-0.192-0.083-0.329-0.288c-0.82-1.229-0.953-5.106,0.598-10.996  c1.187-4.508,1.546-7.738,1.808-10.096c0.164-1.473,0.293-2.636,0.558-3.631l-2.898-0.772c-0.323,1.212-0.471,2.538-0.642,4.072  c-0.266,2.392-0.597,5.369-1.728,9.664c-0.538,2.042-1.18,5-1.287,7.759c-1.088,2.077-3.754,5.794-5.669,4.976  c-0.508-0.218-0.658-0.464-0.732-0.655c-0.442-1.146,0.686-3.616,1.433-5.251c0.397-0.87,0.773-1.692,0.993-2.402  c0.309-0.996,0.708-2.096,1.095-3.16c0.9-2.479,1.329-3.709,1.241-4.456c0.009-0.263,0.221-1.292,0.391-2.119  c0.648-3.156,1.157-5.901,0.813-7.531l-2.936,0.619c0.243,1.151-0.446,4.506-0.816,6.308c-0.337,1.642-0.481,2.373-0.445,2.881  c-0.051,0.475-0.637,2.089-1.067,3.273c-0.398,1.097-0.811,2.232-1.141,3.295c-0.164,0.527-0.5,1.265-0.857,2.045  c-0.869,1.903-1.891,4.181-1.767,6.216c-0.522,0.587-1.328,1.24-1.833,1.124c-0.287-0.071-0.458-0.191-0.593-0.413  c-0.215-0.359-0.63-1.54,0.173-4.755c1.043-4.171,2.081-10.092,2.154-11.457c0.017-0.298,0.329-1.364,0.579-2.22  c0.587-2.01,1.318-4.51,1.383-6.561l-2.998-0.095c-0.053,1.669-0.753,4.064-1.264,5.813c-0.421,1.442-0.662,2.288-0.695,2.899  c-0.041,0.753-0.521,3.682-1.145,6.756c-0.278,0.244-0.832,0.617-1.589,0.544c-0.611-0.063-0.948-0.097-0.554-4.139  c0.148-1.515,0.326-2.87,0.474-4.006c0.296-2.266,0.42-3.3,0.255-4.042c-0.086-0.388-0.037-1.442-0.004-2.14  c0.021-0.451,0.041-0.879,0.041-1.228c0-0.405-0.087-1.102-0.283-2.639c-0.335-2.624-0.896-7.016-0.955-10.833  c-0.088-5.601-0.001-20.745-0.001-20.841c0.001-0.018,0.132-1.854,2.135-5.159c2.013-3.32,5.328-13.728,6.383-17.125h21.161  c-1.724,3.722-5.089,11.105-6.912,15.858l-2.753,0.996c0.08,0.223,2.048,5.528,9.642,10.855c5.067,3.553,5.457,6.416,5.908,9.73  c0.146,1.073,0.297,2.183,0.606,3.348c0.603,2.272,0.67,4.324,0.729,6.134c0.058,1.779,0.108,3.316,0.692,4.543  c0.281,0.59,0.631,1.148,0.97,1.688c0.268,0.427,0.681,1.085,0.837,1.491C87.428,61.384,83.591,57.677,83.043,54.864z"/><path d="M52.018,51.414l0.009,3c0.022,0,0.044,0,0.066,0c8.271,0,13.205,4.383,13.287,4.458c0,0,0.004,0.003,0.004,0.003  l1.014-1.105l1.018-1.102c-0.233-0.215-5.797-5.254-15.321-5.254C52.07,51.414,52.043,51.414,52.018,51.414z"/><path d="M61,44.082l-2.308,1.916c3.533,4.255,13.292,8.148,13.705,8.312l1.104-2.79C70.882,50.483,63.53,47.127,61,44.082z"/><path d="M63.304,42.7l1.521-2.586c-0.044-0.026-4.473-2.678-7.226-8.314l-2.695,1.316C58.048,39.556,63.091,42.575,63.304,42.7z"/><path d="M28.583,56.668l2.036,2.204c0.048-0.045,4.922-4.458,13.286-4.458c0.022,0,0.045,0,0.067,0l0.009-3  c-0.026,0-0.051,0-0.077,0C34.381,51.414,28.816,56.453,28.583,56.668z"/><path d="M37.307,45.998L35,44.082c-2.525,3.041-9.88,6.4-12.5,7.438l1.104,2.79C24.016,54.146,33.774,50.252,37.307,45.998z"/><path d="M32.696,42.7c0.213-0.125,5.255-3.145,8.4-9.584L38.401,31.8c-2.723,5.576-7.154,8.271-7.226,8.314l-0.003,0.002  l0.764,1.291L32.696,42.7z"/></svg>