<svg xmlns="http://www.w3.org/2000/svg" version="1.1" viewBox="0 0 32 40"><path d="M3.6280282,7.3496675c0,0,6.2567101,3.9456797,15.247201,5.3266602  c0.732769,0.1127396,1.3246193,0.6200399,1.5500889,1.3246202c0.5927582,1.9511681,2.1597385,5.6773243,5.4591827,5.6773243  c0.4655724,0,0.965416-0.0741367,1.5021172-0.2379341c0.2398052-0.0747795,0.4473572-0.1092243,0.6261253-0.1092243  c1.7751598,0,0.7187557,3.394516,0.3602943,4.3931046c-0.0140934,0.0563641-0.0563698,0.084547-0.1021671,0.084547  s-0.0951176-0.028183-0.1233025-0.084547l-0.53549-1.3246212c-0.0116711-0.0116711-0.028183-0.0185089-0.0455208-0.0185089  c-0.0245209-0.0000019-0.0507011,0.0136719-0.0672092,0.04669l-0.084549,0.3381996  c-0.1972809,0.7045898-0.6764011,1.268259-1.3528004,1.5500889l-0.0845509,0.0281811l-0.0281887-1.6628208  c0-0.0348282-0.032299-0.0589008-0.0636215-0.0589046c-0.0193615-0.0000038-0.0383434,0.0091915-0.0491085,0.0307255  l-0.1972809,0.6482201c-0.2536488,0.8173199-0.9300594,1.4091702-1.7473698,1.6064491l0.5636692-2.2828503  c0.0199261-0.0398579-0.0306072-0.0797176-0.0718803-0.0797176c-0.0170975-0.0000019-0.0326042,0.0068378-0.0408592,0.0233479  l-0.7891293,1.2964401c-0.3381996,0.5636597-0.9018707,0.958231-1.5500908,1.0991497l-0.732769,0.1690998l1.3246193-2.9028893  c0.0230083-0.0460243-0.0291252-0.0920486-0.0797176-0.0920486c-0.0113735,0-0.0226669,0.0023251-0.0330124,0.0074997  l-1.3528099,1.4655285c-0.4227505,0.4509411-0.9864101,0.7327709-1.5782604,0.7891407l-1.5219097,0.1409092l2.5083294-2.8465099  c0.0432625-0.0432682,0.0034962-0.1031399-0.0428162-0.1031437c-0.0140228-0.0000019-0.0286407,0.0054855-0.0417423,0.0185852  l-2.0010204,1.4655399c-0.4509296,0.3100185-0.9864101,0.4791183-1.5219002,0.4791183l-2.5083199-0.0845585l4.2838707-3.3256302  c0.0486622-0.0486641,0.0132961-0.1183281-0.0335407-0.1183376c-0.0074177-0.0000019-0.0151138,0.0017452-0.0228195,0.0055981  l-4.4811602,1.9164696c-0.3074436,0.1281033-0.6382103,0.1921616-0.9684162,0.1921616  c-0.3962736,0-0.7917547-0.0922337-1.1453342-0.2767124l-1.8601103-0.9864197l6.6794701-2.5083103  c0.0752735-0.0250988,0.0611801-0.1172199-0.0024948-0.1172237c-0.0078392,0-0.0164261,0.0013943-0.0256958,0.0044842  l-5.8621387,1.0427895c-0.1323423,0.023016-0.2658625,0.0342846-0.3991156,0.0342846  c-0.5194254,0-1.0348301-0.1712112-1.4609852-0.4852238l-2.3392296-1.7473698l8.37047-0.8455009  c0.1409197-0.0281792,0.1409197-0.2254601,0-0.2536488l-8.2577305-0.760951  c-0.9018703-0.0845499-1.6628203-0.6482201-2.0292001-1.4655399l-0.6482201-1.5500803l8.6522999,1.4373503  c0.0082569,0.0016518,0.0162268,0.0024319,0.02388,0.0024319c0.122963,0,0.165143-0.2013636,0.0324802-0.2279015  l-7.0740299-2.2546701c-0.7891302-0.2536497-1.4091702-0.8736801-1.6346302-1.6628199L3.6280282,7.3496675 M1.9867983,5.1324177  l0.6764698,2.48037l0.59185,2.1701198c0.1517146,0.5311451,0.4247122,1.0074587,0.7894728,1.3996668l-1.4451127-0.2400665  l0.6978199,1.6687002l0.6482201,1.5500793c0.4503396,1.0052958,1.3167698,1.7266674,2.3372543,1.985424L4.127368,16.3644276  l2.0587401,1.5378494l2.3392301,1.7473698c0.2646656,0.1950302,0.5544024,0.3510265,0.8581352,0.46451l-1.6175451,0.6074314  l1.9603195,1.0395603l1.8601103,0.9864197c0.4951,0.2583504,1.0510998,0.3932495,1.6138306,0.3932495  c0.0053844,0,0.0107508-0.0000114,0.0161324-0.0000362l-1.5921631,1.2360153l2.76441,0.0931911l2.3029337,0.0776348  l-1.0766134,1.2217655l2.5070295-0.2321205l1.5219097-0.1409092c0.1487503-0.0141678,0.2957706-0.0380974,0.4403954-0.0714188  l-0.5653839,1.239027l1.9768391-0.4561901l0.7327709-0.1690998c0.1385651-0.0301094,0.2747002-0.0689297,0.4074974-0.115881  l-0.1094875,0.4434223l1.6000595-0.3862209c0.3083401-0.0744247,0.6008701-0.189642,0.871069-0.3395557l0.0031109,0.1834354  l1.2929401-0.4309387l0.0845509-0.0281811l0.0346794-0.011549l0.0337391-0.014061  c0.4066658-0.1694431,0.7686253-0.4145832,1.0715389-0.7190475c0.2044697,0.1834717,0.4697132,0.2886677,0.7527218,0.2886677  c0.4828911,0,0.9055729-0.3135548,1.0521317-0.7711563c0.5742416-1.6071358,1.0803032-3.7565422,0.2584381-4.9247627  c-0.3546391-0.5041103-0.9117508-0.7817307-1.5686893-0.7817307c-0.2881298,0-0.5903206,0.05056-0.92383,0.1545601  c-0.416811,0.1271896-0.8239899,0.1925907-1.2044201,0.1925907c-2.7014503,0-4.0485706-3.4742708-4.5023613-4.9680004  c-0.3462391-1.0823402-1.2468796-1.8518505-2.3548393-2.0223103C10.3426485,10.3539572,4.2222581,6.5421677,4.161448,6.5038176  L1.9867983,5.1324177L1.9867983,5.1324177z"/></svg>