<svg xmlns="http://www.w3.org/2000/svg" version="1.1" viewBox="0 0 64 80"><title>Angel</title><path d="M62,20.9c0-4.6-1.1-9.2-3.2-13.3l-1-1.9L57,7.6c-3.1,6.1-8.3,10.9-14.7,13.4c-0.2-0.8-0.3-1.5-0.3-2.3V12  c0-5.5-4.5-10-10-10S22,6.5,22,12v6.6c0,0.8-0.1,1.6-0.3,2.3C15.3,18.4,10.1,13.7,7,7.6L6.1,5.7l-1,1.9C3.1,11.7,2,16.2,2,20.9  c0,10.8,5.9,20.7,15.4,25.9c-0.2,1.9-0.4,3.9-0.4,5.8V58h8v1c0,1.7,1.3,3,3,3s3-1.3,3-3v-1h2v1c0,1.7,1.3,3,3,3s3-1.3,3-3v-1h8v-5.4  c0-2-0.1-3.9-0.4-5.8C56.1,41.6,62,31.7,62,20.9z M33.7,20.3c2.5-0.8,4.3-3.1,4.3-5.7v-2.8l2,0.9v6c0,1.7,0.4,3.4,1.2,4.9l1.2,2.4  h-3.9C37.1,24,35.5,22.1,33.7,20.3z M25.5,26h-3.9l1.2-2.4c0.8-1.5,1.2-3.2,1.2-4.9v-6l2-0.9v2.9c0,2.6,1.7,5,4.3,5.7  C28.5,22.1,26.9,24,25.5,26z M31.8,9l4.2,1.9v3.7c0,2.2-1.8,4-4,4l0,0l0,0c-2.2,0-4-1.8-4-4v-3.8L31.8,9z M39.8,10.4l-5.6-2.5  l3.4-1.6C38.7,7.4,39.5,8.8,39.8,10.4L39.8,10.4z M32,4c1.3,0,2.6,0.3,3.8,0.9l-11.6,5.4C25,6.7,28.2,4,32,4z M4,20.9  c0-3.6,0.7-7.3,2.1-10.6C9.5,16,14.7,20.4,21,22.9l-1.1,2.3c-0.5,1-0.1,2.2,0.9,2.7c0.3,0.1,0.6,0.2,0.9,0.2h2.5  c-3.2,5.1-5.4,10.7-6.5,16.7C9.2,39.7,4,30.7,4,20.9z M31.9,21.5l0.1-0.1l0.1,0.1c2.6,2.6,4.8,5.5,6.7,8.6  c-7.7,0.7-14.6,5.1-18.5,11.7C22.3,34.1,26.3,27.1,31.9,21.5z M19,54c0-7.3,3.7-14.2,9.7-18.3l0,0C38,38.3,44.5,46.4,45,56H19V54z   M29,59c0,0.6-0.4,1-1,1s-1-0.4-1-1v-1h2V59z M37,59c0,0.6-0.4,1-1,1s-1-0.4-1-1v-1h2V59z M31.1,34.4c2.7-1.4,5.8-2.2,8.8-2.4  c2.4,4.5,4,9.4,4.7,14.5C41.8,40.9,37,36.5,31.1,34.4z M46.3,44.7c-1-5.9-3.2-11.6-6.5-16.7h2.5c1.1,0,2-0.9,2-2  c0-0.3-0.1-0.6-0.2-0.9L43,22.9c6.2-2.4,11.4-6.9,14.8-12.6c1.4,3.4,2.1,7,2.1,10.6C60,30.7,54.8,39.7,46.3,44.7z"/><path d="M52,24h-2c0,2.8-2.2,5-5,5v2C48.9,31,52,27.9,52,24z"/><path d="M48,34v2c3.9,0,7-3.1,7-7h-2C53,31.8,50.8,34,48,34z"/><path d="M14,24h-2c0,3.9,3.1,7,7,7v-2C16.2,29,14,26.8,14,24z"/><path d="M11,29H9c0,3.9,3.1,7,7,7v-2C13.2,34,11,31.8,11,29z"/></svg>