<svg xmlns="http://www.w3.org/2000/svg" viewBox="0 0 60 75" version="1.1"><title>Scarab</title><g stroke="none" stroke-width="1" fill="none" fill-rule="evenodd"><g transform="translate(-1200.000000, -830.000000)" stroke="#000000" stroke-width="2"><g transform="translate(1201.000000, 831.000000)"><path d="M12,25 C12,25 1.25,15.729 15,8" stroke-linecap="round"/><path d="M28.988,8 C26.779,8 24.988,6.209 24.988,4 C24.988,1.791 26.779,0 28.988,0 C31.197,0 32.988,1.791 32.988,4 C32.988,6.209 31.197,8 28.988,8 L28.988,8 Z" stroke-linecap="round"/><path d="M46,25 C46,25 56.75,15.729 43,8" stroke-linecap="round"/><path d="M18.012,58 C12.293,52.344 13.045,44.996 18.012,40.029" stroke-linecap="round"/><path d="M40,58 C45.719,52.344 44.966,44.996 40,40.029" stroke-linecap="round"/><path d="M38,26 L20,26 C17.8,26 16,24.2 16,22 L16,22 C16,19.8 17.8,18 20,18 L38,18 C40.2,18 42,19.8 42,22 L42,22 C42,24.2 40.2,26 38,26 L38,26 Z"/><path d="M34,18 L24,18 C22.35,18 21,16.65 21,15 L21,15 C21,13.35 22.35,12 24,12 L34,12 C35.65,12 37,13.35 37,15 L37,15 C37,16.65 35.65,18 34,18 L34,18 Z"/><path d="M21,14 C19.343,14 18,12.657 18,11 C18,9.343 19.343,8 21,8" stroke-linecap="round"/><path d="M37,14 C38.657,14 40,12.657 40,11 C40,9.343 38.657,8 37,8" stroke-linecap="round"/><path d="M38,26 L35,26 L23,26 L20,26 C19.611,26 19.243,25.926 18.886,25.822 C17.571,28.165 16.623,31.784 17.988,37 C17.988,37 19.405,54 28.988,54 C38.571,54 39.988,37 39.988,37 C41.352,31.789 40.407,28.172 39.093,25.828 C38.743,25.929 38.381,26 38,26 L38,26 Z" stroke-linejoin="round"/><path d="M35,37 C34.634,41.187 32.431,49 28.988,49 C25.51,49 23.349,41.194 23,37" stroke-linecap="round" stroke-linejoin="round"/><path d="M40.6132,25 C40.1772,25.38 39.6622,25.664 39.0932,25.828 L39.0932,25.828 C40.4062,28.172 41.3522,31.789 39.9882,37 L46.0002,37 C52.6272,37 58.0002,31.627 58.0002,25 L40.6132,25 L40.6132,25 Z" stroke-linejoin="round"/><path d="M18.8867,25.8217 C18.3247,25.6567 17.8177,25.3757 17.3867,24.9997 L-0.0003,24.9997 C-0.0003,31.6277 5.3727,36.9997 11.9997,36.9997 L17.9877,36.9997 C16.6237,31.7847 17.5707,28.1657 18.8867,25.8217 L18.8867,25.8217 L18.8867,25.8217 Z" stroke-linejoin="round"/><path d="M2,30 L10,30" stroke-linecap="round"/><path d="M48,30 L56,30" stroke-linecap="round"/></g></g></g></svg>