<svg xmlns="http://www.w3.org/2000/svg" viewBox="0 0 48 60"><title>scissors</title><g data-name="icons"><path d="M39.588,29.2l.006-.009L32.511,24l7.083-5.194-.005-.008a6,6,0,1,0-7.921-.656l-4.694,1.8-16-11.733a2.986,2.986,0,0,0-3.9.3L5.526,10.058,21.928,24,5.526,37.94,7.08,39.495a2.984,2.984,0,0,0,3.895.3l16-11.733,4.7,1.8a6,6,0,1,0,7.918-.656ZM36,10a4,4,0,1,1-4,4A4,4,0,0,1,36,10ZM8.474,9.938l.019-.019a1,1,0,0,1,1.3-.1l15.47,11.345-1.791,1.523ZM9.792,38.179a.994.994,0,0,1-1.3-.1l-.02-.02L27.518,21.873l6.136-2.351a5.979,5.979,0,0,0,1.106.348ZM30.82,25.239l3.942,2.891a6,6,0,0,0-1.106.347l-4.763-1.825ZM36,38a4,4,0,1,1,4-4A4,4,0,0,1,36,38Z"/></g></svg>