<svg xmlns="http://www.w3.org/2000/svg" data-name="Layer 1" viewBox="0 0 64 80" x="0px" y="0px"><path d="M60.84,37c-.4-1.64-.93-3.86-2.86-5.09,1.93-1.24,2.47-3.45,2.86-5.09a8.77,8.77,0,0,1,.69-2.15l.47-.81-.81-.46a8.6,8.6,0,0,1-1.67-1.52c-1.17-1.22-2.74-2.87-5-3,1-2,.41-4.21-.07-5.83A9.06,9.06,0,0,1,54,10.88V10H53a8.88,8.88,0,0,1-2.21-.47C49.2,9,47,8.35,45,9.41c-.1-2.29-1.75-3.86-3-5a8.57,8.57,0,0,1-1.51-1.68L40,1.91l-.8.46a9,9,0,0,1-2.15.7C35.43,3.46,33.21,4,32,5.92,30.75,4,28.53,3.46,26.89,3.06a9.06,9.06,0,0,1-2.15-.69l-.8-.47-.47.81A9.18,9.18,0,0,1,22,4.39c-1.23,1.16-2.88,2.73-3,5-2-1.05-4.22-.41-5.84.07a8.88,8.88,0,0,1-2.21.47H10v.93a8.88,8.88,0,0,1-.47,2.21c-.48,1.62-1.12,3.8-.07,5.83-2.29.11-3.86,1.76-5,3a8.93,8.93,0,0,1-1.67,1.52L2,23.88l.47.81a8.77,8.77,0,0,1,.69,2.15c.39,1.64.93,3.85,2.86,5.09C4.05,33.16,3.51,35.37,3.12,37a9.06,9.06,0,0,1-.69,2.15L2,40l.81.47A8.84,8.84,0,0,1,4.44,42c1.16,1.22,2.73,2.87,5,3-1.05,2-.41,4.22.07,5.83A8.68,8.68,0,0,1,10,53v.93h.93a8.53,8.53,0,0,1,2.2.48c1.62.47,3.8,1.12,5.84.06.1,2.29,1.75,3.86,3,5a9.18,9.18,0,0,1,1.51,1.68l.47.81.8-.47a9.06,9.06,0,0,1,2.15-.69c1.64-.4,3.86-.93,5.09-2.86,1.23,1.93,3.45,2.46,5.09,2.86a9.06,9.06,0,0,1,2.15.69L40,62l.47-.81A8.84,8.84,0,0,1,42,59.47c1.23-1.17,2.88-2.74,3-5,2,1.06,4.22.41,5.84-.07A8.88,8.88,0,0,1,53,53.9H54V53a9.06,9.06,0,0,1,.47-2.21c.48-1.62,1.12-3.8.07-5.83,2.29-.11,3.86-1.76,5-3a8.84,8.84,0,0,1,1.67-1.51L62,40l-.47-.8A9.06,9.06,0,0,1,60.84,37ZM58.17,23.18a13.62,13.62,0,0,0,1.39,1.36A15.66,15.66,0,0,0,59,26.4c-.54,2.24-1,4.21-3.82,4.55a23.1,23.1,0,0,0-2.62-9.79C55.18,20.05,56.58,21.51,58.17,23.18ZM49.69,21.7l-4.82,8.36L40,21.7ZM39,19.84,33.63,10.6a21.38,21.38,0,0,1,16,9.24Zm12.31,2.85a21.36,21.36,0,0,1,0,18.47l-5.33-9.24Zm-1-11.43a16.24,16.24,0,0,0,1.88.48,16,16,0,0,0,.47,1.87c.66,2.22,1.23,4.16-1,5.85a23.51,23.51,0,0,0-7.16-7.16C46.14,10,48.08,10.6,50.29,11.26ZM37.5,4.88a18,18,0,0,0,1.87-.53,17.45,17.45,0,0,0,1.35,1.39c1.67,1.59,3.14,3,2,5.58A23.11,23.11,0,0,0,33,8.69C33.3,5.89,35.26,5.42,37.5,4.88ZM32,11.46,49.7,42.16H14.26ZM49.62,44a21.44,21.44,0,0,1-16,9.24L39,44ZM25,44l5.33,9.24a21.44,21.44,0,0,1-16-9.24ZM23.93,21.7l-4.84,8.37L14.26,21.7Zm-9.59-1.87a21.4,21.4,0,0,1,16-9.23L25,19.84ZM18,31.93l-5.33,9.24a21.38,21.38,0,0,1,0-18.48Zm5.22-26.2a14.62,14.62,0,0,0,1.35-1.39,16.22,16.22,0,0,0,1.86.53c2.25.54,4.21,1,4.55,3.82a23,23,0,0,0-9.78,2.63C20.1,8.72,21.57,7.32,23.24,5.73ZM11.32,13.61a16,16,0,0,0,.47-1.87,16.24,16.24,0,0,0,1.88-.48c2.22-.65,4.15-1.22,5.85,1a23.51,23.51,0,0,0-7.16,7.16C10.09,17.77,10.66,15.83,11.32,13.61ZM4.93,26.4a15.14,15.14,0,0,0-.53-1.86,14.73,14.73,0,0,0,1.39-1.36c1.59-1.67,3-3.13,5.58-2A23.1,23.1,0,0,0,8.75,31C5.94,30.61,5.47,28.64,4.93,26.4Zm.86,14.27A15.91,15.91,0,0,0,4.4,39.32a15.84,15.84,0,0,0,.53-1.87c.54-2.24,1-4.21,3.82-4.54a23.1,23.1,0,0,0,2.62,9.78C8.77,43.8,7.38,42.34,5.79,40.67Zm7.88,11.92a16.13,16.13,0,0,0-1.88-.47,16.13,16.13,0,0,0-.47-1.88c-.66-2.22-1.23-4.16,1-5.85a23.29,23.29,0,0,0,7.16,7.16C17.82,53.82,15.88,53.24,13.67,52.59ZM26.45,59a16.22,16.22,0,0,0-1.86.53,14.62,14.62,0,0,0-1.35-1.39c-1.67-1.59-3.14-3-2-5.59A23.11,23.11,0,0,0,31,55.16C30.66,58,28.7,58.44,26.45,59ZM32,52.39,27.15,44h9.66Zm8.74,5.73a14.62,14.62,0,0,0-1.35,1.39A15.84,15.84,0,0,0,37.5,59c-2.24-.54-4.2-1-4.54-3.82a23,23,0,0,0,9.78-2.63C43.86,55.13,42.39,56.53,40.72,58.12Zm11.93-7.88a14.3,14.3,0,0,0-.48,1.87,16.24,16.24,0,0,0-1.88.48c-2.21.65-4.15,1.23-5.85-1a23.51,23.51,0,0,0,7.16-7.16C53.87,46.08,53.3,48,52.65,50.24Zm5.52-9.57c-1.59,1.67-3,3.13-5.58,2a23.1,23.1,0,0,0,2.62-9.78c2.81.33,3.28,2.3,3.82,4.54a15.84,15.84,0,0,0,.53,1.87A14.62,14.62,0,0,0,58.17,40.67Z"/></svg>