<svg xmlns="http://www.w3.org/2000/svg" xmlns:xlink="http://www.w3.org/1999/xlink" version="1.1" x="0px" y="0px" viewBox="0 0 1024 1280" style="enable-background:new 0 0 1024 1024;" xml:space="preserve"><g><g><g><path d="M911,104c0,0.4,0,3.1-0.1,3.2c-0.1,0,0.8-3.8,0.2-1.4c-0.5,1.7-0.8,3.5-1.3,5.2c-1.1,3.8,0.3-0.2,0.3-0.5     c0,0.6-1.2,2.3-1.4,2.7c-0.4,0.7-0.8,1.3-1.2,1.9c-2.3,3.5,0.2,0.5,0,0.2c0.2,0.3-3.5,3.6-3.7,3.7c-1.6,1.8,1.2-1,1.1-0.8     c-0.1,0.3-2,1.4-2.5,1.7c-0.9,0.5-1.7,1-2.6,1.5c-0.4,0.2-2.7,1.3-0.4,0.3c2.5-1.1-0.5,0.1-1.2,0.3c-1.2,0.4-2.5,0.7-3.7,1     c-3.7,0.9,2.9,0-0.9,0c0.1,0-1.1,0-1.6,0c-0.1,0-0.1,0-0.2,0c-0.3,0-0.6,0-0.9,0c-3.6,0-7.2,0-10.8,0c-17.3,0-34.5,0-51.8,0     c-27.8,0-55.7,0-83.5,0c-35,0-70,0-105,0c-38.9,0-77.8,0-116.7,0c-38.9,0-77.8,0-116.7,0c-36.1,0-72.3,0-108.4,0     c-29.5,0-58.9,0-88.4,0c-19.5,0-39.1,0-58.6,0c-5,0-9.9,0-14.9,0c-1.1,0-2.2,0-3.4,0c-0.2,0-0.4,0-0.5,0c-1,0-6-0.4-2.9-0.1     c3.2,0.3-1.8-0.5-2.6-0.7c0.2,0.1-2.5-0.7-2.5-0.8c0,0.1,4.4,2.3,0.5,0.2c-1.3-0.7-2.6-1.5-4-2.3c-2.9-1.7,2.8,2.8-0.6-0.5     c-1.1-1.1-2.1-2.2-3.2-3.2c-2.2-2.2,1.1,0.9,0.7,1c-0.1,0-1.3-2-1.4-2.2c-0.3-0.4-2.7-4.3-2.5-4.6c0.3-0.5,1,4.1,0.8,1.7     c0-0.6-0.4-1.3-0.6-1.9c-0.2-0.9-0.4-1.7-0.7-2.6c-0.6-1.9,0.6-2.1,0.1,1.3c0.3-1.7-0.1-4-0.2-5.7c-0.1-3.3-0.2,0.7-0.2,0.6     c-0.2-0.2,0.4-2,0.5-2.3c0.1-0.4,1-5,1.5-5.1c0.2,0-2.3,4.4-0.2,0.6c0.4-0.7,0.7-1.3,1.1-2c0.5-0.9,1.1-1.7,1.6-2.5     c1.3-2.2-3.1,3.1,0.2,0c0.6-0.5,4.3-4.3,2.4-2.5c-1.8,1.7-0.1,0.1,0.4-0.2c0.9-0.5,1.7-1.1,2.6-1.6c0.6-0.4,1.4-0.7,2-1.1     c2.3-1.5-3.3,0.9-0.6,0.2c2-0.5,4-1.1,5.9-1.6c2.7-0.7-3.5,0-0.6,0.1c0.8,0,1.6-0.1,2.4-0.1c0,0,0,0,0,0c0.1,0,0.1,0,0.2,0     c0.3,0,0.6,0,0.9,0c1.4,0,2.8,0,4.2,0c14.2,0,28.4,0,42.6,0c25.6,0,51.2,0,76.8,0c33.6,0,67.2,0,100.8,0c38.2,0,76.3,0,114.5,0     c39.3,0,78.6,0,117.9,0c37,0,74.1,0,111.1,0c31.4,0,62.7,0,94.1,0c22.3,0,44.6,0,66.8,0c9.8,0,19.6-0.1,29.3,0c0.2,0,0.3,0,0.5,0     c0.2,0,0.4,0,0.7,0c0.7,0,1.4,0.1,2.1,0.1c4,0.1-1.3,0-1.3-0.2c0.1-0.2,4,1,4.6,1.1c4.3,1.2-2.2-1.5,0.8,0.2     c1.3,0.7,2.7,1.5,4,2.3c4.1,2.3-1.7-1.9,0.6,0.4c1.3,1.2,2.5,2.4,3.7,3.7c2.5,2.5-1.7-3,0,0.1c0.9,1.5,1.8,3,2.6,4.6     c1.6,3-1.1-3.9,0.2,0.8c0.2,0.6,1.3,4.5,1.1,4.6c-0.2,0.1-0.3-5.3-0.2-1.3C910.9,102.1,910.9,103.1,911,104     c0.2,10.5,9.1,20.5,20,20c10.7-0.5,20.2-8.8,20-20c-0.6-32.5-26.6-58.6-59.1-59c-2.6,0-5.3,0-7.9,0c-16.1,0-32.2,0-48.3,0     c-27.5,0-55,0-82.5,0c-35.1,0-70.3,0-105.4,0c-39.4,0-78.8,0-118.3,0c-39.9,0-79.9,0-119.8,0c-36.7,0-73.4,0-110.1,0     c-30.1,0-60.3,0-90.4,0c-19.8,0-39.5,0-59.3,0c-17.3,0-34.4-0.9-49.7,9.4c-16.8,11.4-27.8,30.4-27.1,51     c0.7,19.1,10.1,35.6,25.3,46.8c10.5,7.8,23.5,10.7,36.4,10.7c12.8,0,25.5,0,38.3,0c25.1,0,50.1,0,75.2,0c33.6,0,67.1,0,100.7,0     c38.7,0,77.5,0,116.2,0c40.2,0,80.3,0,120.5,0c37.9,0,75.9,0,113.8,0c32.1,0,64.1,0,96.2,0c22.5,0,45,0,67.5,0     c9.5,0,19,0.1,28.6,0c32.6-0.4,58.6-26.4,59.3-59c0.2-10.5-9.4-20.5-20-20C919.9,84.5,911.2,92.8,911,104z"/></g></g><g><g><path d="M815.5,143c0,19.1,0,38.3,0,57.4c0,45.9,0,91.8,0,137.8c0,55.5,0,111.1,0,166.6c0,47.8,0,95.7,0,143.5     c0,23.2-0.9,46.6,0,69.8c0,0.3,0,0.7,0,1c3.3-5.8,6.6-11.5,9.9-17.3c-10.7,7.9-21.4,15.9-32.1,23.8     c-25.7,19.1-51.4,38.2-77.2,57.2c-31.1,23.1-62.3,46.2-93.4,69.3c-26.9,20-53.9,40-80.8,60c-13.1,9.7-26.9,18.9-39.5,29.3     c-0.2,0.1-0.4,0.3-0.5,0.4c6.7,0,13.5,0,20.2,0c-10.7-7.9-21.4-15.9-32.1-23.8c-25.7-19.1-51.4-38.2-77.2-57.2     c-31.1-23.1-62.3-46.2-93.4-69.3c-26.9-20-53.9-40-80.8-60c-13.1-9.7-26-20-39.5-29.3c-0.2-0.1-0.4-0.3-0.5-0.4     c3.3,5.8,6.6,11.5,9.9,17.3c0-19.1,0-38.3,0-57.4c0-45.9,0-91.8,0-137.8c0-55.5,0-111.1,0-166.6c0-47.8,0-95.7,0-143.5     c0-23.2,0.9-46.6,0-69.8c0-0.3,0-0.7,0-1c-6.7,6.7-13.3,13.3-20,20c21.5,0,43.1,0,64.6,0c51.4,0,102.8,0,154.1,0     c62.5,0,124.9,0,187.4,0c53.7,0,107.4,0,161.1,0c26.2,0,52.5,0.6,78.7,0c0.4,0,0.7,0,1.1,0c10.5,0,20.5-9.2,20-20     c-0.5-10.8-8.8-20-20-20c-21.5,0-43.1,0-64.6,0c-51.4,0-102.8,0-154.1,0c-62.5,0-124.9,0-187.4,0c-53.7,0-107.4,0-161.1,0     c-26.2,0-52.5-0.6-78.7,0c-0.4,0-0.7,0-1.1,0c-10.8,0-20,9.2-20,20c0,14.2,0,28.4,0,42.6c0,35.5,0,71,0,106.5     c0,46.2,0,92.3,0,138.5c0,46.2,0,92.4,0,138.6c0,35.5,0,71,0,106.5c0,14.4-0.9,29,0,43.4c0.5,7.8,4.3,13,10.3,17.6     c0.7,0.5,1.3,1,2,1.5c2.8,2.1,5.7,4.2,8.5,6.3c10.6,7.9,21.3,15.8,31.9,23.7c34.2,25.4,68.3,50.7,102.5,76.1     c36.7,27.2,73.3,54.4,110,81.6c21.7,16.1,43.4,32.2,65.1,48.3c1,0.8,2.1,1.5,3.1,2.3c5.1,3.8,15.1,3.8,20.2,0     c15.4-11.4,30.8-22.9,46.3-34.3c34.6-25.7,69.2-51.4,103.9-77.1c36.4-27,72.8-54,109.1-81c20.7-15.3,41.4-30.7,62.1-46     c6.4-4.8,11.7-10.1,12.1-18.9c0-1.1,0-2.3,0-3.4c0-7.5,0-14.9,0-22.4c0-31.5,0-63,0-94.5c0-44.5,0-88.9,0-133.4     c0-47.1,0-94.3,0-141.4c0-39.1,0-78.1,0-117.2c0-20.3,0-40.7,0-61c0-0.9,0-1.8,0-2.8c0-10.5-9.2-20.5-20-20     C824.7,123.4,815.5,131.7,815.5,143z"/></g></g><g><g><path d="M815.9,143c0,22,0,44,0,66.1c0,34.9,0,69.8,0,104.7c0,8.1,0,16.1,0,24.2c6.7-6.7,13.3-13.3,20-20     c-21.5,0-43.1,0-64.6,0c-51.4,0-102.8,0-154.1,0c-62.5,0-124.9,0-187.4,0c-53.7,0-107.4,0-161.1,0c-26.2,0-52.5-1-78.7,0     c-0.4,0-0.7,0-1.1,0c6.7,6.7,13.3,13.3,20,20c0-22,0-44,0-66.1c0-34.9,0-69.8,0-104.7c0-8.1,0-16.1,0-24.2     c-6.7,6.7-13.3,13.3-20,20c21.5,0,43.1,0,64.6,0c51.4,0,102.8,0,154.1,0c62.5,0,124.9,0,187.4,0c53.7,0,107.4,0,161.1,0     c26.2,0,52.5,0.6,78.7,0c0.4,0,0.7,0,1.1,0c10.5,0,20.5-9.2,20-20c-0.5-10.8-8.8-20-20-20c-21.5,0-43.1,0-64.6,0     c-51.4,0-102.8,0-154.1,0c-62.5,0-124.9,0-187.4,0c-53.7,0-107.4,0-161.1,0c-26.2,0-52.5-0.6-78.7,0c-0.4,0-0.7,0-1.1,0     c-10.8,0-20,9.2-20,20c0,22,0,44,0,66.1c0,34.9,0,69.8,0,104.7c0,8.1,0,16.1,0,24.2c0,10.8,9.2,20,20,20c21.5,0,43.1,0,64.6,0     c51.4,0,102.8,0,154.1,0c62.5,0,124.9,0,187.4,0c53.7,0,107.4,0,161.1,0c26.2,0,52.5,0.6,78.7,0c0.4,0,0.7,0,1.1,0     c10.8,0,20-9.2,20-20c0-22,0-44,0-66.1c0-34.9,0-69.8,0-104.7c0-8.1,0-16.1,0-24.2c0-10.5-9.2-20.5-20-20     C825.1,123.4,815.9,131.7,815.9,143z"/></g></g></g></svg>