<svg xmlns="http://www.w3.org/2000/svg" xmlns:xlink="http://www.w3.org/1999/xlink" version="1.1" x="0px" y="0px" viewBox="0 0 64 80" style="enable-background:new 0 0 64 64;" xml:space="preserve"><g><path d="M58,43c0.552,0,1-0.447,1-1V32c0-0.552-0.448-1-1-1h-5V4c0-0.552-0.448-1-1-1h-3V2c0-0.552-0.448-1-1-1H16   c-0.552,0-1,0.448-1,1v1h-3c-0.552,0-1,0.448-1,1v27H6c-0.552,0-1,0.448-1,1v9H2c-0.552,0-1,0.447-1,1v10c0,0.553,0.448,1,1,1h3v9   c0,0.553,0.448,1,1,1h52c0.552,0,1-0.447,1-1V52c0-0.553-0.448-1-1-1h-3v-8H58z M53,38v-5h4v8h-3H41v-2h11   C52.552,39,53,38.553,53,38z M33,41H21v-2h12V41z M19,39v2h-2v-2H19z M17,31h14v2H17V31z M33,33v-2h14v2H33z M35,35h4v6.586   l-1.293-1.293c-0.391-0.391-1.023-0.391-1.414,0L35,41.586V35z M51,5v32H41v-2h7c0.552,0,1-0.447,1-1V5H51z M47,29H33V3h14V29z    M31,3v26H17V3H31z M13,5h2v29c0,0.553,0.448,1,1,1h17v2H13V5z M7,33h4v5c0,0.553,0.448,1,1,1h3v2H7V33z M3,43h3h27v1   c0,0.404,0.244,0.77,0.617,0.924c0.374,0.155,0.803,0.068,1.09-0.217L37,42.414l2.293,2.293C39.484,44.898,39.74,45,40,45   c0.129,0,0.259-0.024,0.383-0.076C40.756,44.77,41,44.404,41,44v-1h2v8h-2v-3h-2v3H6H3V43z M19,53v8h-2v-8H19z M7,53h8v8H7V53z    M57,61h-2v-4h-2v4h-2v-4h-2v4h-2v-4h-2v4h-2v-4h-2v4H21v-8h33h3V61z M53,51h-8v-8h8V51z"/><rect x="19" y="5" width="10" height="2"/><rect x="21" y="9" width="6" height="2"/><rect x="19" y="13" width="10" height="2"/><rect x="21" y="17" width="6" height="2"/><rect x="19" y="21" width="10" height="2"/><rect x="35" y="5" width="10" height="2"/><rect x="37" y="9" width="6" height="2"/><rect x="35" y="13" width="10" height="2"/><rect x="37" y="17" width="6" height="2"/><rect x="35" y="21" width="10" height="2"/><rect x="21" y="25" width="6" height="2"/><rect x="37" y="25" width="6" height="2"/></g></svg>