<svg xmlns="http://www.w3.org/2000/svg" viewBox="0 0 64 80" x="0px" y="0px"><title>day night</title><g data-name="day night"><path d="M32,51a19,19,0,0,1-15.92-8.58,19.6,19.6,0,0,1-2-4,19,19,0,0,1-1-8.57A19,19,0,0,1,30.63,13.05a1,1,0,0,1,1.05.78,4,4,0,0,1,.08.77,3,3,0,0,1,0,.52A3.78,3.78,0,0,1,34.36,17a3.92,3.92,0,0,1,3.28,0,3.76,3.76,0,0,1,2.62-1.91.92.92,0,0,1,.65.1A18.37,18.37,0,0,1,45.83,19a2.36,2.36,0,0,1,.28.32,1,1,0,0,1,0,1.17A.91.91,0,0,0,46,21a1,1,0,0,0,.8,1,.65.65,0,0,0,.2,0h.58a1,1,0,0,1,.87.51c.16.28.31.56.46.84a18.73,18.73,0,0,1,1.83,5.48,19.14,19.14,0,0,1,.14,5.29h0c0,.35-.08.7-.15,1a1,1,0,0,1-1,.82H49a.93.93,0,0,0-.69.29A1,1,0,0,0,48,37a1,1,0,0,0,.8,1,1,1,0,0,1,.69.52,1,1,0,0,1,0,.85,19.12,19.12,0,0,1-13.3,11.17,16.07,16.07,0,0,1-2.57.41h-.22C33,51,32.5,51,32,51Zm1.35-2.06.18,1-.08-1a15.36,15.36,0,0,0,2.28-.35,17.26,17.26,0,0,0,11.51-9.13A3,3,0,0,1,46,37a3,3,0,0,1,.89-2.13,2.94,2.94,0,0,1,2-.87l0-.11a17,17,0,0,0-.14-4.72,16.73,16.73,0,0,0-1.63-4.9c0-.09-.09-.18-.14-.27a2.4,2.4,0,0,1-.62-.07A3,3,0,0,1,44,21a3.38,3.38,0,0,1,.13-.9,16.52,16.52,0,0,0-3.82-2.93,1.75,1.75,0,0,0-1.11,1.6,1,1,0,0,1-1.8.59,1.8,1.8,0,0,0-2.8,0,1,1,0,0,1-1.8-.59,1.77,1.77,0,0,0-2.27-1.63,1,1,0,0,1-1.09-1.54,1.81,1.81,0,0,0,.22-.44,17,17,0,0,0-14.56,15A17.76,17.76,0,0,0,15,32a16.71,16.71,0,0,0,2.79,9.32A17,17,0,0,0,33.29,49ZM49.89,34h0Z"/><path d="M49.75,30H43a5,5,0,0,1,0-10h2a1,1,0,0,1,1,1,1,1,0,0,0,.8,1,.65.65,0,0,0,.2,0h.58a1,1,0,0,1,.87.51c.16.28.31.56.46.84a18.73,18.73,0,0,1,1.83,5.48,1,1,0,0,1-.23.82A1,1,0,0,1,49.75,30ZM43,22a3,3,0,0,0,0,6h5.52a16.41,16.41,0,0,0-1.39-3.73c0-.09-.09-.18-.14-.27a2.4,2.4,0,0,1-.62-.07A3,3,0,0,1,44.17,22Z"/><path d="M33.57,50.93h-.14a7.4,7.4,0,0,1-4.23-2.11A7.48,7.48,0,0,1,27,43.5a1.48,1.48,0,0,0-.44-1.06A1.5,1.5,0,0,0,25.5,42,3.5,3.5,0,0,1,22,38.5V33a1,1,0,0,1,1-1h7a7,7,0,0,1,7,7V49.55a1,1,0,0,1-.77,1,16.39,16.39,0,0,1-2.58.41ZM36,49.55h0ZM24,34v4.5A1.5,1.5,0,0,0,25.5,40,3.48,3.48,0,0,1,28,41a3.54,3.54,0,0,1,1,2.48,5.46,5.46,0,0,0,4.6,5.42c.49,0,1-.1,1.4-.18V39a5,5,0,0,0-5-5Z"/><path d="M23,34a1,1,0,0,1-.7-.29L19.56,31H14.11a1,1,0,0,1-.75-.33,1,1,0,0,1-.24-.78,18.92,18.92,0,0,1,5.75-11.61,1,1,0,0,1,.69-.28H24a6,6,0,0,1,6,6,4,4,0,0,1-4,4,2,2,0,0,0-2,2v3a1,1,0,0,1-1,1Zm-7.73-5H20a1,1,0,0,1,.7.29L22,30.6V30a4,4,0,0,1,4-4,2,2,0,0,0,2-2,4,4,0,0,0-4-4H20A17,17,0,0,0,15.27,29Z"/><path d="M51,52a1,1,0,0,1-.71-.29l-38-38a1,1,0,0,1,1.42-1.42l38,38a1,1,0,0,1,0,1.42A1,1,0,0,1,51,52Z"/><path d="M36,16a4,4,0,1,1,4-4A4,4,0,0,1,36,16Zm0-6a2,2,0,1,0,2,2A2,2,0,0,0,36,10Z"/><path d="M33.8,19.76a1.12,1.12,0,0,1-.31-.05,1,1,0,0,1-.69-.94,1.77,1.77,0,0,0-2.27-1.63,1,1,0,0,1-1.09-1.54,1.72,1.72,0,0,0,.32-1,1.19,1.19,0,0,0,0-.33A1.7,1.7,0,0,0,28.58,13a1,1,0,0,1,0-1.9A1.75,1.75,0,0,0,29.76,9.4a1.72,1.72,0,0,0-.32-1,1,1,0,0,1,1.09-1.54A1.77,1.77,0,0,0,32.8,5.23a1,1,0,0,1,1.8-.59,1.8,1.8,0,0,0,2.8,0,1,1,0,0,1,1.8.59,1.78,1.78,0,0,0,2.27,1.63A1,1,0,0,1,42.56,8.4a1.72,1.72,0,0,0-.32,1,1.75,1.75,0,0,0,1.18,1.65,1,1,0,0,1,0,1.9,1.73,1.73,0,0,0-.85,2.65,1,1,0,0,1,0,1.16,1,1,0,0,1-1.09.38,2.25,2.25,0,0,0-.89-.05,1.75,1.75,0,0,0-1.38,1.68,1,1,0,0,1-1.8.59,1.8,1.8,0,0,0-2.8,0A1,1,0,0,1,33.8,19.76Zm2.2-3.1a3.79,3.79,0,0,1,1.64.37,3.76,3.76,0,0,1,2.62-1.91h0a3.77,3.77,0,0,1,1-3.11,3.75,3.75,0,0,1-1-2.6,3,3,0,0,1,0-.52A3.78,3.78,0,0,1,37.64,7a3.92,3.92,0,0,1-3.28,0,3.78,3.78,0,0,1-2.64,1.91,3,3,0,0,1,0,.52,3.75,3.75,0,0,1-1,2.59,3.73,3.73,0,0,1,1,1.87,3.5,3.5,0,0,1,.08.74,3,3,0,0,1,0,.52A3.78,3.78,0,0,1,34.36,17,3.79,3.79,0,0,1,36,16.66Z"/><path d="M17.56,55a5.56,5.56,0,0,1-1.27-11,1,1,0,0,1,1.05.4,1,1,0,0,1,0,1.12,3,3,0,0,0,2.48,4.57,2.87,2.87,0,0,0,1.61-.48,1,1,0,0,1,1.12,0,1,1,0,0,1,.4,1.05A5.53,5.53,0,0,1,17.56,55Zm-2.68-7.91a3.56,3.56,0,0,0,5,5h-.07a5,5,0,0,1-5-5Z"/><path d="M56,40H49a2.53,2.53,0,0,1-.63-.07A3,3,0,0,1,46,37a3,3,0,0,1,3-3h0A3.49,3.49,0,0,1,56,34h0a3,3,0,0,1,3,3,3,3,0,0,1-3,3Zm-7-4a.93.93,0,0,0-.69.29A1,1,0,0,0,48,37a1,1,0,0,0,.8,1,.65.65,0,0,0,.2,0h7a.93.93,0,0,0,.69-.29A1,1,0,0,0,57,37a1,1,0,0,0-1-1H55a1,1,0,0,1-1-1v-.5a1.48,1.48,0,0,0-.44-1.06A1.5,1.5,0,0,0,51,34.5V35a1,1,0,0,1-1,1Z"/><path d="M54,24H47a2.53,2.53,0,0,1-.63-.07A3,3,0,0,1,44,21a2.9,2.9,0,0,1,.49-1.64,2.57,2.57,0,0,1,.39-.47A2.93,2.93,0,0,1,47,18h0A3.49,3.49,0,0,1,54,18h0a3,3,0,0,1,3,3,3,3,0,0,1-3,3Zm-7-4a.93.93,0,0,0-.69.29.83.83,0,0,0-.13.14A1,1,0,0,0,46,21a1,1,0,0,0,.8,1,.65.65,0,0,0,.2,0h7a.93.93,0,0,0,.69-.29A1,1,0,0,0,55,21a1,1,0,0,0-1-1H53a1,1,0,0,1-1-1v-.5a1.48,1.48,0,0,0-.44-1.06A1.5,1.5,0,0,0,49,18.5V19a1,1,0,0,1-1,1Z"/><circle cx="6" cy="31" r="1"/><circle cx="12" cy="39" r="1"/><circle cx="12" cy="20" r="1"/><circle cx="26" cy="55" r="1"/><circle cx="44" cy="50" r="1"/><circle cx="40" cy="57" r="1"/></g></svg>