<svg xmlns="http://www.w3.org/2000/svg" xmlns:xlink="http://www.w3.org/1999/xlink" version="1.1" x="0px" y="0px" viewBox="0 0 110 137.5" enable-background="new 0 0 110 110" xml:space="preserve"><path d="M94,58c-0.1,0-0.2,0-0.29,0.01h-0.09c-0.061,0-0.13,0-0.2,0.01c-0.1,0-0.189,0.011-0.28,0.021c-0.1,0-0.199,0.02-0.29,0.03  c-0.13,0.01-0.25,0.029-0.369,0.05c-0.341,0.05-0.66,0.11-0.98,0.2c-0.11,0.02-0.23,0.06-0.34,0.09c-0.25,0.07-0.49,0.16-0.72,0.25  c-0.11,0.04-0.221,0.08-0.33,0.13c-0.15,0.06-0.301,0.13-0.44,0.2c-0.29,0.14-0.57,0.29-0.85,0.46c-0.141,0.08-0.28,0.17-0.41,0.26  c-0.2,0.13-0.391,0.271-0.58,0.42c-0.021,0.021-0.04,0.03-0.061,0.05l-0.01,0.011c-0.069,0.05-0.14,0.109-0.2,0.17  c-0.06,0.05-0.119,0.1-0.189,0.159c-0.03,0.03-0.061,0.051-0.09,0.08c-0.13,0.12-0.261,0.24-0.38,0.37  c-0.15,0.15-0.301,0.311-0.44,0.471c-0.13,0.149-0.26,0.31-0.39,0.479c-0.03,0.03-0.051,0.061-0.08,0.1  c-0.101,0.141-0.21,0.28-0.3,0.431c-0.131,0.18-0.24,0.37-0.351,0.56L64.92,56.2c0.03-0.2,0.05-0.39,0.061-0.59  c0.01-0.07,0.01-0.14,0.01-0.22V55.3C65,55.2,65,55.1,65,55s0-0.2-0.01-0.3v-0.09c0-0.08,0-0.15-0.01-0.22  c-0.011-0.2-0.03-0.39-0.061-0.59l20.42-6.81c0.11,0.19,0.22,0.38,0.351,0.56c0.09,0.15,0.199,0.29,0.3,0.43  c0.029,0.04,0.05,0.07,0.08,0.1c0.13,0.17,0.26,0.33,0.39,0.48c0.14,0.16,0.29,0.32,0.44,0.47c0.119,0.13,0.25,0.25,0.38,0.37  c0.029,0.03,0.06,0.05,0.09,0.08c0.07,0.06,0.13,0.11,0.189,0.16c0.061,0.06,0.131,0.12,0.2,0.17l0.01,0.01  c0.021,0.02,0.04,0.03,0.061,0.05c0.189,0.15,0.38,0.29,0.58,0.42c0.13,0.09,0.27,0.18,0.41,0.26c0.279,0.17,0.56,0.32,0.85,0.46  c0.25,0.13,0.51,0.24,0.771,0.33c0.229,0.09,0.47,0.18,0.72,0.25c0.109,0.03,0.229,0.07,0.34,0.09c0.32,0.09,0.64,0.15,0.98,0.2  c0.119,0.02,0.239,0.04,0.369,0.05c0.091,0.01,0.19,0.03,0.29,0.03c0.091,0.01,0.181,0.02,0.28,0.02c0.07,0.01,0.14,0.01,0.2,0.01  h0.09C93.8,52,93.9,52,94,52c5.52,0,10-4.48,10-10s-4.48-10-10-10c-0.1,0-0.2,0-0.29,0.01h-0.09c-0.061,0-0.13,0-0.2,0.01  c-0.1,0-0.189,0.01-0.28,0.02c-0.1,0-0.199,0.02-0.29,0.03c-0.13,0.01-0.25,0.03-0.369,0.05c-0.341,0.05-0.66,0.11-0.98,0.2  c-0.11,0.02-0.23,0.06-0.34,0.09c-0.25,0.07-0.49,0.16-0.72,0.25c-0.11,0.04-0.221,0.08-0.33,0.13c-0.15,0.06-0.301,0.13-0.44,0.2  c-0.29,0.14-0.57,0.29-0.85,0.46c-0.141,0.08-0.28,0.17-0.41,0.26c-0.2,0.13-0.391,0.27-0.58,0.42c-0.021,0.02-0.04,0.03-0.061,0.05  l-0.01,0.01c-0.069,0.05-0.14,0.11-0.2,0.17c-0.06,0.05-0.119,0.1-0.189,0.16c-0.03,0.03-0.061,0.05-0.09,0.08  c-0.13,0.12-0.261,0.24-0.38,0.37c-0.15,0.15-0.301,0.31-0.44,0.47c-0.13,0.15-0.26,0.31-0.39,0.48c-0.03,0.03-0.051,0.06-0.08,0.1  c-0.101,0.14-0.21,0.28-0.3,0.43c-0.131,0.18-0.24,0.37-0.351,0.56L64.92,30.2c0.03-0.2,0.05-0.39,0.061-0.59  c0.01-0.07,0.01-0.14,0.01-0.22V29.3C65,29.2,65,29.1,65,29c0-5.52-4.48-10-10-10c-0.1,0-0.2,0-0.29,0.01h-0.09  c-0.06,0-0.13,0-0.2,0.01c-0.1,0-0.19,0.01-0.28,0.02c-0.1,0-0.2,0.02-0.29,0.03c-0.13,0.01-0.25,0.03-0.37,0.05  c-0.34,0.05-0.66,0.11-0.98,0.2c-0.11,0.02-0.23,0.06-0.34,0.09c-0.25,0.07-0.49,0.16-0.72,0.25c-0.11,0.04-0.22,0.08-0.33,0.13  c-0.15,0.06-0.3,0.13-0.44,0.2c-0.29,0.14-0.57,0.29-0.85,0.46c-0.14,0.08-0.28,0.17-0.41,0.26c-0.2,0.13-0.39,0.27-0.58,0.42  c-0.02,0.02-0.04,0.03-0.06,0.05l-0.01,0.01c-0.07,0.05-0.14,0.11-0.2,0.17c-0.06,0.05-0.12,0.1-0.19,0.16  c-0.03,0.03-0.06,0.05-0.09,0.08c-0.13,0.12-0.26,0.24-0.38,0.37c-0.15,0.15-0.3,0.31-0.44,0.47c-0.13,0.15-0.26,0.31-0.39,0.48  c-0.03,0.03-0.05,0.06-0.08,0.1c-0.1,0.14-0.21,0.28-0.3,0.43c-0.13,0.18-0.24,0.37-0.35,0.56L25.92,17.2  C25.98,16.81,26,16.41,26,16c0-5.52-4.48-10-10-10S6,10.48,6,16s4.48,10,10,10c3.7,0,6.93-2.01,8.66-5l20.42,6.8  c-0.03,0.2-0.05,0.39-0.06,0.59c-0.01,0.07-0.01,0.14-0.01,0.22v0.09C45,28.8,45,28.9,45,29s0,0.2,0.01,0.3v0.09  c0,0.08,0,0.15,0.01,0.22c0.01,0.2,0.03,0.39,0.06,0.59l-20.42,6.81c-0.11-0.19-0.22-0.38-0.35-0.56c-0.09-0.15-0.2-0.29-0.3-0.43  c-0.03-0.04-0.05-0.07-0.08-0.1c-0.13-0.17-0.26-0.33-0.39-0.48c-0.14-0.16-0.29-0.32-0.44-0.47c-0.12-0.13-0.25-0.25-0.38-0.37  c-0.03-0.03-0.06-0.05-0.09-0.08c-0.13-0.11-0.26-0.23-0.4-0.34c-0.02-0.02-0.04-0.03-0.06-0.05c-0.19-0.15-0.38-0.29-0.58-0.42  c-0.13-0.09-0.27-0.18-0.41-0.26c-0.28-0.17-0.56-0.32-0.85-0.46c-0.14-0.07-0.29-0.14-0.44-0.2c-0.11-0.05-0.22-0.09-0.33-0.13  c-0.23-0.09-0.47-0.18-0.72-0.25c-0.11-0.03-0.23-0.07-0.34-0.09c-0.32-0.09-0.64-0.15-0.98-0.2c-0.12-0.02-0.24-0.04-0.37-0.05  c-0.19-0.03-0.38-0.04-0.57-0.05C16.39,32,16.2,32,16,32c-5.52,0-10,4.48-10,10s4.48,10,10,10c0.2,0,0.39,0,0.58-0.02  c0.19-0.01,0.38-0.02,0.57-0.05c0.13-0.01,0.25-0.03,0.37-0.05c0.34-0.05,0.66-0.11,0.98-0.2c0.11-0.02,0.23-0.06,0.34-0.09  c0.25-0.07,0.49-0.16,0.72-0.25c0.26-0.09,0.52-0.2,0.77-0.33c0.29-0.14,0.57-0.29,0.85-0.46c0.14-0.08,0.28-0.17,0.41-0.26  c0.2-0.13,0.39-0.27,0.58-0.42c0.02-0.02,0.04-0.03,0.06-0.05c0.14-0.11,0.27-0.23,0.4-0.34c0.03-0.03,0.06-0.05,0.09-0.08  c0.13-0.12,0.26-0.24,0.38-0.37c0.15-0.15,0.3-0.31,0.44-0.47c0.13-0.15,0.26-0.31,0.39-0.48c0.03-0.03,0.05-0.06,0.08-0.1  c0.1-0.14,0.21-0.28,0.3-0.43c0.13-0.18,0.24-0.37,0.35-0.56l20.42,6.81c-0.03,0.2-0.05,0.39-0.06,0.59  c-0.01,0.07-0.01,0.14-0.01,0.22v0.09C45,54.8,45,54.9,45,55s0,0.2,0.01,0.3v0.09c0,0.08,0,0.15,0.01,0.22  c0.01,0.2,0.03,0.39,0.06,0.59l-20.42,6.81c-0.11-0.189-0.22-0.38-0.35-0.56c-0.09-0.15-0.2-0.29-0.3-0.431  c-0.03-0.039-0.05-0.069-0.08-0.1c-0.13-0.17-0.26-0.33-0.39-0.479c-0.14-0.16-0.29-0.32-0.44-0.471c-0.12-0.13-0.25-0.25-0.38-0.37  c-0.03-0.029-0.06-0.05-0.09-0.08c-0.07-0.06-0.13-0.109-0.19-0.159c-0.06-0.061-0.13-0.12-0.2-0.17l-0.01-0.011  c-0.02-0.02-0.04-0.029-0.06-0.05c-0.19-0.149-0.38-0.29-0.58-0.42c-0.13-0.09-0.27-0.18-0.41-0.26c-0.28-0.17-0.56-0.32-0.85-0.46  c-0.14-0.07-0.29-0.141-0.44-0.2c-0.11-0.05-0.22-0.09-0.33-0.13c-0.23-0.09-0.47-0.18-0.72-0.25c-0.11-0.03-0.23-0.07-0.34-0.09  c-0.32-0.09-0.64-0.15-0.98-0.2c-0.12-0.021-0.24-0.04-0.37-0.05c-0.09-0.011-0.19-0.03-0.29-0.03c-0.09-0.01-0.18-0.021-0.28-0.021  c-0.07-0.01-0.14-0.01-0.2-0.01h-0.09C16.2,58,16.1,58,16,58c-5.52,0-10,4.48-10,10s4.48,10,10,10c0.1,0,0.2,0,0.29-0.01h0.09  c0.06,0,0.13,0,0.2-0.01c0.1,0,0.19-0.011,0.28-0.021c0.1,0,0.2-0.02,0.29-0.03c0.13-0.01,0.25-0.029,0.37-0.05  c0.34-0.05,0.66-0.11,0.98-0.2c0.11-0.02,0.23-0.06,0.34-0.09c0.25-0.07,0.49-0.16,0.72-0.25c0.26-0.09,0.52-0.2,0.77-0.33  c0.29-0.14,0.57-0.29,0.85-0.46c0.14-0.08,0.28-0.17,0.41-0.26c0.2-0.13,0.39-0.271,0.58-0.42c0.02-0.021,0.04-0.03,0.06-0.05  l0.01-0.011c0.07-0.05,0.14-0.109,0.2-0.17c0.06-0.05,0.12-0.1,0.19-0.159c0.03-0.03,0.06-0.051,0.09-0.08  c0.13-0.12,0.26-0.24,0.38-0.37c0.15-0.15,0.3-0.311,0.44-0.471c0.13-0.149,0.26-0.31,0.39-0.479c0.03-0.03,0.05-0.061,0.08-0.1  c0.1-0.141,0.21-0.28,0.3-0.431c0.13-0.18,0.24-0.37,0.35-0.56l20.42,6.81c-0.03,0.2-0.05,0.391-0.06,0.59  c-0.01,0.07-0.01,0.141-0.01,0.221v0.09C45,80.8,45,80.9,45,81s0,0.2,0.01,0.3v0.09c0,0.08,0,0.15,0.01,0.221  c0.01,0.199,0.03,0.39,0.06,0.59L24.66,89c-0.04-0.06-0.07-0.12-0.11-0.18c-0.08-0.141-0.17-0.28-0.26-0.41  c-0.04-0.061-0.09-0.13-0.13-0.19c-0.05-0.069-0.1-0.13-0.15-0.2c-0.25-0.329-0.52-0.649-0.8-0.939c-0.08-0.08-0.16-0.16-0.24-0.24  c-0.08-0.08-0.17-0.16-0.25-0.24c-0.03-0.02-0.06-0.05-0.09-0.08c-0.13-0.119-0.26-0.239-0.4-0.34c-0.02-0.02-0.04-0.029-0.06-0.05  c-0.57-0.45-1.18-0.83-1.84-1.14c-0.14-0.07-0.29-0.141-0.44-0.2c-0.11-0.05-0.22-0.09-0.33-0.13c-0.05-0.021-0.1-0.04-0.15-0.061  c-0.15-0.06-0.29-0.1-0.44-0.149c-0.04-0.021-0.09-0.03-0.13-0.04c-0.11-0.03-0.23-0.07-0.34-0.09c-0.32-0.09-0.64-0.15-0.98-0.2  c-0.12-0.021-0.24-0.04-0.37-0.05c-0.09-0.011-0.19-0.03-0.29-0.03c-0.09-0.01-0.18-0.021-0.28-0.021c-0.07-0.01-0.14-0.01-0.2-0.01  h-0.09C16.2,84,16.1,84,16,84c-5.52,0-10,4.48-10,10s4.48,10,10,10s10-4.48,10-10c0-0.1,0-0.2-0.01-0.3v-0.09  c0-0.08,0-0.15-0.01-0.221c-0.01-0.199-0.03-0.39-0.06-0.59l20.42-6.81c0.11,0.189,0.22,0.38,0.35,0.56  c0.09,0.15,0.2,0.29,0.3,0.431c0.03,0.039,0.05,0.069,0.08,0.1c0.13,0.17,0.26,0.33,0.39,0.479c0.14,0.16,0.29,0.32,0.44,0.471  c0.12,0.13,0.25,0.25,0.38,0.37c0.03,0.029,0.06,0.05,0.09,0.08c0.07,0.06,0.13,0.109,0.19,0.159c0.06,0.061,0.13,0.12,0.2,0.17  l0.01,0.011c0.02,0.02,0.04,0.029,0.06,0.05c0.19,0.149,0.38,0.29,0.58,0.42c0.13,0.09,0.27,0.18,0.41,0.26  c0.28,0.17,0.56,0.32,0.85,0.46c0.25,0.13,0.51,0.24,0.77,0.33c0.23,0.09,0.47,0.18,0.72,0.25c0.11,0.03,0.23,0.07,0.34,0.09  c0.32,0.09,0.64,0.15,0.98,0.2c0.12,0.021,0.24,0.04,0.37,0.05c0.09,0.011,0.19,0.03,0.29,0.03c0.09,0.01,0.18,0.021,0.28,0.021  c0.07,0.01,0.14,0.01,0.2,0.01h0.09C54.8,91,54.9,91,55,91c5.52,0,10-4.48,10-10c0-0.1,0-0.2-0.01-0.3v-0.09  c0-0.08,0-0.15-0.01-0.221C64.97,80.19,64.95,80,64.92,79.8l20.42-6.81c0.11,0.189,0.22,0.38,0.351,0.56  c0.09,0.15,0.199,0.29,0.3,0.431c0.029,0.039,0.05,0.069,0.08,0.1c0.13,0.17,0.26,0.33,0.39,0.479c0.14,0.16,0.29,0.32,0.44,0.471  c0.119,0.13,0.25,0.25,0.38,0.37c0.029,0.029,0.06,0.05,0.09,0.08c0.07,0.06,0.13,0.109,0.189,0.159  c0.061,0.061,0.131,0.12,0.2,0.17l0.01,0.011c0.021,0.02,0.04,0.029,0.061,0.05c0.189,0.149,0.38,0.29,0.58,0.42  c0.13,0.09,0.27,0.18,0.41,0.26c0.279,0.17,0.56,0.32,0.85,0.46c0.25,0.13,0.51,0.24,0.771,0.33c0.229,0.09,0.47,0.18,0.72,0.25  c0.109,0.03,0.229,0.07,0.34,0.09c0.32,0.09,0.64,0.15,0.98,0.2c0.119,0.021,0.239,0.04,0.369,0.05c0.091,0.011,0.19,0.03,0.29,0.03  c0.091,0.01,0.181,0.021,0.28,0.021c0.07,0.01,0.14,0.01,0.2,0.01h0.09C93.8,78,93.9,78,94,78c5.52,0,10-4.48,10-10S99.52,58,94,58z   M89.27,38.32C90.36,36.91,92.08,36,94,36c3.27,0,5.94,2.63,5.99,5.89C100,41.93,100,41.96,100,42s0,0.07-0.01,0.11  C99.94,45.37,97.27,48,94,48c-1.92,0-3.64-0.91-4.73-2.32C88.47,44.67,88,43.39,88,42S88.47,39.33,89.27,38.32z M20.73,19.69  C19.63,21.09,17.92,22,16,22c-3.31,0-6-2.69-6-6s2.69-6,6-6c3.27,0,5.94,2.63,5.99,5.89C22,15.93,22,15.96,22,16  C22,17.39,21.53,18.67,20.73,19.69z M20.73,45.68C19.64,47.09,17.92,48,16,48c-3.27,0-5.94-2.63-5.99-5.89C10,42.07,10,42.04,10,42  s0-0.07,0.01-0.11C10.06,38.63,12.73,36,16,36c1.92,0,3.64,0.91,4.73,2.32C21.53,39.33,22,40.61,22,42S21.53,44.67,20.73,45.68z   M16,74c-3.27,0-5.94-2.63-5.99-5.89C10,68.07,10,68.04,10,68s0-0.07,0.01-0.11C10.06,64.63,12.73,62,16,62  c1.92,0,3.64,0.91,4.73,2.32C21.53,65.33,22,66.61,22,68s-0.47,2.67-1.27,3.68C19.64,73.09,17.92,74,16,74z M21.99,94.11  C21.94,97.37,19.27,100,16,100c-3.31,0-6-2.69-6-6s2.69-6,6-6c1.92,0,3.63,0.91,4.73,2.31C21.53,91.33,22,92.61,22,94  C22,94.04,22,94.07,21.99,94.11z M50.27,25.32C51.36,23.91,53.08,23,55,23c3.27,0,5.94,2.63,5.99,5.89C61,28.93,61,28.96,61,29  s0,0.07-0.01,0.11c-0.021,1.35-0.48,2.59-1.26,3.58C58.63,34.09,56.92,35,55,35s-3.64-0.91-4.73-2.32C49.47,31.67,49,30.39,49,29  S49.47,26.33,50.27,25.32z M25.92,43.2c0.03-0.2,0.05-0.39,0.06-0.59c0.01-0.1,0.02-0.2,0.01-0.31C26,42.2,26,42.1,26,42  s0-0.2-0.01-0.3c0.01-0.11,0-0.21-0.01-0.31c-0.01-0.2-0.03-0.39-0.06-0.59l20.42-6.81c0.11,0.19,0.22,0.38,0.35,0.56  c0.09,0.15,0.2,0.29,0.3,0.43c0.03,0.04,0.05,0.07,0.08,0.1c0.13,0.17,0.26,0.33,0.39,0.48c0.14,0.16,0.29,0.32,0.44,0.47  c0.12,0.13,0.25,0.25,0.38,0.37c0.03,0.03,0.06,0.05,0.09,0.08c0.07,0.06,0.13,0.11,0.19,0.16c0.06,0.06,0.13,0.12,0.2,0.17  l0.01,0.01c0.02,0.02,0.04,0.03,0.06,0.05c0.19,0.15,0.38,0.29,0.58,0.42c0.13,0.09,0.27,0.18,0.41,0.26  c0.28,0.17,0.56,0.32,0.85,0.46c0.25,0.13,0.51,0.24,0.77,0.33c0.23,0.09,0.47,0.18,0.72,0.25c0.11,0.03,0.23,0.07,0.34,0.09  c0.32,0.09,0.64,0.15,0.98,0.2c0.12,0.02,0.24,0.04,0.37,0.05c0.09,0.01,0.19,0.03,0.29,0.03c0.09,0.01,0.18,0.02,0.28,0.02  c0.07,0.01,0.14,0.01,0.2,0.01h0.09C54.8,39,54.9,39,55,39s0.2,0,0.29-0.01h0.09c0.06,0,0.13,0,0.2-0.01c0.1,0,0.19-0.01,0.28-0.02  c0.1,0,0.2-0.02,0.291-0.03c0.13-0.01,0.25-0.03,0.369-0.05c0.341-0.05,0.66-0.11,0.98-0.2c0.11-0.02,0.23-0.06,0.34-0.09  c0.04-0.01,0.09-0.02,0.13-0.04c0.15-0.05,0.29-0.09,0.44-0.15l0.149-0.06c0.261-0.09,0.521-0.2,0.771-0.33  c0.66-0.31,1.27-0.69,1.84-1.14c0.021-0.02,0.04-0.03,0.061-0.05c0.14-0.1,0.27-0.22,0.399-0.34c0.03-0.03,0.061-0.06,0.09-0.08  c0.17-0.16,0.33-0.31,0.49-0.48c0.28-0.29,0.55-0.61,0.8-0.94c0.05-0.07,0.101-0.13,0.15-0.2c0.04-0.06,0.09-0.13,0.13-0.19  c0.09-0.13,0.18-0.27,0.26-0.41c0.04-0.06,0.07-0.12,0.11-0.18l20.42,6.8c-0.03,0.2-0.05,0.39-0.061,0.59  c-0.01,0.07-0.01,0.14-0.01,0.22v0.09C84,41.8,84,41.9,84,42s0,0.2,0.01,0.3v0.09c0,0.08,0,0.15,0.01,0.22  c0.011,0.2,0.03,0.39,0.061,0.59l-20.42,6.81c-0.11-0.19-0.22-0.38-0.351-0.56c-0.09-0.15-0.199-0.29-0.3-0.43  c-0.029-0.04-0.05-0.07-0.08-0.1c-0.13-0.17-0.26-0.33-0.39-0.48c-0.14-0.16-0.29-0.32-0.44-0.47c-0.119-0.13-0.25-0.25-0.38-0.37  c-0.029-0.03-0.06-0.05-0.09-0.08c-0.07-0.06-0.13-0.11-0.189-0.16c-0.061-0.06-0.131-0.12-0.2-0.17l-0.01-0.01  c-0.021-0.02-0.04-0.03-0.061-0.05c-0.189-0.15-0.38-0.29-0.58-0.42c-0.13-0.09-0.27-0.18-0.41-0.26  c-0.279-0.17-0.56-0.32-0.85-0.46c-0.14-0.07-0.29-0.14-0.44-0.2c-0.109-0.05-0.22-0.09-0.33-0.13c-0.229-0.09-0.47-0.18-0.72-0.25  c-0.109-0.03-0.229-0.07-0.34-0.09c-0.32-0.09-0.64-0.15-0.98-0.2c-0.119-0.02-0.239-0.04-0.369-0.05  c-0.091-0.01-0.19-0.03-0.291-0.03c-0.09-0.01-0.18-0.02-0.28-0.02c-0.07-0.01-0.14-0.01-0.2-0.01h-0.09C55.2,45,55.1,45,55,45  s-0.2,0-0.29,0.01h-0.09c-0.06,0-0.13,0-0.2,0.01c-0.1,0-0.19,0.01-0.28,0.02c-0.1,0-0.2,0.02-0.29,0.03  c-0.13,0.01-0.25,0.03-0.37,0.05c-0.34,0.05-0.66,0.11-0.98,0.2c-0.11,0.02-0.23,0.06-0.34,0.09c-0.25,0.07-0.49,0.16-0.72,0.25  c-0.11,0.04-0.22,0.08-0.33,0.13c-0.15,0.06-0.3,0.13-0.44,0.2c-0.29,0.14-0.57,0.29-0.85,0.46c-0.14,0.08-0.28,0.17-0.41,0.26  c-0.2,0.13-0.39,0.27-0.58,0.42c-0.02,0.02-0.04,0.03-0.06,0.05l-0.01,0.01c-0.07,0.05-0.14,0.11-0.2,0.17  c-0.06,0.05-0.12,0.1-0.19,0.16c-0.03,0.03-0.06,0.05-0.09,0.08c-0.13,0.12-0.26,0.24-0.38,0.37c-0.15,0.15-0.3,0.31-0.44,0.47  c-0.13,0.15-0.26,0.31-0.39,0.48c-0.03,0.03-0.05,0.06-0.08,0.1c-0.1,0.14-0.21,0.28-0.3,0.43c-0.13,0.18-0.24,0.37-0.35,0.56  L25.92,43.2z M49,55c0-0.04,0-0.07,0.01-0.11c0.02-1.35,0.48-2.58,1.26-3.57C51.36,49.91,53.08,49,55,49s3.64,0.91,4.73,2.32  c0.779,0.99,1.239,2.22,1.26,3.57C61,54.93,61,54.96,61,55s0,0.07-0.01,0.11c-0.021,1.35-0.48,2.581-1.26,3.57  C58.64,60.09,56.92,61,55,61s-3.64-0.91-4.73-2.32c-0.78-0.989-1.24-2.22-1.26-3.57C49,55.07,49,55.04,49,55z M60.99,81.11  C60.94,84.37,58.27,87,55,87c-1.92,0-3.64-0.91-4.73-2.32C49.47,83.67,49,82.39,49,81s0.47-2.67,1.27-3.68  C51.36,75.91,53.08,75,55,75s3.63,0.91,4.73,2.31c0.779,0.99,1.239,2.23,1.26,3.58C61,80.93,61,80.96,61,81S61,81.07,60.99,81.11z   M84.01,68.3v0.09c0,0.08,0,0.15,0.01,0.221C84.03,68.81,84.05,69,84.08,69.2L63.66,76c-0.04-0.06-0.07-0.12-0.11-0.18  c-0.08-0.141-0.17-0.28-0.26-0.41c-0.04-0.061-0.09-0.13-0.13-0.19c-0.05-0.069-0.101-0.13-0.15-0.2  c-0.25-0.329-0.52-0.649-0.8-0.939l-0.24-0.24c-0.08-0.08-0.17-0.16-0.25-0.24c-0.029-0.02-0.06-0.05-0.09-0.08  c-0.13-0.119-0.26-0.239-0.399-0.34c-0.021-0.02-0.04-0.029-0.061-0.05c-0.57-0.45-1.18-0.83-1.84-1.14  c-0.14-0.07-0.29-0.141-0.44-0.2c-0.109-0.05-0.22-0.09-0.33-0.13c-0.05-0.021-0.1-0.04-0.149-0.061c-0.15-0.06-0.29-0.1-0.44-0.149  c-0.04-0.021-0.09-0.03-0.13-0.04c-0.109-0.03-0.229-0.07-0.34-0.09c-0.32-0.09-0.64-0.15-0.98-0.2  C56.4,71.1,56.28,71.08,56.15,71.07c-0.091-0.011-0.19-0.03-0.291-0.03c-0.09-0.01-0.18-0.021-0.28-0.021  c-0.07-0.01-0.14-0.01-0.2-0.01h-0.09C55.2,71,55.1,71,55,71s-0.2,0-0.29,0.01h-0.09c-0.06,0-0.13,0-0.2,0.01  c-0.1,0-0.19,0.011-0.28,0.021c-0.1,0-0.2,0.02-0.29,0.03c-0.13,0.01-0.25,0.029-0.37,0.05c-0.34,0.05-0.66,0.11-0.98,0.2  c-0.11,0.02-0.23,0.06-0.34,0.09c-0.25,0.07-0.49,0.16-0.72,0.25c-0.11,0.04-0.22,0.08-0.33,0.13c-0.15,0.06-0.3,0.13-0.44,0.2  c-0.29,0.14-0.57,0.29-0.85,0.46c-0.14,0.08-0.28,0.17-0.41,0.26c-0.2,0.13-0.39,0.271-0.58,0.42c-0.02,0.021-0.04,0.03-0.06,0.05  l-0.01,0.011c-0.07,0.05-0.14,0.109-0.2,0.17c-0.06,0.05-0.12,0.1-0.19,0.159c-0.03,0.03-0.06,0.051-0.09,0.08  c-0.13,0.12-0.26,0.24-0.38,0.37c-0.15,0.15-0.3,0.311-0.44,0.471c-0.13,0.149-0.26,0.31-0.39,0.479c-0.03,0.03-0.05,0.061-0.08,0.1  c-0.1,0.141-0.21,0.28-0.3,0.431c-0.13,0.18-0.24,0.37-0.35,0.56L25.92,69.2c0.03-0.2,0.05-0.391,0.06-0.59  c0.01-0.07,0.01-0.141,0.01-0.221V68.3C26,68.2,26,68.1,26,68s0-0.2-0.01-0.3v-0.09c0-0.08,0-0.15-0.01-0.221  c-0.01-0.199-0.03-0.39-0.06-0.59l20.42-6.81c0.11,0.189,0.22,0.38,0.35,0.56c0.09,0.15,0.2,0.29,0.3,0.431  c0.03,0.039,0.05,0.069,0.08,0.1c0.13,0.17,0.26,0.33,0.39,0.479c0.14,0.16,0.29,0.32,0.44,0.471c0.12,0.13,0.25,0.25,0.38,0.37  c0.03,0.029,0.06,0.05,0.09,0.08c0.07,0.06,0.13,0.109,0.19,0.159c0.06,0.061,0.13,0.12,0.2,0.17l0.01,0.011  c0.02,0.02,0.04,0.029,0.06,0.05c0.19,0.149,0.38,0.29,0.58,0.42c0.13,0.09,0.27,0.18,0.41,0.26c0.28,0.17,0.56,0.32,0.85,0.46  c0.25,0.13,0.51,0.24,0.77,0.33c0.23,0.09,0.47,0.18,0.72,0.25c0.11,0.03,0.23,0.07,0.34,0.09c0.32,0.09,0.64,0.15,0.98,0.2  c0.12,0.021,0.24,0.04,0.37,0.05c0.09,0.011,0.19,0.03,0.29,0.03c0.09,0.01,0.18,0.021,0.28,0.021c0.07,0.01,0.14,0.01,0.2,0.01  h0.09C54.8,65,54.9,65,55,65s0.2,0,0.29-0.01h0.09c0.06,0,0.13,0,0.2-0.01c0.1,0,0.19-0.011,0.28-0.021c0.1,0,0.2-0.02,0.291-0.03  c0.13-0.01,0.25-0.029,0.369-0.05c0.341-0.05,0.66-0.11,0.98-0.2c0.11-0.02,0.23-0.06,0.34-0.09c0.25-0.07,0.49-0.16,0.72-0.25  c0.261-0.09,0.521-0.2,0.771-0.33c0.29-0.14,0.57-0.29,0.85-0.46c0.141-0.08,0.28-0.17,0.41-0.26c0.2-0.13,0.391-0.271,0.58-0.42  c0.021-0.021,0.04-0.03,0.061-0.05l0.01-0.011c0.069-0.05,0.14-0.109,0.2-0.17c0.06-0.05,0.119-0.1,0.189-0.159  c0.03-0.03,0.061-0.051,0.09-0.08c0.13-0.12,0.261-0.24,0.38-0.37c0.15-0.15,0.301-0.311,0.44-0.471  c0.13-0.149,0.26-0.31,0.39-0.479c0.03-0.03,0.051-0.061,0.08-0.1c0.101-0.141,0.21-0.28,0.3-0.431c0.131-0.18,0.24-0.37,0.351-0.56  l20.42,6.81c-0.03,0.2-0.05,0.391-0.061,0.59c-0.01,0.07-0.01,0.141-0.01,0.221v0.09C84,67.8,84,67.9,84,68S84,68.2,84.01,68.3z   M99.99,68.11C99.94,71.37,97.27,74,94,74c-1.92,0-3.64-0.91-4.73-2.32C88.47,70.67,88,69.39,88,68s0.47-2.67,1.27-3.68  C90.36,62.91,92.08,62,94,62c3.27,0,5.94,2.63,5.99,5.89C100,67.93,100,67.96,100,68S100,68.07,99.99,68.11z"/></svg>