<svg xmlns="http://www.w3.org/2000/svg" xmlns:xlink="http://www.w3.org/1999/xlink" viewBox="0 0 60 75" version="1.1" x="0px" y="0px"><title>021 - Diamond</title><desc>Created with Sketch.</desc><g stroke="none" stroke-width="1" fill="none" fill-rule="evenodd"><g transform="translate(-1.000000, -1.000000)" fill="#000000" fill-rule="nonzero"><path d="M54.984,33.922 C54.9787523,33.8380873 54.9619263,33.7553033 54.934,33.676 C54.919526,33.6335249 54.9021518,33.5920941 54.882,33.552 C54.867,33.523 54.862,33.491 54.844,33.463 L47.844,22.463 C47.7817368,22.3694885 47.7039504,22.2873055 47.614,22.22 C47.604,22.211 47.599,22.199 47.588,22.191 C47.5762758,22.1850667 47.5642606,22.1797266 47.552,22.175 C47.4563278,22.1085469 47.349699,22.0594638 47.237,22.03 C47.222,22.03 47.208,22.03 47.193,22.024 C47.1295576,22.009989 47.0649418,22.0019539 47,22 L15,22 C14.9373638,22.001891 14.8750647,22.0099296 14.814,22.024 C14.796,22.024 14.779,22.024 14.762,22.03 C14.649543,22.059275 14.5432106,22.1083776 14.448,22.175 C14.4357394,22.1797266 14.4237242,22.1850667 14.412,22.191 C14.401,22.199 14.396,22.212 14.386,22.22 C14.2962304,22.2875083 14.2184756,22.3696579 14.156,22.463 L7.156,33.463 C7.138,33.491 7.133,33.523 7.118,33.552 C7.09784817,33.5920941 7.08047396,33.6335249 7.066,33.676 C7.03807372,33.7553033 7.0212477,33.8380873 7.016,33.922 C7.00913421,33.947662 7.00379155,33.9737074 7,34 C7.0017515,34.0111154 7.00408808,34.0221307 7.007,34.033 C7.00887102,34.1546675 7.03293191,34.2749719 7.078,34.388 L7.086,34.401 C7.12736088,34.4962136 7.18300052,34.5845626 7.251,34.663 L30.251,60.663 C30.259,60.672 30.271,60.674 30.279,60.683 C30.300044,60.7072178 30.3224115,60.730253 30.346,60.752 C30.3616795,60.7645559 30.3780375,60.7762402 30.395,60.787 C30.4512885,60.8315791 30.5123246,60.8698105 30.577,60.901 C30.599,60.911 30.621,60.917 30.643,60.925 L30.663,60.932 C30.679,60.938 30.69,60.951 30.706,60.956 C30.722,60.961 30.731,60.956 30.744,60.956 C30.757,60.956 30.773,60.969 30.789,60.973 C30.854856,60.9862867 30.9218205,60.993318 30.989,60.994 L31,60.994 C31.1125578,60.9932749 31.224164,60.9733211 31.33,60.935 C31.347,60.929 31.363,60.92 31.38,60.913 C31.397,60.906 31.434,60.882 31.462,60.867 C31.5202025,60.8392624 31.5754787,60.8057617 31.627,60.767 C31.638,60.758 31.652,60.755 31.663,60.745 C31.674,60.735 31.686,60.709 31.702,60.693 C31.718,60.677 31.736,60.674 31.749,60.659 L54.749,34.659 C54.8169995,34.5805626 54.8726391,34.4922136 54.914,34.397 L54.922,34.384 C54.9670681,34.2709719 54.991129,34.1506675 54.993,34.029 C54.9957829,34.0194474 54.9981188,34.0097702 55,34 C54.9962084,33.9737074 54.9908658,33.947662 54.984,33.922 Z M15.055,24.776 L21.036,33 L9.822,33 L15.055,24.776 Z M31,56.6 L24.354,35 L37.646,35 L31,56.6 Z M24.964,33 L31,24.7 L37.036,33 L24.964,33 Z M32.964,24 L45.036,24 L39,32.3 L32.964,24 Z M23,32.3 L16.964,24 L29.036,24 L23,32.3 Z M22.261,35 L28.684,55.872 L10.22,35 L22.261,35 Z M39.738,35 L51.78,35 L33.316,55.873 L39.738,35 Z M40.964,33 L46.945,24.776 L52.178,33 L40.964,33 Z"/><path d="M31,37 C30.4477153,37 30,37.4477153 30,38 L30,46 C30,46.5522847 30.4477153,47 31,47 C31.5522847,47 32,46.5522847 32,46 L32,38 C32,37.4477153 31.5522847,37 31,37 Z"/><path d="M21.8,41.4 L18.8,37.4 C18.4686292,36.9581722 17.8418278,36.8686292 17.4,37.2 C16.9581722,37.5313708 16.8686292,38.1581722 17.2,38.6 L20.2,42.6 C20.5313708,43.0418278 21.1581722,43.1313708 21.6,42.8 C22.0418278,42.4686292 22.1313708,41.8418278 21.8,41.4 Z"/><path d="M44.6,37.2 C44.1581722,36.8686292 43.5313708,36.9581722 43.2,37.4 L40.2,41.4 C39.9856406,41.6858125 39.9400435,42.0642735 40.0803847,42.3928203 C40.2207259,42.7213672 40.5256842,42.950086 40.8803847,42.9928204 C41.2350853,43.0355548 41.5856407,42.8858125 41.8,42.6 L44.8,38.6 C44.9591299,38.3878268 45.0274568,38.1211296 44.9899495,37.8585786 C44.9524422,37.5960277 44.8121732,37.3591299 44.6,37.2 Z"/><path d="M27.214,2.681 C26.1123831,4.09239847 25.7097225,5.9269861 26.119,7.67 C26.4177114,9.14884381 26.8840562,10.5888093 27.509,11.962 C27.696,12.417 27.883,12.872 28.056,13.327 L28.205,13.727 C28.684,14.992 29.178,16.3 29.726,17.573 L30.082,18.399 C30.240226,18.7652597 30.6010242,19.0024196 31,19.0024196 C31.3989758,19.0024196 31.759774,18.7652597 31.918,18.399 L32.274,17.573 C32.822,16.3 33.316,14.992 33.795,13.727 L33.944,13.327 C34.117,12.871 34.304,12.416 34.491,11.961 C35.1159438,10.5878093 35.5822886,9.14784381 35.881,7.669 C36.2914132,5.9114995 35.8775587,4.06277744 34.757,2.648 C33.7860246,1.59032567 32.4141966,0.990930203 30.9784281,0.997021227 C29.5426596,1.00311225 28.1759666,1.61412547 27.214,2.68 L27.214,2.681 Z M33.908,7.343 C33.6319656,8.67207182 33.2072954,9.96587356 32.642,11.2 C32.442,11.673 32.254,12.145 32.074,12.618 L31.924,13.018 C31.624,13.809 31.319,14.618 31,15.418 C30.681,14.618 30.375,13.809 30.076,13.018 L29.926,12.618 C29.746,12.145 29.553,11.673 29.358,11.2 C28.7926337,9.96555438 28.3679622,8.67141337 28.092,7.342 C27.8170135,6.18489191 28.0479581,4.96543167 28.727,3.989 C29.3168499,3.35277918 30.146317,2.99284868 31.0138915,2.99664966 C31.8814659,3.00045065 32.7077474,3.36763525 33.292,4.009 C33.9588176,4.98352759 34.1825678,6.19453919 33.908,7.343 Z"/><path d="M10.871,23.245 L11.171,22.87 C11.812,22.076 12.392,21.249 12.954,20.45 C13.8473192,19.0794101 14.8772486,17.8028873 16.028,16.64 C17.6119643,15.0346782 19.7466213,14.0910254 22,14 C22.5522847,14 23,13.5522847 23,13 C23,12.4477153 22.5522847,12 22,12 C19.2320554,12.0752362 16.600331,13.2175013 14.655,15.188 C13.4050849,16.4418391 12.2859886,17.8196009 11.315,19.3 C10.772,20.073 10.215,20.872 9.615,21.614 L9.303,22.006 C8.79902605,22.7469697 8.16312356,23.3889736 7.427,23.9 C6.36214129,24.4936762 5.07400212,24.5280465 3.979,23.992 C3.34669283,23.6243018 2.96985087,22.9368251 3,22.206 C2.99091645,21.5727234 3.2404615,20.9631256 3.691,20.518 C4.66461606,19.6915473 5.85250965,19.1579314 7.117,18.979 C7.65768676,18.8638486 8.00265135,18.3321868 7.88749999,17.7915 C7.77234862,17.2508132 7.24068677,16.9058486 6.7,17.021 C5.06574244,17.2727943 3.53837439,17.9892687 2.3,19.085 C1.44648515,19.915707 0.975750584,21.063213 1,22.254 C0.984918302,23.6789177 1.73849531,25.0014988 2.972,25.715 C3.75550127,26.1518929 4.64000658,26.3753469 5.537,26.363 C6.52586349,26.3632894 7.49968396,26.1208644 8.373,25.657 C9.3592871,25.0290277 10.2088733,24.2086907 10.871,23.245 Z"/><path d="M13.33,6.944 C13.8513568,6.76174603 14.126254,6.1913568 13.944,5.67 C13.761746,5.1486432 13.1913568,4.87374603 12.67,5.056 C11.1993042,5.52370537 9.97977923,6.56545809 9.288,7.945 C8.90836613,8.85442524 8.94711892,9.88466439 9.394,10.763 C10.0427193,12.0371612 11.3710726,12.819899 12.8,12.77 C13.3121692,12.7709456 13.8203076,12.6794807 14.3,12.5 C15.3543622,12.048776 16.3067341,11.3892584 17.1,10.561 C18.914,8.803 20.561,8.577 22.443,9.832 C22.9025009,10.138518 23.523482,10.0145009 23.83,9.555 C24.136518,9.09549909 24.0125009,8.47451804 23.553,8.168 C21.7,6.932 18.834,6.1 15.709,9.125 C15.1107955,9.76242142 14.391419,10.2740763 13.593,10.63 C12.7212696,11.0229703 11.6933179,10.7068752 11.193,9.892 C10.9948586,9.52691717 10.9738763,9.09144133 11.136,8.709 C11.6098031,7.85758923 12.3968602,7.22442796 13.33,6.944 Z"/><path d="M19.105,18.553 C18.8623916,19.0406011 19.0577997,19.6326251 19.543,19.88 C19.6833501,19.953652 19.8394984,19.9920885 19.998,19.992 C20.3697589,19.9912236 20.7112866,19.7870744 20.888,19.46 C21.5848128,18.4461746 22.7749252,17.8878313 24,18 C24.5522847,18 25,17.5522847 25,17 C25,16.4477153 24.5522847,16 24,16 C22.0198559,15.8713067 20.1327144,16.8555503 19.105,18.553 Z"/><path d="M55.3,17.021 C54.7593132,16.9066771 54.2283229,17.2523132 54.114,17.793 C53.9996771,18.3336868 54.3453132,18.8646771 54.886,18.979 C56.1500328,19.1578254 57.337546,19.6910795 58.311,20.517 C58.7614519,20.9624394 59.0103503,21.5725839 59,22.206 C59.028918,22.9349581 58.6526229,23.6202154 58.022,23.987 C56.9267734,24.5220139 55.639138,24.487657 54.574,23.895 C53.839043,23.3852662 53.2038583,22.7449974 52.7,22.006 L52.388,21.614 C51.788,20.872 51.227,20.073 50.688,19.3 C49.7186373,17.8197971 48.6012191,16.4420389 47.353,15.188 C45.4069268,13.2167925 42.7739915,12.0744684 40.005,12 C39.4527153,11.9986193 39.0038807,12.4452153 39.0025,12.9975 C39.0011193,13.5497847 39.4477153,13.9986193 40,14 C42.2554785,14.0895222 44.3925408,15.0332901 45.978,16.64 C47.1282131,17.8030059 48.1580996,19.0791405 49.052,20.449 C49.613,21.249 50.194,22.076 50.835,22.87 L51.135,23.245 C51.7977108,24.2088892 52.6479916,25.0292401 53.635,25.657 C54.5082719,26.1209796 55.4821215,26.3634118 56.471,26.363 C57.3679934,26.3753469 58.2524987,26.1518929 59.036,25.715 C60.2664259,24.9994546 61.0167256,23.6772615 61,22.254 C61.0242494,21.063213 60.5535148,19.915707 59.7,19.085 C58.461876,17.9888878 56.9343904,17.2723582 55.3,17.021 Z"/><path d="M39.556,9.832 C41.437,8.577 43.084,8.803 44.898,10.561 C45.6920133,11.3892904 46.6450432,12.0487925 47.7,12.5 C48.1796048,12.6797996 48.6878018,12.7712751 49.2,12.77 C50.6298047,12.8203333 51.9592539,12.0376391 52.609,10.763 C53.0558811,9.88466439 53.0946339,8.85442524 52.715,7.945 C52.0232208,6.56545809 50.8036958,5.52370537 49.333,5.056 C48.9957413,4.93810234 48.6212037,5.00908581 48.350472,5.2422116 C48.0797403,5.4753374 47.953945,5.83518817 48.020472,6.18621162 C48.086999,6.53723506 48.3357413,6.82610236 48.673,6.944 C49.6061398,7.22442796 50.3931969,7.85758923 50.867,8.709 C51.0290975,9.09110291 51.0081124,9.52626761 50.81,9.891 C50.3099983,10.7062443 49.2819755,11.0227897 48.41,10.63 C47.6112234,10.2741911 46.8914979,9.76252982 46.293,9.125 C43.169,6.094 40.302,6.932 38.448,8.168 C37.9884991,8.47451805 37.864482,9.09549908 38.171,9.55499998 C38.4775181,10.0145009 39.0984991,10.138518 39.558,9.832 L39.556,9.832 Z"/><path d="M37,17 C37,17.5522847 37.4477153,18 38,18 C39.2243385,17.8877699 40.4138879,18.4452636 41.111,19.458 C41.3725195,19.9254354 41.9559023,20.1038143 42.4341141,19.8625639 C42.9123259,19.6213136 43.1155381,19.0461099 42.895,18.558 C41.8685775,16.8586318 39.9811854,15.8723297 38,16 C37.4477153,16 37,16.4477153 37,17 Z"/></g></g></svg>