<svg xmlns="http://www.w3.org/2000/svg" xmlns:xlink="http://www.w3.org/1999/xlink" version="1.1" x="0px" y="0px" viewBox="0 0 64 80" style="enable-background:new 0 0 64 64;" xml:space="preserve"><path d="M61.465,31.198l-5.008-2.634l4.069-3.934c0.268-0.258,0.369-0.644,0.265-1s-0.398-0.626-0.763-0.699l-5.549-1.112  l2.789-4.925c0.183-0.324,0.172-0.722-0.029-1.034s-0.557-0.489-0.929-0.455l-5.636,0.499l1.293-5.509  c0.085-0.361-0.038-0.74-0.318-0.984c-0.281-0.243-0.674-0.311-1.02-0.176l-5.271,2.061L45.05,5.645  c-0.02-0.371-0.245-0.7-0.583-0.854c-0.338-0.153-0.733-0.108-1.028,0.118l-4.476,3.465L37.067,3.04  c-0.125-0.351-0.433-0.603-0.801-0.655c-0.371-0.054-0.735,0.104-0.952,0.404L32,7.376l-3.314-4.587  c-0.217-0.3-0.582-0.455-0.952-0.404c-0.368,0.053-0.676,0.305-0.801,0.655l-1.896,5.333l-4.476-3.466  c-0.294-0.227-0.69-0.272-1.028-0.118c-0.338,0.154-0.563,0.483-0.583,0.854l-0.308,5.651l-5.27-2.061  c-0.347-0.134-0.739-0.067-1.02,0.176c-0.28,0.244-0.403,0.623-0.318,0.984l1.292,5.509l-5.637-0.499  c-0.373-0.035-0.728,0.143-0.929,0.455s-0.212,0.71-0.029,1.034l2.789,4.925l-5.55,1.112c-0.365,0.073-0.659,0.343-0.763,0.699  s-0.003,0.742,0.265,1l4.069,3.934l-5.008,2.635C2.206,31.371,2,31.712,2,32.083s0.206,0.712,0.534,0.885l5.008,2.635l-4.069,3.933  c-0.268,0.258-0.369,0.644-0.265,1s0.398,0.626,0.763,0.699l5.55,1.113l-2.789,4.924c-0.183,0.323-0.172,0.722,0.029,1.034  s0.557,0.492,0.929,0.455l5.635-0.499l-1.298,5.509c-0.07,0.298,0,0.61,0.189,0.851C12.406,54.86,12.694,55,13,55h10.616  l6.263,6.121C30.445,61.688,31.199,62,32,62s1.555-0.312,2.113-0.871L40.384,55h10.607c0.314,0,0.61-0.147,0.799-0.398  s0.249-0.576,0.162-0.878l-1.586-5.51l5.939,0.549c0.375,0.033,0.73-0.142,0.932-0.453c0.202-0.312,0.214-0.712,0.03-1.036  l-2.789-4.925l5.55-1.113c0.364-0.073,0.658-0.343,0.763-0.699s0.003-0.742-0.265-1l-4.069-3.934l5.008-2.635  C61.794,32.795,62,32.454,62,32.083S61.794,31.371,61.465,31.198z M32.707,59.707c-0.377,0.379-1.027,0.387-1.422-0.008  l-6.562-6.413c0,0,0-0.001-0.001-0.001l-1.023-1c-0.04-0.039-0.091-0.064-0.137-0.096c-0.133-0.092-0.279-0.162-0.442-0.182  c-0.151-0.018-1.492-0.179-2.121-0.179c-1.654,0-3-1.346-3-3s1.346-3,3-3c1.348,0,2.68,1.064,3.032,2.423  C24.146,48.692,24.544,49,25,49h14c0.456,0,0.854-0.308,0.968-0.749c0.352-1.358,1.684-2.423,3.032-2.423c1.654,0,3,1.346,3,3  s-1.346,3-3,3c-0.628,0-1.97,0.161-2.121,0.179c-0.162,0.02-0.309,0.09-0.442,0.182c-0.046,0.032-0.097,0.057-0.137,0.096l-1.023,1  c0,0,0,0,0,0.001L32.707,59.707z M54.303,34.477c-0.284,0.149-0.479,0.426-0.524,0.743s0.064,0.638,0.295,0.86l3.693,3.569  l-5.036,1.01c-0.314,0.063-0.58,0.273-0.713,0.564c-0.133,0.292-0.119,0.63,0.04,0.909l2.527,4.462l-5.493-0.508  c-0.333-0.032-0.652,0.104-0.862,0.358c-0.21,0.255-0.282,0.597-0.19,0.914L49.663,53h-3.909c0.009-0.006,0.016-0.013,0.025-0.019  c0.021-0.014,0.039-0.031,0.059-0.045c0.219-0.152,0.423-0.323,0.615-0.508c0.042-0.04,0.085-0.079,0.126-0.121  c0.195-0.2,0.373-0.415,0.532-0.645c0.03-0.043,0.055-0.089,0.084-0.133c0.139-0.215,0.262-0.44,0.367-0.676  c0.018-0.04,0.039-0.078,0.056-0.119c0.109-0.262,0.191-0.536,0.254-0.817c0.014-0.063,0.025-0.127,0.037-0.191  C47.963,49.435,48,49.136,48,48.828c0-2.757-2.243-5-5-5c-1.994,0-3.895,1.319-4.708,3.172H25.708  c-0.813-1.853-2.714-3.172-4.708-3.172c-2.757,0-5,2.243-5,5c0,0.308,0.037,0.607,0.091,0.899c0.012,0.064,0.023,0.128,0.037,0.191  c0.063,0.282,0.146,0.556,0.254,0.817c0.017,0.041,0.038,0.078,0.056,0.119c0.105,0.236,0.228,0.461,0.367,0.676  c0.029,0.044,0.054,0.089,0.084,0.133c0.159,0.23,0.338,0.445,0.532,0.645c0.041,0.042,0.083,0.08,0.126,0.121  c0.192,0.184,0.396,0.356,0.615,0.508c0.021,0.014,0.039,0.031,0.059,0.045c0.009,0.006,0.016,0.013,0.025,0.019h-3.983l1.326-5.627  c0.074-0.312-0.007-0.642-0.217-0.884c-0.21-0.243-0.522-0.375-0.844-0.342l-5.117,0.453l2.531-4.469  c0.158-0.279,0.173-0.617,0.04-0.909c-0.133-0.291-0.398-0.501-0.713-0.564l-5.035-1.01l3.692-3.568  c0.231-0.223,0.34-0.543,0.295-0.86s-0.24-0.594-0.524-0.743l-4.549-2.394l4.549-2.394c0.284-0.149,0.479-0.426,0.524-0.743  s-0.064-0.638-0.295-0.86l-3.692-3.569l5.035-1.009c0.314-0.063,0.58-0.273,0.713-0.564c0.133-0.292,0.119-0.63-0.04-0.909  l-2.531-4.47l5.118,0.453c0.322,0.03,0.634-0.099,0.844-0.341c0.21-0.242,0.292-0.571,0.218-0.884l-1.174-5.003l4.785,1.871  c0.299,0.116,0.636,0.083,0.905-0.091c0.27-0.174,0.44-0.466,0.458-0.786l0.279-5.128l4.06,3.144  c0.253,0.195,0.586,0.255,0.894,0.169c0.308-0.091,0.554-0.323,0.661-0.625l1.721-4.84l3.01,4.165c0.376,0.52,1.245,0.52,1.621,0  l3.01-4.165l1.721,4.84c0.107,0.302,0.354,0.534,0.661,0.625c0.307,0.087,0.639,0.026,0.894-0.169l4.061-3.144l0.279,5.129  c0.018,0.32,0.188,0.612,0.458,0.786c0.27,0.175,0.606,0.208,0.905,0.091l4.786-1.871l-1.174,5.003  c-0.073,0.312,0.008,0.642,0.218,0.884c0.209,0.242,0.52,0.374,0.844,0.341l5.117-0.453l-2.531,4.47  c-0.158,0.279-0.173,0.617-0.04,0.909c0.134,0.291,0.399,0.501,0.713,0.564l5.034,1.009l-3.692,3.569  c-0.231,0.223-0.34,0.543-0.295,0.86s0.24,0.594,0.524,0.743l4.549,2.393L54.303,34.477z"/><rect x="27" y="51" width="2" height="2"/><rect x="35" y="51" width="2" height="2"/><path d="M32.293,17.293l-2,2l1.414,1.414L33,19.414l1.293,1.293l1.414-1.414l-2-2C33.316,16.902,32.684,16.902,32.293,17.293z"/><path d="M17.293,26.293l-2,2l1.414,1.414L18,28.414l1.293,1.293l1.414-1.414l-2-2C18.316,25.902,17.684,25.902,17.293,26.293z"/><path d="M44.293,33.293l-2,2l1.414,1.414L45,35.414l1.293,1.293l1.414-1.414l-2-2C45.316,32.902,44.684,32.902,44.293,33.293z"/></svg>