<svg xmlns="http://www.w3.org/2000/svg" xmlns:xlink="http://www.w3.org/1999/xlink" version="1.1" x="0px" y="0px" viewBox="0 0 64 80" style="enable-background:new 0 0 64 64;" xml:space="preserve"><g><path d="M25.5,23.5c-1.378,0-2.5,1.122-2.5,2.5s1.122,2.5,2.5,2.5S28,27.378,28,26S26.878,23.5,25.5,23.5z M25.5,26.5   c-0.276,0-0.5-0.224-0.5-0.5s0.224-0.5,0.5-0.5S26,25.724,26,26S25.776,26.5,25.5,26.5z"/><path d="M38.5,23.5c-1.378,0-2.5,1.122-2.5,2.5s1.122,2.5,2.5,2.5S41,27.378,41,26S39.878,23.5,38.5,23.5z M38.5,26.5   c-0.276,0-0.5-0.224-0.5-0.5s0.224-0.5,0.5-0.5S39,25.724,39,26S38.776,26.5,38.5,26.5z"/><path d="M9.937,52.451L6.64,63H57.36l-3.297-10.549c-0.901-2.884-2.835-5.323-5.395-6.873l2.26-1.883l-1.557-0.623   c-0.126-0.051-0.243-0.107-0.366-0.161C49.33,42.965,49.661,43,50,43c3.309,0,6-2.691,6-6c0-0.891-0.2-1.734-0.55-2.495   c0.179-0.385,0.314-0.78,0.403-1.181c0.098-0.443,0.132-0.885,0.132-1.324H56c0-0.286-0.027-0.565-0.066-0.841   c-0.007-0.046-0.013-0.092-0.021-0.138c-0.057-0.346-0.143-0.682-0.257-1.005c0-0.001-0.001-0.002-0.001-0.004   c-0.126-0.357-0.284-0.699-0.472-1.022C55.719,28.076,56,27.055,56,26c0-2.968-2.166-5.439-5-5.917V20C51,9.523,42.477,1,32,1   S13,9.523,13,20v0.083C10.166,20.561,8,23.032,8,26c0,1.055,0.281,2.076,0.817,2.991c-0.188,0.323-0.346,0.665-0.472,1.022   c0,0.001-0.001,0.002-0.001,0.002c-0.114,0.324-0.2,0.659-0.257,1.006c-0.008,0.046-0.014,0.092-0.021,0.138   C8.027,31.435,8,31.714,8,32h0.015c0,0.439,0.034,0.88,0.132,1.324c0.089,0.402,0.224,0.797,0.403,1.181C8.2,35.266,8,36.109,8,37   c0,3.309,2.691,6,6,6c0.339,0,0.67-0.035,0.994-0.089c-0.123,0.053-0.239,0.11-0.366,0.161l-1.557,0.623l2.264,1.887   C12.774,47.129,10.84,49.56,9.937,52.451z M16.854,44.244c2.033-1.072,3.486-2.419,4.46-3.547c0.399,1.286,1.311,3.149,3.378,5.059   C23.67,46.49,23,47.681,23,49c0,1.516,0.858,2.822,2.104,3.5H25c0,2.481,1.917,4.5,4.273,4.5c0.608,0,1.19-0.149,1.727-0.401v3.532   l-12.269-8.179l3.881-2.911L16.854,44.244z M46,30v-4.816c1.161,0.414,2,1.514,2,2.816c0,1.317-0.859,2.427-2.042,2.829   C45.974,30.553,46,30.28,46,30z M44,30c0,6.617-5.383,12-12,12s-12-5.383-12-12v-9.413c0-1.339,0.6-2.586,1.645-3.423   c0.795-0.636,1.766-0.959,2.739-0.959c0.804,0,1.61,0.22,2.322,0.665l5.331,3.332l3.588-2.563c1.959-1.399,4.619-1.3,6.469,0.242   C43.306,18.89,44,20.373,44,21.949V30z M41.388,49.042l3.881,2.911L33,60.132v-3.532C33.537,56.851,34.119,57,34.727,57   C37.083,57,39,54.981,39,52.5h-0.104C40.142,51.822,41,50.516,41,49c0-1.319-0.67-2.51-1.693-3.244   c2.068-1.91,2.979-3.773,3.378-5.059c0.974,1.127,2.428,2.474,4.46,3.547L41.388,49.042z M26.357,47.107   c1.375,0.987,3.098,1.953,5.271,2.822L32,50.077l0.372-0.148c2.173-0.869,3.896-1.835,5.271-2.822C38.436,47.378,39,48.138,39,49   c0,1.103-0.897,2-2,2c-0.555,0-1.074-0.229-1.46-0.647l-1.108-1.194l-0.564,1.529C33.579,51.473,32.828,52,32,52   s-1.579-0.527-1.868-1.312l-0.564-1.529l-1.108,1.194C28.074,50.771,27.555,51,27,51c-1.103,0-2-0.897-2-2   C25,48.138,25.564,47.378,26.357,47.107z M32,47.92c-5.234-2.175-7.414-4.843-8.33-6.694C26.001,42.96,28.878,44,32,44   c3.119,0,5.992-1.037,8.322-2.768C39.4,43.084,37.217,45.752,32,47.92z M32.85,53.903l-0.001-0.001   c0.884-0.196,1.679-0.686,2.248-1.387c0.564,0.309,1.197,0.474,1.857,0.482C36.744,54.138,35.826,55,34.727,55   C33.978,55,33.275,54.59,32.85,53.903z M28.903,52.516c0.569,0.7,1.363,1.191,2.248,1.387l-0.001,0.001   C30.725,54.59,30.022,55,29.273,55c-1.099,0-2.017-0.862-2.227-2.003C27.706,52.99,28.339,52.825,28.903,52.516z M44.132,55.114   L44.867,61h-9.565L44.132,55.114z M28.697,61h-9.565l0.736-5.886L28.697,61z M52.154,53.047L54.64,61h-7.757l-0.891-7.124   l-0.004,0.001l2.743-1.829l-4.119-3.089l2.405-2.004C49.465,48.217,51.329,50.406,52.154,53.047z M43.307,38.222   c0.25-0.343,0.483-0.696,0.702-1.061c0.029,1.077,0.342,2.082,0.868,2.946C44.142,39.375,43.628,38.697,43.307,38.222z M10,37   c0-0.229,0.03-0.45,0.068-0.668c0.017-0.092,0.033-0.185,0.057-0.276c0.02-0.083,0.05-0.162,0.075-0.242   c0.089-0.27,0.2-0.536,0.35-0.796l0.172-0.298C11.445,33.683,12.643,33,14,33v-2c-1.511,0-2.89,0.566-3.946,1.491   c-0.124-1.028,0.126-2.041,0.766-2.888l0.026-0.035C11.579,28.621,12.713,28,14,28v-2c-1.422,0-2.729,0.5-3.758,1.33   C10.086,26.903,10,26.456,10,26c0-2.206,1.794-4,4-4h1v-2c0-9.374,7.626-17,17-17s17,7.626,17,17v2h1c2.206,0,4,1.794,4,4   c0,0.456-0.086,0.903-0.242,1.33C52.729,26.5,51.422,26,50,26v2c1.287,0,2.421,0.621,3.154,1.568l0.026,0.035   c0.64,0.847,0.89,1.86,0.766,2.888C52.89,31.566,51.511,31,50,31v2c1.357,0,2.555,0.683,3.278,1.719l0.172,0.298   c0.15,0.26,0.261,0.527,0.35,0.796c0.025,0.081,0.055,0.16,0.075,0.242c0.024,0.092,0.04,0.184,0.057,0.276   C53.97,36.55,54,36.771,54,37c0,2.206-1.794,4-4,4s-4-1.794-4-4c0-0.684,0.185-1.351,0.551-1.984l0.29-0.503l-0.293-0.501   c-0.209-0.358-0.353-0.745-0.443-1.144C48.33,32.362,50,30.376,50,28c0-2.414-1.721-4.434-4-4.899v-1.152   c0-2.172-0.957-4.215-2.625-5.605c-2.547-2.124-6.212-2.261-8.911-0.333l-2.5,1.786l-4.197-2.623   c-2.295-1.435-5.258-1.262-7.37,0.429C18.873,16.821,18,18.638,18,20.587v2.514c-2.279,0.465-4,2.484-4,4.899   c0,2.376,1.67,4.362,3.895,4.868c-0.09,0.399-0.234,0.786-0.443,1.144l-0.293,0.501l0.29,0.503C17.815,35.649,18,36.316,18,37   c0,2.206-1.794,4-4,4S10,39.206,10,37z M18.042,30.829C16.859,30.427,16,29.317,16,28c0-1.302,0.839-2.402,2-2.816V30   C18,30.28,18.026,30.553,18.042,30.829z M19.992,37.161c0.219,0.366,0.453,0.721,0.704,1.064c-0.322,0.479-0.841,1.164-1.585,1.902   C19.645,39.258,19.963,38.246,19.992,37.161z M16.983,46.954l2.405,2.004l-4.119,3.089l2.743,1.829l-0.004-0.001L17.117,61H9.36   l2.485-7.953C12.673,50.4,14.534,48.217,16.983,46.954z"/><rect x="29" y="34" width="6" height="2"/><path d="M32,7V5c-3.027,0-5.943,0.897-8.435,2.595l1.126,1.653C26.849,7.777,29.377,7,32,7z"/><path d="M23.313,10.329L21.977,8.84c-0.521,0.468-1.015,0.979-1.467,1.517l1.531,1.286C22.434,11.177,22.861,10.734,23.313,10.329z   "/></g></svg>