<svg xmlns="http://www.w3.org/2000/svg" xmlns:xlink="http://www.w3.org/1999/xlink" version="1.1" x="0px" y="0px" viewBox="0 0 64 80" style="enable-background:new 0 0 64 64;" xml:space="preserve"><g><path d="M29,26h6c3.309,0,6-2.691,6-6s-2.691-6-6-6h-0.618L34,14.764C33.619,15.526,32.853,16,32,16s-1.619-0.474-2-1.236   L29.618,14H29c-3.309,0-6,2.691-6,6S25.691,26,29,26z M28.427,16.041C29.201,17.26,30.533,18,32,18s2.799-0.74,3.573-1.959   C37.508,16.319,39,17.989,39,20c0,2.206-1.794,4-4,4h-6c-2.206,0-4-1.794-4-4C25,17.989,26.492,16.319,28.427,16.041z"/><path d="M44.098,24.094c0.49-1.058,0.802-2.212,0.881-3.431c0.181-2.799-0.771-5.463-2.681-7.501C40.413,11.152,37.753,10,35,10   h-5.692c-5.429,0-9.948,4.102-10.287,9.337c-0.108,1.675,0.197,3.299,0.863,4.773C14.935,27.888,12,33.76,12,40   c0,7.165,3.821,13.734,10,17.309V61h7.184c0.414,1.161,1.514,2,2.816,2c1.654,0,3-1.346,3-3v-0.249C44.75,58.289,52,49.965,52,40   C52,33.749,49.059,27.872,44.098,24.094z M21.018,19.466C21.289,15.279,24.93,12,29.308,12H35c2.235,0,4.309,0.898,5.838,2.53   c1.528,1.63,2.29,3.763,2.145,6.004C42.711,24.721,39.07,28,34.692,28H33v3h-2v-3h-2c-2.235,0-4.309-0.898-5.838-2.53   C21.634,23.84,20.873,21.707,21.018,19.466z M31,33h2v2h-2V33z M14,40c0-5.531,2.56-10.746,6.896-14.152   c0.248,0.342,0.512,0.676,0.806,0.99C23.587,28.848,26.247,30,29,30v14h-7v6h3v5h-2.934C17.057,51.683,14,46.078,14,40z M32,61   c-0.551,0-1-0.448-1-1v-6h-2v5h-5v-2h3v-9h-3v-2h5v5h2V37h2v23C33,60.552,32.551,61,32,61z M35,57.731V29.995   c3.311-0.095,6.254-1.714,8.076-4.171C47.429,29.23,50,34.454,50,40C50,48.867,43.623,56.291,35,57.731z"/><rect x="17.989" y="1.381" transform="matrix(0.9238 -0.3828 0.3828 0.9238 0.535 7.4505)" width="2" height="2"/><rect x="19.52" y="5.076" transform="matrix(0.9238 -0.3828 0.3828 0.9238 -0.763 8.318)" width="2" height="2"/><rect x="2.381" y="17.989" transform="matrix(0.3823 -0.924 0.924 0.3823 -15.4581 14.853)" width="2" height="2"/><rect x="6.076" y="19.52" transform="matrix(0.3828 -0.9238 0.9238 0.3828 -14.5892 19.2016)" width="2" height="2"/><rect x="2.381" y="44.011" transform="matrix(0.924 -0.3824 0.3824 0.924 -16.9551 4.7136)" width="2" height="2"/><rect x="6.076" y="42.48" transform="matrix(0.9238 -0.3828 0.3828 0.9238 -16.1058 6.0209)" width="2" height="2"/><rect x="59.62" y="44.011" transform="matrix(0.3823 -0.924 0.924 0.3823 -4.1479 83.8175)" width="2" height="2"/><rect x="55.924" y="42.48" transform="matrix(0.3828 -0.9238 0.9238 0.3828 -5.0357 79.4234)" width="2" height="2"/><rect x="59.619" y="17.989" transform="matrix(0.924 -0.3823 0.3823 0.924 -2.6546 24.6178)" width="2" height="2"/><rect x="55.924" y="19.52" transform="matrix(0.9238 -0.3828 0.3828 0.9238 -3.519 23.3542)" width="2" height="2"/><rect x="44.011" y="1.381" transform="matrix(0.3828 -0.9238 0.9238 0.3828 25.5809 43.052)" width="2" height="2"/><rect x="42.48" y="5.076" transform="matrix(0.3828 -0.9238 0.9238 0.3828 21.2223 43.9185)" width="2" height="2"/><rect x="8.373" y="3.373" transform="matrix(0.7071 -0.7071 0.7071 0.7071 -3.8822 9.3726)" width="2" height="12"/><rect x="1" y="31" width="10" height="2"/><rect x="53" y="31" width="10" height="2"/><rect x="48.627" y="8.373" transform="matrix(0.7071 -0.7071 0.7071 0.7071 9.3726 41.3726)" width="12" height="2"/><rect x="31" y="1" width="2" height="2"/><rect x="31" y="5" width="2" height="2"/></g></svg>