<svg xmlns="http://www.w3.org/2000/svg" xmlns:xlink="http://www.w3.org/1999/xlink" version="1.1" x="0px" y="0px" viewBox="0 0 64 80" style="enable-background:new 0 0 64 64;" xml:space="preserve"><g><path d="M32,10c-6.617,0-12,5.383-12,12s5.383,12,12,12s12-5.383,12-12S38.617,10,32,10z M32,32c-5.514,0-10-4.486-10-10   s4.486-10,10-10s10,4.486,10,10S37.514,32,32,32z"/><rect x="31" y="5" width="2" height="3"/><rect x="31" y="1" width="2" height="2"/><rect x="23.25" y="7.076" transform="matrix(0.8661 -0.4999 0.4999 0.8661 -1.0399 13.2717)" width="2" height="3"/><rect x="21" y="3.68" transform="matrix(0.8661 -0.4999 0.4999 0.8661 0.607 11.625)" width="2" height="2"/><rect x="17.576" y="12.75" transform="matrix(0.5 -0.866 0.866 0.5 -3.0526 23.2129)" width="2" height="3"/><rect x="13.679" y="11" transform="matrix(0.5 -0.866 0.866 0.5 -3.0528 18.7123)" width="2" height="2"/><rect x="15" y="21" width="3" height="2"/><rect x="11" y="21" width="2" height="2"/><rect x="17.076" y="28.75" transform="matrix(0.8661 -0.4999 0.4999 0.8661 -12.3847 13.2711)" width="3" height="2"/><rect x="13.679" y="31" transform="matrix(0.866 -0.5 0.5 0.866 -14.0339 11.6278)" width="2" height="2"/><rect x="22.75" y="34.423" transform="matrix(0.4999 -0.8661 0.8661 0.4999 -18.5522 38.7168)" width="3" height="2"/><rect x="21" y="38.32" transform="matrix(0.4999 -0.8661 0.8661 0.4999 -23.0524 38.7169)" width="2" height="2"/><rect x="31" y="36" width="2" height="3"/><rect x="31" y="41" width="2" height="2"/><rect x="38.75" y="33.923" transform="matrix(0.8661 -0.4999 0.4999 0.8661 -12.3852 24.616)" width="2" height="3"/><rect x="41" y="38.32" transform="matrix(0.8661 -0.4999 0.4999 0.8661 -14.032 26.2627)" width="2" height="2"/><rect x="44.423" y="28.25" transform="matrix(0.5 -0.866 0.866 0.5 -3.0522 54.2135)" width="2" height="3"/><rect x="48.32" y="31" transform="matrix(0.5 -0.866 0.866 0.5 -3.0533 58.7113)" width="2" height="2"/><rect x="46" y="21" width="3" height="2"/><rect x="51" y="21" width="2" height="2"/><rect x="43.924" y="13.25" transform="matrix(0.8661 -0.4999 0.4999 0.8661 -1.0404 24.6166)" width="3" height="2"/><rect x="48.321" y="11" transform="matrix(0.8661 -0.4999 0.4999 0.8661 0.6064 26.2635)" width="2" height="2"/><rect x="38.25" y="7.576" transform="matrix(0.4999 -0.8661 0.8661 0.4999 12.4502 38.7154)" width="3" height="2"/><rect x="41" y="3.68" transform="matrix(0.4999 -0.8661 0.8661 0.4999 16.9504 38.7152)" width="2" height="2"/><path d="M55,59v-7h8v-2H49v2h-6.697l-2.748-1.832l-7.188-2.724C31.58,47.149,30.755,47,29.916,47C28.308,47,27,48.308,27,49.915   c0,1.02,0.542,1.978,1.416,2.5l2.508,1.505L30.764,54h-3.087l-1.301-3.253C25.951,49.686,24.938,49,23.794,49   c-0.893,0-1.737,0.434-2.258,1.158c-0.521,0.726-0.662,1.664-0.377,2.51l0.119,0.353l-0.806-0.403   C19.663,52.214,18.758,52,17.854,52C16.28,52,15,53.28,15,54.854c0,1.087,0.604,2.065,1.578,2.553l4.975,2.487l10.251,2.086   L45.099,62L49,61.22V63h14v-2H51v-9h2v7H55z M23.16,51.325c0.336-0.469,1.145-0.369,1.359,0.165L25.523,54h-1.804l-0.664-1.971   C22.974,51.788,23.012,51.532,23.16,51.325z M44.901,60H32.099l-9.771-1.954l-4.855-2.428C17.181,55.473,17,55.18,17,54.854   C17,54.384,17.383,54,17.854,54c0.595,0,1.191,0.141,1.724,0.407L22.764,56h8.472l3.84-1.92l-5.632-3.38   C29.17,50.536,29,50.235,29,49.915C29,49.41,29.411,49,29.916,49c0.599,0,1.188,0.106,1.749,0.317l6.876,2.578L41.697,54H49v5.18   L44.901,60z"/></g></svg>