<svg xmlns="http://www.w3.org/2000/svg" data-name="Layer 1" viewBox="0 0 128 160" x="0px" y="0px"><title>95 Miscellaneous 20</title><path d="M29.24218,101.9424a2,2,0,0,0,1.3906-3.4375q-.34575-.33405-.6855-.6758a1.99981,1.99981,0,1,0-2.834,2.8223q.36615.36765.7383.7285A1.99238,1.99238,0,0,0,29.24218,101.9424Z"/><path d="M44.80758,19.8169a1.98929,1.98929,0,0,0,.7666-.1538q.44235-.1839.8887-.3594a2.00016,2.00016,0,0,0-1.4668-3.7217q-.48045.189-.957.3877a2.00029,2.00029,0,0,0,.7685,3.8472Z"/><path d="M63.56348,114.0352a2.00018,2.00018,0,0,0-1.9043-2.0918c-.3203-.0147-.6397-.0332-.9561-.0547a1.99971,1.99971,0,0,0-.2715,3.9902q.51855.0351,1.0401.0606c.0322.0009.0635.0019.0957.0019A2.00038,2.00038,0,0,0,63.56348,114.0352Z"/><path d="M37.34768,103.9268q-.4014-.2682-.7959-.544a2.0001,2.0001,0,0,0-2.2852,3.2832q.4248.296.85642.585a2,2,0,1,0,2.22468-3.3242Z"/><path d="M53.11618,110.7617c-.3105-.0722-.6201-.1465-.9287-.2256a2.00024,2.00024,0,0,0-.9863,3.877c.3359.0849.67482.167,1.0146.2451a1.99959,1.99959,0,1,0,.9004-3.8965Z"/><path d="M13.76948,77.4961a1.99967,1.99967,0,0,0,1.9307,1.4844,1.97534,1.97534,0,0,0,.5176-.0694,1.99848,1.99848,0,0,0,1.415-2.4482q-.123-.4644-.2392-.9316a1.99978,1.99978,0,1,0-3.8829.9589Q13.63533,76.99555,13.76948,77.4961Z"/><path d="M62.293,16.0288c.02238,0,.04588-.0005.06828-.001q.4776-.016.9571-.0224a2.00009,2.00009,0,0,0-.02538-4h-.02742q-.52.00735-1.039.0244a2.00007,2.00007,0,0,0,.06642,3.999Z"/><path d="M53.375,17.1313a1.98149,1.98149,0,0,0,.42478-.0459q.46725-.10095.9395-.1933a1.99989,1.99989,0,0,0-.7657-3.9258c-.3418.0664-.68058.1367-1.0195.21a2.0001,2.0001,0,0,0,.42092,3.955Z"/><path d="M44.127,111.8955a2.00054,2.00054,0,0,0,.79588-3.8359q-.4395-.1905-.875-.3907a2.00044,2.00044,0,1,0-1.67188,3.6348q.47607.21825.957.4258A1.99031,1.99031,0,0,0,44.127,111.8955Z"/><path d="M12.17478,68.292A1.99941,1.99941,0,0,0,14.166,70.127c.05468,0,.11038-.002.167-.0069a1.99958,1.99958,0,0,0,1.82808-2.1582q-.03945-.4746-.0683-.9551a1.99989,1.99989,0,0,0-3.9922.2461C12.12208,67.6006,12.14648,67.9463,12.17478,68.292Z"/><path d="M14.04,61.1328c.06638.0064.13088.0093.19538.0093a1.99983,1.99983,0,0,0,1.9882-1.8071q.04695-.4806.1016-.958a2,2,0,1,0-3.9736-.4581q-.05865.5127-.1084,1.0303A1.99928,1.99928,0,0,0,14.04,61.1328Z"/><path d="M18.09178,49.9399a2,2,0,1,0-3.8242-1.1728c-.10158.332-.2012.666-.2959,1.0005a2.00044,2.00044,0,1,0,3.8496,1.0898Q17.95163,50.39675,18.09178,49.9399Z"/><path d="M17.80368,40.105q-.24165.4644-.4726.935a2.00027,2.00027,0,1,0,3.5898,1.7657q.2109-.4293.4316-.854a2.00027,2.00027,0,0,0-3.5488-1.8467Z"/><path d="M29.18158,25.377q-.3837.3471-.7627.7021a2.00016,2.00016,0,0,0,2.7364,2.918q.35145-.3297.708-.6514a2.00029,2.00029,0,0,0-2.6817-2.9687Z"/><path d="M20.60838,84.5498c-.1357-.2861-.2695-.5742-.39838-.8633a2.00027,2.00027,0,0,0-3.65042,1.6367q.21375.4746.4365.9454a2.00019,2.00019,0,1,0,3.6123-1.7188Z"/><path d="M24.43948,91.1924a1.99965,1.99965,0,0,0-3.293,2.2695q.29295.4263.5967.8486a1.99979,1.99979,0,1,0,3.248-2.3339Q24.71143,91.5869,24.43948,91.1924Z"/><path d="M36.86228,23.9995a1.98657,1.98657,0,0,0,1.084-.3208q.40425-.2607.8125-.5146a2,2,0,1,0-2.1113-3.3975c-.292.1816-.584.3662-.8731.5537a1.99968,1.99968,0,0,0,1.0879,3.6792Z"/><path d="M22.62108,35.8579a2.00026,2.00026,0,0,0,2.7978-.4189q.28425-.38385.5772-.7627A2.00035,2.00035,0,0,0,22.832,32.228q-.31938.4131-.62992.833A2.00053,2.00053,0,0,0,22.62108,35.8579Z"/><path d="M96.64938,101.9219a2.00153,2.00153,0,0,0-2.8105-.3223q-.375.2988-.7578.5899a2.00022,2.00022,0,0,0,2.4277,3.1796q.4116-.31485.8183-.6367A2.00153,2.00153,0,0,0,96.64938,101.9219Z"/><path d="M100.08588,95.6514q-.31632.3603-.6396.7138a2.0005,2.0005,0,0,0,2.9551,2.6973c.2334-.2568.4658-.5146.6943-.7764a2,2,0,0,0-3.0098-2.6347Z"/><path d="M107.92188,87.9951a2.004,2.004,0,0,0-2.7451.6846q-.24765.4131-.5039.8203a2.00042,2.00042,0,0,0,3.3886,2.127q.2769-.4425.5449-.8868A2.00178,2.00178,0,0,0,107.92188,87.9951Z"/><path d="M100.78128,30.0723a1.99931,1.99931,0,0,0-.2256,2.8193q.3105.3648.6152.7368a2,2,0,1,0,3.0957-2.5332q-.328-.40215-.666-.7973A1.99893,1.99893,0,0,0,100.78128,30.0723Z"/><path d="M115.29688,55.4312a1.99983,1.99983,0,1,0-3.9453.6572q.07755.4716.14642.9458a2.00015,2.00015,0,0,0,3.959-.5733C115.40718,56.1162,115.35448,55.7729,115.29688,55.4312Z"/><path d="M112.94138,46.3906a1.99992,1.99992,0,1,0-3.7656,1.3487q.1626.45555.3183.914a2.00013,2.00013,0,0,0,3.7872-1.2881C113.16988,47.0391,113.05758,46.7139,112.94138,46.3906Z"/><path d="M70.97658,16.5034q.47463.06885.9472.1475a2.07023,2.07023,0,0,0,.3301.0273,2.00041,2.00041,0,0,0,.3262-3.9736q-.5142-.085-1.0293-.1602a2.00021,2.00021,0,0,0-.5742,3.959Z"/><path d="M114.97458,74.3242q.10263-.5082.1943-1.0176a1.99994,1.99994,0,1,0-3.9355-.7148q-.0864.4746-.1807.9473a1.99986,1.99986,0,0,0,1.5684,2.3535,2.02818,2.02818,0,0,0,.3945.039A2.00008,2.00008,0,0,0,114.97458,74.3242Z"/><path d="M106.00978,40.7622a1.99976,1.99976,0,1,0,3.5-1.9355q-.252-.4563-.5137-.9053a1.99961,1.99961,0,1,0-3.457,2.0107Q105.77773,40.34445,106.00978,40.7622Z"/><path d="M115.99018,65.041q.01035-.5193.00982-1.0405a2,2,0,1,0-4,0q0,.48045-.00982.9585a2.00114,2.00114,0,0,0,1.959,2.041h.042A2.00027,2.00027,0,0,0,115.99018,65.041Z"/><path d="M111.51368,79.7451a1.99729,1.99729,0,0,0-2.5762,1.166q-.17145.4512-.3496.8985a2.00018,2.00018,0,1,0,3.7148,1.4843c.1289-.3232.2549-.6464.377-.9726A1.99889,1.99889,0,0,0,111.51368,79.7451Z"/><path d="M86.63378,106.3389q-.42045.2256-.8447.4414a2.00027,2.00027,0,0,0,1.8125,3.5664c.3086-.1572.6172-.3184.9228-.4824a2.00018,2.00018,0,0,0-1.8906-3.5254Z"/><path d="M95.13378,27.4658a1.99992,1.99992,0,0,0,2.5937-3.0449q-.3954-.3369-.7959-.6655a2.0001,2.0001,0,1,0-2.5371,3.0927Q94.76663,27.15365,95.13378,27.4658Z"/><path d="M87.25588,21.9995q.4218.23445.8388.4766a2.00013,2.00013,0,0,0,2.0059-3.461q-.4497-.2607-.9033-.5127a1.99992,1.99992,0,1,0-1.9414,3.4971Z"/><path d="M79.36328,18.5112c.30472.1026.6064.208.9082.3169A2.00013,2.00013,0,1,0,81.627,15.0645q-.49083-.17655-.98642-.3443a2.0002,2.0002,0,1,0-1.2773,3.791Z"/><path d="M70.28518,111.5928c-.3184.042-.6377.0801-.9571.1162a1.99988,1.99988,0,0,0,.2198,3.9873,1.938,1.938,0,0,0,.2255-.0127c.3428-.0381.68562-.0801,1.0274-.124a2.00008,2.00008,0,0,0-.5156-3.9668Z"/><path d="M81.21578,111.0029a2.00084,2.00084,0,0,0-2.5146-1.2959q-.45855.14805-.9199.2852a2.00019,2.00019,0,1,0,1.1484,3.832q.4965-.1494.9902-.3066A2.00155,2.00155,0,0,0,81.21578,111.0029Z"/><path d="M62,92.8916l-.03522-59.5918c0-5.3227-5.6367-9.2998-10.6757-9.2998A9.26859,9.26859,0,0,0,43.998,27.499a10.85739,10.85739,0,0,0-9.67772,7.0088,8.97689,8.97689,0,0,0-7.6318,11.9512,11.16385,11.16385,0,0,0-2.6221,16.79,10.06975,10.06975,0,0,0-.5879,13.8516,9.50179,9.50179,0,0,0-.4463,2.8906,9.756,9.756,0,0,0,7.3623,9.4102,10.052,10.052,0,0,0,8.8233,8.1445A11.09713,11.09713,0,0,0,49.34858,104C55.32028,104,62,99.25,62,92.8916ZM49.34858,100a7.10748,7.10748,0,0,1-6.2177-3.625A9.30318,9.30318,0,0,0,44.583,80.4346a2.00015,2.00015,0,1,0-2.35942,3.2304,5.30007,5.30007,0,0,1,2.2129,4.3125,5.44317,5.44317,0,0,1-5.499,5.3731,1.85064,1.85064,0,0,0-.2764.0283,6.0078,6.0078,0,0,1-4.4277-5.7158A2.00024,2.00024,0,0,0,32.374,85.6826a5.74342,5.74342,0,0,1-5.34182-5.6914,5.59821,5.59821,0,0,1,.584-2.4883,1.99947,1.99947,0,0,0-.4863-2.3945,6.06046,6.06046,0,0,1-.0244-9.2051,1.98587,1.98587,0,0,0,.584.0967,5.41585,5.41585,0,0,1,2.6816.7188l2.1094,2.1376a5.70052,5.70052,0,0,1,.706,2.7432,2,2,0,1,0,4,0,9.7127,9.7127,0,0,0-1.2793-4.8213A9.52974,9.52974,0,0,0,28.624,62.063a1.99339,1.99339,0,0,0-.28122-.2661,7.146,7.146,0,0,1-2.9746-5.8164,7.23751,7.23751,0,0,1,3.1211-5.8975,7.598,7.598,0,0,1,1.8349-.2329c3.6465,0,6.6133,2.5122,6.6133,5.5996a2,2,0,1,0,4,0c0-5.1426-4.4971-9.3413-10.1191-9.5771a4.9241,4.9241,0,0,1-.65038-2.4273,5.00221,5.00221,0,0,1,5.01458-4.978c.1631,0,.3203.0137.4785.0264a1.99175,1.99175,0,0,0,2.1202-1.5923,6.79548,6.79548,0,0,1,5.1523-5.2178,1.99931,1.99931,0,0,0,.8701.123,5.987,5.987,0,0,1,4.0918,1.3663,1.99983,1.99983,0,0,0,2.707-2.9444,8.60155,8.60155,0,0,0-2.124-1.4243A5.3147,5.3147,0,0,1,51.28908,28c3.0048,0,6.6757,2.4458,6.6757,5.3008L58,92.8926C58,96.8301,53.26758,100,49.34858,100Z"/><path d="M78.65138,104a11.09713,11.09713,0,0,0,10.1308-6.4541,10.052,10.052,0,0,0,8.8233-8.1445,9.756,9.756,0,0,0,7.3623-9.4102,9.50179,9.50179,0,0,0-.4463-2.8906,10.06965,10.06965,0,0,0-.5879-13.8516,11.16385,11.16385,0,0,0-2.6221-16.79,8.97679,8.97679,0,0,0-7.6318-11.9512A10.85738,10.85738,0,0,0,84.002,27.499,9.26871,9.26871,0,0,0,76.71088,24c-5.039,0-10.6757,3.9771-10.6757,9.2988L66,92.8926C66,99.25,72.67968,104,78.65138,104Zm-8.6162-70.7002c0-2.854,3.6709-5.2998,6.6757-5.2998a5.31859,5.31859,0,0,1,2.8116.8047,8.5854,8.5854,0,0,0-2.125,1.4238,1.99983,1.99983,0,1,0,2.707,2.9444A6.03925,6.03925,0,0,1,84.209,31.8076a1.95322,1.95322,0,0,0,.86908-.1211,6.7969,6.7969,0,0,1,5.1407,5.2149,2.00264,2.00264,0,0,0,2.1201,1.5923c.1582-.0132.3154-.0264.4785-.0264a5.00222,5.00222,0,0,1,5.01462,4.978,4.92414,4.92414,0,0,1-.65042,2.4273c-5.622.2358-10.1191,4.4345-10.1191,9.5771a2,2,0,1,0,4,0c0-3.0874,2.9668-5.5996,6.6133-5.5996a7.598,7.598,0,0,1,1.8349.2329,7.23751,7.23751,0,0,1,3.1211,5.8975,7.146,7.146,0,0,1-2.9746,5.8164,1.99111,1.99111,0,0,0-.28118.2661,9.52934,9.52934,0,0,0-7.28522,4.7192,9.70639,9.70639,0,0,0-1.2773,4.8174,2,2,0,1,0,4,0,5.70073,5.70073,0,0,1,.706-2.7432l2.1084-2.1376A5.4224,5.4224,0,0,1,100.31048,66a1.98567,1.98567,0,0,0,.584-.0967,6.06039,6.06039,0,0,1-.0244,9.2051,1.99947,1.99947,0,0,0-.4863,2.3945,5.59821,5.59821,0,0,1,.584,2.4883A5.74341,5.74341,0,0,1,95.626,85.6826a2.00027,2.00027,0,0,0-1.85942,1.9805,6.0078,6.0078,0,0,1-4.4277,5.7158,1.85064,1.85064,0,0,0-.2764-.0283,5.44317,5.44317,0,0,1-5.499-5.3731,5.30007,5.30007,0,0,1,2.2129-4.3125A2.00014,2.00014,0,0,0,83.417,80.4346,9.30316,9.30316,0,0,0,84.86908,96.375,7.10744,7.10744,0,0,1,78.65138,100C74.73238,100,70,96.8301,70,92.8936Z"/><path d="M84.40138,76.4658a2.00023,2.00023,0,0,0,2.6123,1.083,1.911,1.911,0,0,1,.957-.1328l1.8545,1.8457a2.56058,2.56058,0,0,1-.0645,1.2451,2.00007,2.00007,0,1,0,3.8204,1.1856A6.44354,6.44354,0,0,0,91.001,74.3682a5.94664,5.94664,0,0,0-5.51662-.5147A1.9989,1.9989,0,0,0,84.40138,76.4658Z"/><path d="M64,8.0654a2.0001,2.0001,0,0,0,2-2V2a2,2,0,0,0-4,0V6.0654A2.00008,2.00008,0,0,0,64,8.0654Z"/><path d="M44.19428,9.5186A2.00013,2.00013,0,1,0,47.999,8.2832L46.74318,4.4165a2.00012,2.00012,0,1,0-3.8047,1.2354Z"/><path d="M28.32808,18.3052a2,2,0,0,0,3.2364-2.3506l-2.3887-3.2891a1.99993,1.99993,0,0,0-3.2363,2.3506Z"/><path d="M12.665,29.1748l3.28808,2.3901a1.99982,1.99982,0,1,0,2.3516-3.2353l-3.2881-2.3901A1.99982,1.99982,0,1,0,12.665,29.1748Z"/><path d="M9.51758,44.1958l-3.8653-1.2563A1.99978,1.99978,0,1,0,4.416,46.7432l3.86528,1.2563a1.99979,1.99979,0,1,0,1.2363-3.8037Z"/><path d="M8.06348,64.0015a2.00026,2.00026,0,0,0-2-2.0005L2,62a2,2,0,1,0,0,4l4.06348.001A2,2,0,0,0,8.06348,64.0015Z"/><path d="M8.28218,80.002,4.417,81.2568a2,2,0,1,0,1.23438,3.8047l3.8652-1.2549a1.99992,1.99992,0,1,0-1.2344-3.8046Z"/><path d="M15.95408,96.4365,12.666,98.8242a1.99964,1.99964,0,1,0,2.34958,3.2363l3.2881-2.3876a1.99968,1.99968,0,0,0-2.3496-3.2364Z"/><path d="M31.12208,109.2539a2.00188,2.00188,0,0,0-2.794.4424l-2.3886,3.2871a2.00023,2.00023,0,0,0,3.2363,2.3516l2.3887-3.2871A2.00045,2.00045,0,0,0,31.12208,109.2539Z"/><path d="M46.71478,117.1992a2.00277,2.00277,0,0,0-2.5205,1.2842l-1.2558,3.8643a2.00026,2.00026,0,1,0,3.8047,1.2363l1.25582-3.8643A2.00074,2.00074,0,0,0,46.71478,117.1992Z"/><path d="M64,119.9375a2.00008,2.00008,0,0,0-2,2V126a2,2,0,0,0,4,0v-4.0625A2.0001,2.0001,0,0,0,64,119.9375Z"/><path d="M83.80568,118.4834a2.00025,2.00025,0,1,0-3.80468,1.2363l1.25578,3.8643a2.00026,2.00026,0,1,0,3.8047-1.2363Z"/><path d="M99.67188,109.6963a2.00027,2.00027,0,1,0-3.2364,2.3516l2.3887,3.2871a2.00023,2.00023,0,0,0,3.2363-2.3516Z"/><path d="M115.334,98.8242l-3.28812-2.3877a1.99968,1.99968,0,0,0-2.3496,3.2364l3.2881,2.3876a1.99965,1.99965,0,0,0,2.34962-3.2363Z"/><path d="M123.583,81.2568l-3.86522-1.2548a1.99992,1.99992,0,1,0-1.2344,3.8046l3.8652,1.2549a2,2,0,1,0,1.23442-3.8047Z"/><path d="M126,62l-4.06352.001a2,2,0,0,0,0,4L126,66a2,2,0,1,0,0-4Z"/><path d="M119.10058,48.0981a1.994,1.994,0,0,0,.6182-.0986l3.86522-1.2563a1.99979,1.99979,0,1,0-1.23632-3.8037l-3.8653,1.2563a2.0001,2.0001,0,0,0,.6182,3.9023Z"/><path d="M112.98338,25.9395l-3.2881,2.3891a2.00023,2.00023,0,0,0,2.3516,3.2363l3.28812-2.3891a2.00023,2.00023,0,0,0-2.35162-3.2363Z"/><path d="M96.87788,18.7476a2.00051,2.00051,0,0,0,2.794-.4429l2.3886-3.2881a1.99993,1.99993,0,1,0-3.2363-2.3506l-2.3887,3.2881A1.99987,1.99987,0,0,0,96.87788,18.7476Z"/><path d="M81.28518,10.8027a1.99919,1.99919,0,0,0,2.5205-1.2841l1.2558-3.8658a2.00026,2.00026,0,1,0-3.8047-1.2363L80.001,8.2822A2.00048,2.00048,0,0,0,81.28518,10.8027Z"/><path d="M53.07128,39.7612a2.00036,2.00036,0,0,0-3.8926-.9238,5.40447,5.40447,0,0,1-9.5801,2.0059,1.99968,1.99968,0,1,0-3.1953,2.4052,9.40442,9.40442,0,0,0,16.668-3.4873Z"/><path d="M42.51558,73.8535a5.93676,5.93676,0,0,0-5.5088.5098,6.44578,6.44578,0,0,0-2.5879,7.3291,2.00007,2.00007,0,1,0,3.8204-1.1856,2.4685,2.4685,0,0,1,.9433-2.7871,1.92463,1.92463,0,0,1,1.8037-.1709,1.99962,1.99962,0,0,0,1.5293-3.6953Z"/><path d="M48.31248,50.6001a2,2,0,0,0,0,4,1.801,1.801,0,0,1,0,3.6006,2,2,0,0,0,0,4,5.8005,5.8005,0,0,0,0-11.6006Z"/><path d="M52.06448,69.7998a2,2,0,0,0,0-4,5.79949,5.79949,0,0,0,0,11.5986,2,2,0,0,0,0-4,1.79994,1.79994,0,0,1,0-3.5986Z"/><path d="M84.085,47.0005a9.32509,9.32509,0,0,0,7.51168-3.752,1.99968,1.99968,0,1,0-3.1953-2.4052,5.40447,5.40447,0,0,1-9.5801-2.0059,2.00036,2.00036,0,0,0-3.8926.9238A9.3786,9.3786,0,0,0,84.085,47.0005Z"/><path d="M79.68748,62.2007a2,2,0,0,0,0-4,1.801,1.801,0,0,1,0-3.6006,2,2,0,0,0,0-4,5.8005,5.8005,0,0,0,0,11.6006Z"/><path d="M75.93548,73.3984a2,2,0,0,0,0,4,5.79949,5.79949,0,0,0,0-11.5986,2,2,0,0,0,0,4,1.79994,1.79994,0,0,1,0,3.5986Z"/></svg>