<svg xmlns="http://www.w3.org/2000/svg" xmlns:xlink="http://www.w3.org/1999/xlink" version="1.1" x="0px" y="0px" viewBox="0 0 64 80" style="enable-background:new 0 0 64 64;" xml:space="preserve"><g><path d="M60,61V49h-2V37h-8V27c1.103,0,2-0.897,2-2v-2c0-1.103-0.897-2-2-2h-2v-4c1.103,0,2-0.897,2-2v-2c0-1.103-0.897-2-2-2   h-1.868C44.034,5.079,38.335,1,32,1S19.966,5.079,17.868,11H16c-1.103,0-2,0.897-2,2v2c0,1.103,0.897,2,2,2v4h-2   c-1.103,0-2,0.897-2,2v2c0,1.103,0.897,2,2,2v10H6v12H4v12H1v2h62v-2H60z M46,21h-4v-4h4V21z M28,17v4h-4v-4H28z M30,17h4v4h-4V17z    M36,17h4v4h-4V17z M32,3c5.25,0,9.997,3.232,11.994,8H20.006C22.003,6.232,26.75,3,32,3z M15.999,13L15.999,13H48v2H16L15.999,13z    M18,17h4v4h-4V17z M14,23h36l0.001,2H14V23z M16,27h32v10h-3.347C42.34,32.118,37.445,29,32,29s-10.34,3.118-12.653,8H16V27z    M8,43h2v-2H8v-2h12.662l0.257-0.615C22.79,33.899,27.14,31,32,31s9.21,2.899,11.081,7.385L43.338,39H56v2h-2v2h2v6h-2v-4h-6v4h-2   v-4h-4v-2h10v-2H41.798c-0.929-4.559-4.969-8-9.798-8s-8.869,3.441-9.798,8H12v2h10v2h-4v4h-2v-4h-6v4H8V43z M52,49h-2v-2h2V49z    M22,49h-2v-2h2V49z M40,49H24v-6c0-4.411,3.589-8,8-8s8,3.589,8,8V49z M42,47h2v2h-2V47z M14,49h-2v-2h2V49z M6,51h52v10h-2v-4   c0-2.206-1.794-4-4-4s-4,1.794-4,4v4h-2v-4c0-2.206-1.794-4-4-4s-4,1.794-4,4v4h-2v-4c0-2.206-1.794-4-4-4s-4,1.794-4,4v4h-2v-4   c0-2.206-1.794-4-4-4s-4,1.794-4,4v4h-2v-4c0-2.206-1.794-4-4-4s-4,1.794-4,4v4H6V51z M54,61h-4v-4c0-1.103,0.897-2,2-2   s2,0.897,2,2V61z M44,61h-4v-4c0-1.103,0.897-2,2-2s2,0.897,2,2V61z M34,61h-4v-4c0-1.103,0.897-2,2-2s2,0.897,2,2V61z M24,61h-4   v-4c0-1.103,0.897-2,2-2s2,0.897,2,2V61z M14,61h-4v-4c0-1.103,0.897-2,2-2s2,0.897,2,2V61z"/><path d="M32,37c-2.757,0-5,2.243-5,5s2.243,5,5,5s5-2.243,5-5S34.757,37,32,37z M32,45c-1.654,0-3-1.346-3-3s1.346-3,3-3   s3,1.346,3,3S33.654,45,32,45z"/></g></svg>