<svg xmlns="http://www.w3.org/2000/svg" viewBox="0 0 64 80" x="0px" y="0px"><g><path d="M61,8a1,1,0,0,0,1-1V3a1,1,0,0,0-1-1H57a1,1,0,0,0-1,1V7a1,1,0,0,0,1,1h1v2H57a1,1,0,0,0-1,1c0,10.306-12.441,15-24,15S8,21.306,8,11a1,1,0,0,0-1-1H6V8H7A1,1,0,0,0,8,7V3A1,1,0,0,0,7,2H3A1,1,0,0,0,2,3V7A1,1,0,0,0,3,8H4v2H3a1,1,0,0,0-1,1v1A15.2,15.2,0,0,0,5.859,22.045L4.105,25.553h0a.961.961,0,0,0-.088.26c-4.077,21.4,6.005,26.814,6.525,27.076l.008,0h0a1,1,0,0,0,.885,0h0a1,1,0,0,0,.541-.7l3.974-19.868L17.367,29.5q.672.245,1.36.464l-.7,2.79.009,0c0,.016-.016.028-.019.044l-4,20A1,1,0,0,0,15,54h8.059a9,9,0,0,0,17.882,0H49a1,1,0,0,0,.98-1.2l-4-20c0-.016-.015-.028-.019-.044l.009,0-.7-2.82q.684-.221,1.354-.462l1.427,2.853L52.02,52.2a1,1,0,0,0,.541.7h0a1,1,0,0,0,.885,0h0l.006,0c.5-.254,10.607-5.657,6.527-27.077a.961.961,0,0,0-.088-.26h0l-1.764-3.526A15.142,15.142,0,0,0,62,12V11a1,1,0,0,0-1-1H60V8ZM4,4H6V6H4ZM33,29a1,1,0,0,1-.992,1h-.014A1,1,0,1,1,33,29ZM6.033,12c.338,5.006,3.226,9.145,8.406,12.017A35.272,35.272,0,0,0,29.212,27.91,2.975,2.975,0,0,0,29,29a2.937,2.937,0,0,0,.156.908C16.357,29.078,4,22.514,4,12ZM5.085,34H8.547a26.944,26.944,0,0,0,.312,4H5.18A35.659,35.659,0,0,1,5.085,34Zm2.1,12H11.18l-.855,4.277A13.4,13.4,0,0,1,7.188,46Zm-.816-2a23.312,23.312,0,0,1-.957-4H9.276a14.638,14.638,0,0,0,1.655,4ZM8.6,32H5.2c.1-1.276.25-2.624.481-4.07a30.491,30.491,0,0,0,3.068,2.188C8.681,30.751,8.635,31.378,8.6,32Zm3.418,9.794a14.828,14.828,0,0,1-.98-3.007,24.448,24.448,0,0,1-.486-5.763c.015-.595.049-1.2.1-1.815a27.24,27.24,0,0,0,3.2,1.445ZM14.5,30.758a27.957,27.957,0,0,1-8.271-4.985l1.1-2.193A27.712,27.712,0,0,0,15.5,28.764ZM38.705,55A6.958,6.958,0,0,1,37.6,57.184l-1.891-1.891-1.414,1.414L36.184,58.6A6.947,6.947,0,0,1,33,59.92V57H31v2.92A6.947,6.947,0,0,1,27.816,58.6l1.891-1.891-1.414-1.414L26.4,57.184A6.958,6.958,0,0,1,25.3,55H27V53H25a6.978,6.978,0,0,1,2.1-4.991,5,5,0,1,0,9.8,0A6.978,6.978,0,0,1,39,53H37v2Zm-19.2-19.436L21.132,38H19.02ZM21.817,40,20.1,46H17.42l1.2-6Zm2.08,0h4.659a3.9,3.9,0,0,0,.385,4.547A9.006,9.006,0,0,0,26.356,46H22.183ZM34,42a2,2,0,1,1-2-2A2,2,0,0,1,34,42Zm1,7a3,3,0,1,1-3-3A3,3,0,0,1,35,49Zm2.644-3a9.006,9.006,0,0,0-2.585-1.453A3.9,3.9,0,0,0,35.444,40H40.1l1.714,6ZM43.9,46l-1.714-6h3.2l1.2,6Zm1.083-8H42.868l1.625-2.436Zm-4.515,0H23.535l-2.158-3.237A44.025,44.025,0,0,0,32,36a44.025,44.025,0,0,0,10.623-1.237ZM17.02,48h7.5a8.931,8.931,0,0,0-1.463,4H20.388l.561-1.684-1.9-.632L18.279,52H16.22Zm28.7,4-.772-2.316-1.9.632L43.612,52H40.941a8.931,8.931,0,0,0-1.463-4h7.5l.8,4ZM43.807,32.352A40.235,40.235,0,0,1,32,34a40.235,40.235,0,0,1-11.807-1.648l.455-1.822A43.965,43.965,0,0,0,31.907,32H32l.017,0a44.467,44.467,0,0,0,11.327-1.5Zm12.854-8.793,1.108,2.215A27.866,27.866,0,0,1,49.5,30.758l-1.012-2.024A27.829,27.829,0,0,0,56.661,23.559ZM58.8,38H55.141a27.344,27.344,0,0,0,.286-4H58.9A34.989,34.989,0,0,1,58.8,38Zm-5.7,9.4L52.82,46h3.957a13.543,13.543,0,0,1-3.1,4.27ZM57.593,44H53.069a14.745,14.745,0,0,0,1.65-4h3.845A23.39,23.39,0,0,1,57.593,44ZM55.4,32c-.032-.622-.078-1.249-.142-1.882a30.491,30.491,0,0,0,3.068-2.188c.231,1.447.374,2.788.472,4.07Zm-2.047-.79c.046.612.08,1.219.095,1.814a24.448,24.448,0,0,1-.486,5.763,14.828,14.828,0,0,1-.98,3.007l-1.828-9.14A27.4,27.4,0,0,0,53.35,31.21ZM34.848,29.9a2.816,2.816,0,0,0-.06-1.985,35.272,35.272,0,0,0,14.773-3.893c5.18-2.872,8.068-7.011,8.406-12.017H60C60,22.467,47.671,29.018,34.848,29.9ZM58,4h2V6H58Z"/></g></svg>