<svg xmlns="http://www.w3.org/2000/svg" xmlns:xlink="http://www.w3.org/1999/xlink" version="1.1" x="0px" y="0px" viewBox="0 0 512 640" style="enable-background:new 0 0 512 512;" xml:space="preserve"><g><g><g><g><g><path d="M420.7,207.1c-1,0-2-0.3-2.9-0.8l-35.1-20.2c-1.8-1-2.9-2.9-2.9-5v-40.5c0-2.1,1.1-4,2.9-5l35.1-20.2c1.8-1,4-1,5.8,0       l35,20.2c1.8,1,2.9,2.9,2.9,5v40.5c0,2.1-1.1,4-2.9,5l-35,20.2C422.6,206.8,421.7,207.1,420.7,207.1z M391.4,177.8l29.3,16.9       l29.2-16.9v-33.9L420.7,127l-29.3,16.9V177.8z"/></g><g><path d="M420.7,396.7c-1,0-2-0.3-2.9-0.8l-35.1-20.2c-1.8-1-2.9-2.9-2.9-5v-40.4c0-2.1,1.1-4,2.9-5l17.5-10.2l17.5-10.1       c1.8-1,4-1,5.8,0l17.5,10.1l17.5,10.2c1.8,1,2.9,2.9,2.9,5v40.4c0,2.1-1.1,4-2.9,5l-35,20.2       C422.6,396.5,421.7,396.7,420.7,396.7z M391.4,367.4l29.3,16.9l29.2-16.9v-33.8l-14.6-8.5l-14.6-8.4l-29.3,16.9V367.4z"/></g><g><path d="M256.5,491.6c-1,0-2-0.3-2.9-0.8l-35-20.2c-1.8-1-2.9-2.9-2.9-5v-40.5c0-2.1,1.1-4,2.9-5l35-20.2c1.8-1,4-1,5.8,0       l35,20.2c1.8,1,2.9,2.9,2.9,5v40.5c0,2.1-1.1,4-2.9,5l-35,20.2C258.5,491.3,257.5,491.6,256.5,491.6z M227.2,462.3l29.2,16.9       l29.2-16.9v-33.9l-29.2-16.9l-29.2,16.9V462.3z"/></g><g><path d="M256.5,112.3c-1,0-2-0.3-2.9-0.8l-35-20.2c-1.8-1-2.9-2.9-2.9-5V45.9c0-2.1,1.1-4,2.9-5L236,30.7l17.6-10.1       c1.8-1,4-1,5.8,0l17.5,10.1l17.5,10.2c1.8,1,2.9,2.9,2.9,5v40.4c0,2.1-1.1,4-2.9,5l-35,20.2C258.5,112,257.5,112.3,256.5,112.3       z M227.2,82.9l29.2,16.9l29.2-16.9V49.2l-14.6-8.5l-14.6-8.4l-14.7,8.4l-14.6,8.5L227.2,82.9L227.2,82.9z"/></g><g><path d="M256.5,270.8c-23.1,0-41.9-18.8-41.9-41.9c0-23.1,18.8-41.9,41.9-41.9c23.1,0,41.9,18.8,41.9,41.9       C298.4,251.9,279.6,270.8,256.5,270.8z M256.5,198.4c-16.8,0-30.4,13.6-30.4,30.4c0,16.8,13.6,30.4,30.4,30.4       c16.8,0,30.4-13.6,30.4-30.4C286.9,212.1,273.2,198.4,256.5,198.4z"/></g><g><path d="M256.5,353.2c-1,0-2-0.3-2.9-0.8l-39.7-22.9l-17.3-10c-2.3-1.3-3.3-4-2.7-6.5c0.7-2.5,3-4.3,5.6-4.3h114       c2.6,0,4.9,1.7,5.6,4.3c0.7,2.5-0.4,5.2-2.7,6.5l-17.3,10l-39.7,22.9C258.5,352.9,257.5,353.2,256.5,353.2z M220.9,320.2       l35.6,20.5l35.6-20.5H220.9z"/></g><g><path d="M313.5,320.2C313.5,320.2,313.5,320.2,313.5,320.2h-114c-1.7,0-3.4-0.8-4.5-2.2c-1.1-1.4-1.5-3.1-1.1-4.9       c4.5-20.4,22.9-35.2,43.6-35.2h37.9c20.7,0,38.9,14.5,43.5,34.7c0.2,0.5,0.3,1.1,0.3,1.7C319.2,317.6,316.7,320.2,313.5,320.2z        M207.5,308.7h97.9c-5.4-11.4-17-19.1-30-19.1h-37.9C224.6,289.6,212.9,297.3,207.5,308.7z"/></g><g><path d="M313.5,321c-0.8,0-1.6-0.2-2.3-0.5c-1.7-0.7-2.9-2.2-3.3-4c-3.3-15.1-16.9-26.1-32.4-26.1h-38c-15.4,0-29,11-32.4,26.1       c-0.4,1.8-1.6,3.3-3.3,4c-1.7,0.7-3.6,0.6-5.2-0.3l-22.4-12.9c-1.8-1-2.9-2.9-2.9-5v-91.6c0-2.1,1.1-4,2.9-5l39.7-23l39.7-22.9       c1.8-1,4-1,5.8,0l39.7,22.9l39.7,23c1.8,1,2.9,2.9,2.9,5v91.6c0,2.1-1.1,4-2.9,5l-22.4,12.9C315.4,320.7,314.4,321,313.5,321z        M182.9,299l13.3,7.7c6.8-16.5,23.1-27.8,41.3-27.8h38c18.2,0,34.6,11.3,41.3,27.8l13.3-7.7v-85l-36.8-21.3l-36.8-21.2       l-36.8,21.2L182.9,214V299z M256.5,271.5c-23.1,0-41.9-18.8-41.9-41.9c0-23.1,18.8-41.9,41.9-41.9c23.1,0,41.9,18.8,41.9,41.9       C298.4,252.7,279.6,271.5,256.5,271.5z M256.5,199.2c-16.8,0-30.4,13.6-30.4,30.4c0,16.8,13.6,30.4,30.4,30.4       c16.8,0,30.4-13.6,30.4-30.4C286.9,212.8,273.2,199.2,256.5,199.2z"/></g><g><path d="M92.3,207.1c-1,0-2-0.3-2.9-0.8l-35.1-20.2c-1.8-1-2.9-2.9-2.9-5v-40.5c0-2.1,1.1-4,2.9-5l35.1-20.2c1.8-1,4-1,5.8,0       l35,20.2c1.8,1,2.9,2.9,2.9,5v40.5c0,2.1-1.1,4-2.9,5l-35,20.2C94.3,206.8,93.3,207.1,92.3,207.1z M63,177.8l29.3,16.9       l29.3-16.9v-33.8L92.3,127L63,143.9L63,177.8L63,177.8z"/></g><g><path d="M92.3,396.7c-1,0-2-0.3-2.9-0.8l-35.1-20.2c-1.8-1-2.9-2.9-2.9-5v-40.4c0-2.1,1.1-4,2.9-5l17.5-10.2l17.5-10.1       c1.8-1,4-1,5.8,0l35,20.3c1.8,1,2.9,2.9,2.9,5v40.4c0,2.1-1.1,4-2.9,5l-35,20.2C94.3,396.5,93.3,396.7,92.3,396.7z M63,367.4       l29.3,16.9l29.3-16.9v-33.8l-29.3-16.9L63,333.6L63,367.4L63,367.4z"/></g></g><g><g><path d="M256.5,353.2c-1,0-2-0.3-2.9-0.8l-39.7-22.9l-17.3-10l-22.4-12.9c-1.8-1-2.9-2.9-2.9-5v-91.6c0-2.1,1.1-4,2.9-5       l39.7-23l39.7-22.9c1.8-1,4-1,5.8,0l39.7,22.9l39.7,23c1.8,1,2.9,2.9,2.9,5v91.6c0,2.1-1.1,4-2.9,5l-22.4,12.9l-17.3,10       l-39.7,22.9C258.5,352.9,257.5,353.2,256.5,353.2z M182.9,298.2l73.6,42.5l36.8-21.2l36.8-21.3v-85l-36.8-21.3l-36.8-21.2       l-36.8,21.2l-36.8,21.3V298.2z"/></g><g><path d="M256.5,270.8c-23.1,0-41.9-18.8-41.9-41.9c0-23.1,18.8-41.9,41.9-41.9c23.1,0,41.9,18.8,41.9,41.9       C298.4,251.9,279.6,270.8,256.5,270.8z M256.5,198.4c-16.8,0-30.4,13.6-30.4,30.4c0,16.8,13.6,30.4,30.4,30.4       c16.8,0,30.4-13.6,30.4-30.4C286.9,212.1,273.2,198.4,256.5,198.4z"/></g><g><path d="M199.5,320.2c-0.4,0-0.8,0-1.2-0.1c-3.1-0.7-5.1-3.8-4.4-6.9c4.5-20.4,22.9-35.2,43.6-35.2h37.9       c20.8,0,39.2,14.8,43.6,35.2c0.7,3.1-1.3,6.2-4.4,6.9c-3.1,0.7-6.2-1.3-6.9-4.4c-3.3-15.1-16.9-26.1-32.4-26.1h-37.9       c-15.4,0-29,11-32.4,26.1C204.5,318.4,202.1,320.2,199.5,320.2z"/></g><g><path d="M256.5,112.3c-1,0-2-0.3-2.9-0.8l-35-20.2c-1.8-1-2.9-2.9-2.9-5V45.9c0-2.1,1.1-4,2.9-5L236,30.7l17.6-10.1       c1.8-1,4-1,5.8,0l17.5,10.1l17.5,10.2c1.8,1,2.9,2.9,2.9,5v40.4c0,2.1-1.1,4-2.9,5l-35,20.2C258.5,112,257.5,112.3,256.5,112.3       z M227.2,82.9l29.2,16.9l29.2-16.9V49.2l-14.6-8.5l-14.6-8.4l-14.7,8.4l-14.6,8.5L227.2,82.9L227.2,82.9z"/></g><g><path d="M420.7,207.1c-1,0-2-0.3-2.9-0.8l-35.1-20.2c-1.8-1-2.9-2.9-2.9-5v-40.5c0-2.1,1.1-4,2.9-5l35.1-20.2c1.8-1,4-1,5.8,0       l35,20.2c1.8,1,2.9,2.9,2.9,5v40.5c0,2.1-1.1,4-2.9,5l-35,20.2C422.6,206.8,421.7,207.1,420.7,207.1z M391.4,177.8l29.3,16.9       l29.2-16.9v-33.9L420.7,127l-29.3,16.9V177.8z"/></g><g><path d="M420.7,396.7c-1,0-2-0.3-2.9-0.8l-35.1-20.2c-1.8-1-2.9-2.9-2.9-5v-40.4c0-2.1,1.1-4,2.9-5l17.5-10.2l17.5-10.1       c1.8-1,4-1,5.8,0l17.5,10.1l17.5,10.2c1.8,1,2.9,2.9,2.9,5v40.4c0,2.1-1.1,4-2.9,5l-35,20.2       C422.6,396.5,421.7,396.7,420.7,396.7z M391.4,367.4l29.3,16.9l29.2-16.9v-33.8l-14.6-8.5l-14.6-8.4l-29.3,16.9V367.4z"/></g><g><path d="M256.5,491.6c-1,0-2-0.3-2.9-0.8l-35-20.2c-1.8-1-2.9-2.9-2.9-5v-40.5c0-2.1,1.1-4,2.9-5l35-20.2c1.8-1,4-1,5.8,0       l35,20.2c1.8,1,2.9,2.9,2.9,5v40.5c0,2.1-1.1,4-2.9,5l-35,20.2C258.5,491.3,257.5,491.6,256.5,491.6z M227.2,462.3l29.2,16.9       l29.2-16.9v-33.9l-29.2-16.9l-29.2,16.9V462.3z"/></g><g><path d="M92.3,396.7c-1,0-2-0.3-2.9-0.8l-35.1-20.2c-1.8-1-2.9-2.9-2.9-5v-40.4c0-2.1,1.1-4,2.9-5l17.5-10.2l17.5-10.1       c1.8-1,4-1,5.8,0l35,20.3c1.8,1,2.9,2.9,2.9,5v40.4c0,2.1-1.1,4-2.9,5l-35,20.2C94.3,396.5,93.3,396.7,92.3,396.7z M63,367.4       l29.3,16.9l29.3-16.9v-33.8l-29.3-16.9L63,333.6L63,367.4L63,367.4z"/></g><g><path d="M92.3,207.1c-1,0-2-0.3-2.9-0.8l-35.1-20.2c-1.8-1-2.9-2.9-2.9-5v-40.5c0-2.1,1.1-4,2.9-5l35.1-20.2c1.8-1,4-1,5.8,0       l35,20.2c1.8,1,2.9,2.9,2.9,5v40.5c0,2.1-1.1,4-2.9,5l-35,20.2C94.3,206.8,93.3,207.1,92.3,207.1z M63,177.8l29.3,16.9       l29.3-16.9v-33.8L92.3,127L63,143.9L63,177.8L63,177.8z"/></g><g><path d="M256.5,169.8c-3.2,0-5.8-2.6-5.8-5.8v-57.5c0-3.2,2.6-5.8,5.8-5.8s5.8,2.6,5.8,5.8V164       C262.2,167.2,259.6,169.8,256.5,169.8z"/></g><g><path d="M335.8,215.7c-2,0-3.9-1-5-2.9c-1.6-2.8-0.7-6.3,2.1-7.9l49.8-28.8c2.8-1.6,6.3-0.6,7.9,2.1c1.6,2.8,0.7,6.3-2.1,7.9       l-49.8,28.8C337.8,215.4,336.8,215.7,335.8,215.7z"/></g><g><path d="M385.6,336.1c-1,0-2-0.3-2.9-0.8l-49.8-28.8c-2.8-1.6-3.7-5.1-2.1-7.9c1.6-2.8,5.1-3.7,7.9-2.1l49.8,28.8       c2.8,1.6,3.7,5.1,2.1,7.9C389.5,335,387.6,336.1,385.6,336.1z"/></g><g><path d="M256.5,410.7c-3.2,0-5.8-2.6-5.8-5.8v-57.5c0-3.2,2.6-5.8,5.8-5.8s5.8,2.6,5.8,5.8v57.5       C262.2,408.1,259.6,410.7,256.5,410.7z"/></g><g><path d="M127.3,336.1c-2,0-3.9-1-5-2.9c-1.6-2.8-0.7-6.3,2.1-7.9l49.8-28.8c2.8-1.6,6.3-0.7,7.9,2.1c1.6,2.8,0.7,6.3-2.1,7.9       l-49.8,28.8C129.3,335.8,128.3,336.1,127.3,336.1z"/></g><g><path d="M177.1,215.7c-1,0-2-0.3-2.9-0.8l-49.8-28.8c-2.8-1.6-3.7-5.1-2.1-7.9c1.6-2.8,5.1-3.7,7.9-2.1l49.8,28.8       c2.8,1.6,3.7,5.1,2.1,7.9C181,214.6,179.1,215.7,177.1,215.7z"/></g></g></g></g></g></svg>