<svg xmlns="http://www.w3.org/2000/svg" xmlns:xlink="http://www.w3.org/1999/xlink" version="1.1" x="0px" y="0px" viewBox="0 0 100 125" enable-background="new 0 0 100 100" xml:space="preserve"><path d="M59.192,46.919c-0.126,0.126-0.252,0.252-0.378,0.378V26.278c0-2.589-2.085-4.685-4.65-4.685H53.58  c-0.71,0-1.386,0.16-1.993,0.447v-1.031c0-2.589-2.085-4.685-4.65-4.685h-0.584l0,0c-1.249,0-2.417,0.481-3.299,1.363  s-1.363,2.05-1.363,3.299v1.042c-0.607-0.286-1.283-0.435-1.97-0.435h-0.584c-2.577,0-4.673,2.096-4.673,4.673l-0.011,11.042  c-0.607-0.286-1.271-0.447-1.982-0.447h-0.584c-2.577,0-4.673,2.096-4.673,4.673v20.572c0,5.246,2.039,10.171,5.75,13.883  c3.711,3.711,8.637,5.75,13.883,5.75c10.664,0,19.369-8.545,19.621-19.14c0-0.034,0.011-0.08,0.011-0.126v-0.367v-9.69v-8.098  h-1.352C63.133,44.307,60.91,45.281,59.192,46.919z M46.856,79.025c-4.524,0-8.774-1.764-11.97-4.96  c-3.196-3.196-4.96-7.445-4.96-11.97V41.524c0-1.088,0.882-1.97,1.97-1.97h0.584c1.088,0,1.97,0.882,1.97,1.97h0.011l-0.011,8.602  c0,0.745,0.607,1.352,1.352,1.352l0,0c0.745,0,1.352-0.607,1.352-1.352l0.023-23.882c0-1.088,0.882-1.97,1.97-1.97h0.584  c0.515,0,1.008,0.206,1.375,0.584c0.367,0.378,0.573,0.882,0.573,1.409v22.05c0,0.745,0.607,1.352,1.352,1.352  s1.352-0.607,1.352-1.352v-8.533l0.023-18.797c0-0.527,0.206-1.019,0.573-1.397c0.378-0.378,0.871-0.573,1.397-0.573l0,0h0.584  c1.077,0,1.947,0.893,1.947,1.993v5.269v1.787v18.693c0,0.745,0.607,1.352,1.352,1.352c0.745,0,1.352-0.607,1.352-1.352V28.065  v-1.787c0-1.077,0.916-1.993,1.993-1.993h0.584c1.077,0,1.947,0.893,1.947,1.993v27.834v2.52c0,0.745,0.607,1.352,1.352,1.352  c0.745,0,1.352-0.607,1.352-1.352v-2.52c0-2.566,1.214-4.261,2.234-5.235c0.813-0.779,1.787-1.352,2.726-1.649v5.177v9.69  C63.785,71.431,56.191,79.025,46.856,79.025z M44.565,71.271c-0.011-0.481-0.412-0.871-0.893-0.871l0,0  c-0.653,0-1.26-0.252-1.718-0.71s-0.71-1.065-0.71-1.718c0-0.493-0.401-0.905-0.905-0.905c-0.504,0-0.905,0.401-0.905,0.905  c0,0.653-0.252,1.26-0.71,1.718s-1.065,0.71-1.718,0.71l0,0l0,0c-0.493,0-0.882,0.389-0.893,0.871c0,0.011,0,0.011,0,0.023l0,0l0,0  c0,0.47,0.355,0.848,0.802,0.893c0.034,0,0.057,0,0.092,0l0,0l0,0l0,0c0.653,0,1.26,0.252,1.718,0.71  c0.458,0.458,0.71,1.065,0.71,1.718c0,0.493,0.401,0.905,0.905,0.905c0.504,0,0.905-0.401,0.905-0.905  c0-0.653,0.252-1.26,0.71-1.718c0.458-0.458,1.065-0.71,1.718-0.71l0,0l0,0c0.046,0,0.103,0,0.149-0.011c0.011,0,0.023,0,0.034,0  c0.011,0,0.023-0.011,0.034-0.011c0.023,0,0.034-0.011,0.057-0.011c0.011,0,0.011-0.011,0.023-0.011  c0.023-0.011,0.034-0.011,0.057-0.023c0.011,0,0.023-0.011,0.034-0.011c0.011-0.011,0.034-0.011,0.046-0.023  c0.011,0,0.011-0.011,0.023-0.011c0.023-0.011,0.034-0.023,0.057-0.034c0,0,0,0,0.011-0.011c0.229-0.16,0.389-0.435,0.389-0.745l0,0  l0,0C44.565,71.294,44.565,71.282,44.565,71.271z M40.682,71.637c-0.126,0.126-0.229,0.252-0.344,0.378  c-0.103-0.137-0.218-0.263-0.344-0.378c-0.126-0.126-0.252-0.229-0.378-0.344c0.137-0.103,0.263-0.218,0.378-0.344  c0.126-0.126,0.229-0.252,0.344-0.378c0.103,0.137,0.218,0.263,0.344,0.378c0.126,0.126,0.252,0.229,0.378,0.344  C40.923,71.397,40.797,71.511,40.682,71.637z M80.028,58.133c0-0.011,0-0.023,0-0.034c0-0.011,0-0.034,0-0.046s0-0.034,0-0.046l0,0  l0,0c0-0.011,0-0.034,0-0.046c0-0.011,0-0.023,0-0.046c0-0.023,0-0.034-0.011-0.057c0-0.011,0-0.023,0-0.034  c0-0.023-0.011-0.034-0.011-0.057c0-0.011,0-0.023-0.011-0.034c0-0.023-0.011-0.034-0.023-0.057c0-0.011-0.011-0.023-0.011-0.034  c-0.011-0.023-0.023-0.046-0.034-0.057c0,0,0-0.011-0.011-0.011c-0.011-0.023-0.023-0.034-0.034-0.057  c0-0.011-0.011-0.011-0.011-0.023c-0.011-0.011-0.023-0.023-0.023-0.034c-0.011-0.011-0.011-0.023-0.023-0.034  c-0.011-0.011-0.023-0.023-0.023-0.034c-0.011-0.011-0.023-0.023-0.034-0.034s-0.023-0.023-0.034-0.034  c-0.011-0.011-0.023-0.023-0.034-0.023c-0.011-0.011-0.023-0.011-0.034-0.023c-0.011-0.011-0.023-0.023-0.034-0.023  s-0.011-0.011-0.023-0.011c-0.023-0.011-0.034-0.023-0.057-0.034c0,0-0.011,0-0.011-0.011c-0.023-0.011-0.046-0.023-0.057-0.034  c-0.011,0-0.023-0.011-0.034-0.011c-0.023-0.011-0.034-0.011-0.057-0.023c-0.011,0-0.023,0-0.034-0.011  c-0.023,0-0.034-0.011-0.057-0.011c-0.011,0-0.023,0-0.034,0c-0.023,0-0.034-0.011-0.057-0.011c-0.011,0-0.023,0-0.046,0  c-0.011,0-0.034,0-0.046,0l0,0l0,0c-1.214,0-2.348-0.47-3.207-1.329c-0.859-0.859-1.329-1.993-1.329-3.207  c0-0.493-0.401-0.905-0.905-0.905s-0.905,0.401-0.905,0.905c0,1.214-0.47,2.348-1.329,3.207c-0.859,0.859-1.993,1.329-3.207,1.329  l0,0l0,0c-0.424,0-0.79,0.298-0.882,0.699V57.8c0,0.023,0,0.034-0.011,0.057c0,0.011,0,0.023,0,0.034c0,0.011,0,0.034,0,0.046  s0,0.034,0,0.046l0,0l0,0c0,0.011,0,0.034,0,0.046s0,0.023,0,0.046c0,0.023,0,0.034,0.011,0.057c0,0.011,0,0.023,0,0.034  c0,0.023,0.011,0.034,0.011,0.057c0,0.011,0,0.023,0.011,0.034c0,0.023,0.011,0.034,0.023,0.057c0,0.011,0.011,0.023,0.011,0.034  c0.011,0.023,0.023,0.046,0.034,0.057c0,0,0,0.011,0.011,0.011c0.011,0.023,0.023,0.034,0.034,0.057  c0,0.011,0.011,0.011,0.011,0.023c0.011,0.011,0.023,0.023,0.023,0.034c0.011,0.011,0.011,0.023,0.023,0.034  c0.011,0.011,0.023,0.023,0.023,0.034c0.011,0.011,0.023,0.023,0.034,0.034c0.011,0.011,0.023,0.023,0.034,0.034  c0.011,0.011,0.023,0.023,0.034,0.023c0.011,0.011,0.023,0.011,0.034,0.023s0.023,0.023,0.034,0.023s0.011,0.011,0.023,0.011  c0.023,0.011,0.034,0.023,0.057,0.034c0,0,0.011,0,0.011,0.011c0.023,0.011,0.046,0.023,0.057,0.034  c0.011,0,0.023,0.011,0.034,0.011c0.023,0.011,0.034,0.011,0.057,0.023c0.011,0,0.023,0,0.034,0.011  c0.023,0,0.034,0.011,0.057,0.011c0.011,0,0.023,0,0.034,0c0.023,0,0.034,0.011,0.057,0.011c0.011,0,0.023,0,0.046,0  c0.011,0,0.034,0,0.046,0l0,0l0,0c1.214,0,2.348,0.47,3.207,1.329c0.859,0.859,1.329,1.993,1.329,3.207l0,0l0,0  c0,0.493,0.389,0.882,0.871,0.893c0.011,0,0.011,0,0.023,0l0,0l0,0c0.493,0,0.882-0.389,0.893-0.871c0-0.011,0-0.011,0-0.023l0,0  l0,0c0-1.214,0.47-2.348,1.329-3.207c0.859-0.859,1.993-1.329,3.207-1.329l0,0l0,0c0.424,0,0.79-0.298,0.882-0.699V58.19  C80.016,58.167,80.028,58.155,80.028,58.133z M74.656,58.957c-0.367,0.367-0.687,0.779-0.951,1.226  c-0.263-0.435-0.584-0.848-0.951-1.226c-0.367-0.367-0.779-0.687-1.226-0.951c0.435-0.263,0.848-0.584,1.226-0.951  c0.367-0.367,0.687-0.779,0.951-1.226c0.263,0.435,0.584,0.848,0.951,1.226c0.367,0.367,0.779,0.687,1.226,0.951  C75.434,58.27,75.034,58.591,74.656,58.957z M65.561,87.65c0-0.08-0.011-0.16-0.034-0.241l0,0c-0.011-0.023-0.023-0.057-0.023-0.08  c0-0.011-0.011-0.023-0.011-0.034c-0.011-0.011-0.011-0.034-0.023-0.046c-0.149-0.275-0.435-0.458-0.767-0.47  c-0.011,0-0.011,0-0.023,0l0,0l0,0l0,0c-0.515,0-1.1-0.527-1.558-1.397c-0.55-1.077-0.871-2.577-0.871-4.135l0,0l0,0  c0-0.115-0.023-0.218-0.057-0.321c-0.011-0.034-0.034-0.08-0.046-0.115l0,0c-0.149-0.275-0.447-0.47-0.79-0.47l0,0l0,0  c-0.183,0-0.355,0.057-0.504,0.149l0,0c-0.023,0.011-0.046,0.034-0.069,0.046l0,0c-0.011,0.011-0.023,0.023-0.046,0.034  c-0.011,0.011-0.011,0.011-0.023,0.023s-0.034,0.034-0.046,0.046l-0.011,0.011c-0.011,0.023-0.034,0.034-0.046,0.057  c0,0,0,0.011-0.011,0.011c-0.092,0.137-0.149,0.298-0.149,0.481c0,0.011,0,0.011,0,0.023l0,0l0,0c0,1.558-0.321,3.058-0.871,4.135  c-0.458,0.871-1.031,1.397-1.558,1.397l0,0l0,0l0,0c-0.011,0-0.023,0-0.023,0c-0.241,0.011-0.458,0.103-0.607,0.263  c0,0,0,0.011-0.011,0.011c-0.011,0.023-0.034,0.034-0.046,0.057c-0.011,0.011-0.023,0.023-0.023,0.034  c-0.011,0.011-0.011,0.023-0.023,0.034c-0.092,0.137-0.149,0.298-0.149,0.481c0,0.011,0,0.011,0,0.023l0,0l0,0  c0,0.011,0,0.011,0,0.023c0,0.08,0.011,0.16,0.034,0.241l0,0c0.011,0.023,0.023,0.057,0.023,0.08c0,0.011,0.011,0.023,0.011,0.034  c0.011,0.011,0.011,0.034,0.023,0.046c0.149,0.275,0.435,0.458,0.767,0.47c0.011,0,0.011,0,0.023,0l0,0l0,0l0,0  c0.515,0,1.1,0.527,1.558,1.397c0.55,1.077,0.871,2.577,0.871,4.135l0,0l0,0c0,0.149,0.034,0.286,0.092,0.401  c0,0.011,0.011,0.011,0.011,0.023l0,0c0.149,0.275,0.447,0.47,0.79,0.47l0,0l0,0c0.183,0,0.355-0.057,0.504-0.149l0,0  c0.023-0.011,0.046-0.034,0.069-0.046l0,0c0.011-0.011,0.023-0.023,0.046-0.034c0.011-0.011,0.011-0.011,0.023-0.023  c0.011-0.011,0.034-0.034,0.046-0.046l0.011-0.011c0.011-0.023,0.034-0.034,0.046-0.057c0,0,0-0.011,0.011-0.011  c0.092-0.137,0.149-0.298,0.149-0.481c0-0.011,0-0.011,0-0.023l0,0l0,0c0-1.558,0.321-3.058,0.871-4.135  c0.458-0.871,1.031-1.397,1.558-1.397l0,0l0,0l0,0c0.011,0,0.023,0,0.023,0c0.241-0.011,0.458-0.103,0.607-0.263  c0,0,0-0.011,0.011-0.011c0.011-0.023,0.034-0.034,0.046-0.057c0.011-0.011,0.023-0.023,0.023-0.034  c0.011-0.011,0.011-0.023,0.023-0.034c0.092-0.137,0.149-0.298,0.149-0.481c0-0.011,0-0.011,0-0.023l0,0l0,0  C65.561,87.662,65.561,87.662,65.561,87.65z M61.506,89.139c-0.057,0.115-0.115,0.241-0.172,0.367  c-0.057-0.126-0.115-0.252-0.172-0.367c-0.309-0.596-0.676-1.088-1.065-1.466c0.401-0.378,0.756-0.871,1.065-1.478  c0.057-0.115,0.115-0.241,0.172-0.367c0.057,0.126,0.115,0.252,0.172,0.367c0.309,0.596,0.676,1.088,1.065,1.466  C62.182,88.051,61.815,88.544,61.506,89.139z M46.707,56.323c-4.307,0-7.777,1.501-9.771,4.227l-0.607,0.893l0.63,0.745  c0.137,0.172,3.31,4.192,9.759,4.192c6.3,0,9.599-4.009,9.736-4.169l0.664-0.756L56.5,60.538  C54.496,57.823,51.025,56.323,46.707,56.323z M44.118,63.367c-2.027-0.458-3.413-1.329-4.215-2.005  c1.065-0.985,2.52-1.741,4.25-2.073c-0.458,0.561-0.733,1.283-0.733,2.062C43.431,62.119,43.683,62.817,44.118,63.367z   M49.307,63.356c0.424-0.55,0.676-1.249,0.676-1.993c0-0.779-0.275-1.501-0.733-2.062c1.718,0.332,3.173,1.088,4.238,2.062  C52.686,62.027,51.289,62.886,49.307,63.356z M43.099,10.643h0.023c1.569,0.011,2.864,1.294,2.886,2.875v0.034  c0,0.493,0.401,0.905,0.905,0.905l0,0l0,0c0.493,0,0.905-0.401,0.905-0.905c0-0.023,0-0.046,0-0.057  c0.034-1.558,1.317-2.841,2.886-2.852h0.023c0.493,0,0.905-0.401,0.905-0.905c0-0.493-0.401-0.905-0.905-0.905h-0.023  c-1.581-0.011-2.875-1.306-2.886-2.875V5.924c0-0.493-0.401-0.905-0.905-0.905c-0.504,0-0.905,0.401-0.905,0.905v0.034  c-0.023,1.581-1.306,2.864-2.886,2.875h-0.023c-0.195,0-0.389,0.069-0.538,0.183l0,0c-0.309,0.229-0.435,0.641-0.309,1.008  S42.709,10.643,43.099,10.643z M46.913,8.684c0.298,0.401,0.653,0.756,1.054,1.054c-0.401,0.298-0.756,0.653-1.054,1.054  c-0.298-0.401-0.653-0.756-1.054-1.054C46.26,9.452,46.615,9.097,46.913,8.684z M19.95,34.938L19.95,34.938  c0.424,0.011,1.157,0.745,1.867,2.36c0.676,1.558,1.042,3.242,1.054,4.112v0.034c0,0.493,0.401,0.905,0.905,0.905l0,0l0,0  c0.493,0,0.905-0.401,0.905-0.905c0-0.023,0-0.046,0-0.057c0.011-0.882,0.378-2.554,1.042-4.089c0.699-1.615,1.432-2.348,1.856-2.36  h0.011c0.195,0,0.389-0.069,0.538-0.183c0.309-0.229,0.435-0.641,0.309-1.008c-0.126-0.367-0.47-0.619-0.848-0.619h-0.011  c-0.412-0.011-1.145-0.745-1.856-2.36c-0.676-1.558-1.042-3.242-1.054-4.112v-0.034c0-0.493-0.401-0.905-0.905-0.905  s-0.905,0.401-0.905,0.905v0.034c-0.011,0.871-0.367,2.566-1.054,4.112c-0.687,1.627-1.42,2.36-1.844,2.371  c-0.011,0-0.023,0-0.034,0c-0.069,0-0.149,0.011-0.218,0.034c-0.389,0.103-0.676,0.458-0.664,0.882  C19.068,34.548,19.469,34.938,19.95,34.938z M23.466,31.501c0.103-0.241,0.206-0.493,0.298-0.745  c0.092,0.252,0.195,0.504,0.298,0.745c0.481,1.111,1.019,1.959,1.604,2.543c-0.584,0.573-1.123,1.432-1.604,2.543  c-0.103,0.241-0.206,0.493-0.298,0.745c-0.092-0.252-0.195-0.504-0.298-0.745c-0.481-1.111-1.019-1.959-1.604-2.543  C22.447,33.46,22.985,32.612,23.466,31.501z M60.968,37.435h1.993l-1.409,1.409c-0.355,0.355-0.355,0.916,0,1.271  c0.172,0.172,0.401,0.263,0.641,0.263c0.229,0,0.458-0.092,0.641-0.263l1.409-1.409v1.993c0,0.493,0.401,0.905,0.905,0.905  s0.905-0.401,0.905-0.905v-1.993l1.409,1.409c0.172,0.172,0.401,0.263,0.641,0.263c0.241,0,0.458-0.092,0.641-0.263  c0.355-0.355,0.355-0.916,0-1.271l-1.409-1.409h1.993c0.493,0,0.905-0.401,0.905-0.905c0-0.504-0.401-0.905-0.905-0.905h-1.993  l1.409-1.409c0.355-0.355,0.355-0.916,0-1.271c-0.355-0.355-0.916-0.355-1.271,0l-1.409,1.409V32.36  c0-0.493-0.401-0.905-0.905-0.905s-0.905,0.401-0.905,0.905v1.993l-1.409-1.409c-0.355-0.355-0.916-0.355-1.271,0  s-0.355,0.916,0,1.271l1.409,1.409h-2.016c-0.493,0-0.905,0.401-0.905,0.905C60.063,37.034,60.464,37.435,60.968,37.435z   M27.315,81.236h1.993c0.493,0,0.905-0.401,0.905-0.905s-0.401-0.905-0.905-0.905h-1.993l2.669-2.669  c0.355-0.355,0.355-0.916,0-1.271c-0.355-0.355-0.916-0.355-1.271,0l-2.669,2.669v-6.884c0-0.493-0.401-0.905-0.905-0.905  s-0.905,0.401-0.905,0.905v6.884l-2.669-2.657c-0.355-0.355-0.916-0.355-1.271,0c-0.355,0.355-0.355,0.916,0,1.271l2.669,2.669  h-1.993c-0.493,0-0.905,0.401-0.905,0.905s0.401,0.905,0.905,0.905h1.993l-2.669,2.669c-0.355,0.355-0.355,0.916,0,1.271  c0.172,0.172,0.401,0.263,0.641,0.263c0.241,0,0.458-0.092,0.641-0.263l2.669-2.669v6.884c0,0.493,0.401,0.905,0.905,0.905  c0.504,0,0.905-0.401,0.905-0.905v-6.884l2.669,2.669c0.172,0.172,0.401,0.263,0.641,0.263s0.458-0.092,0.641-0.263  c0.355-0.355,0.355-0.916,0-1.271L27.315,81.236z"/></svg>