<svg xmlns="http://www.w3.org/2000/svg" xmlns:xlink="http://www.w3.org/1999/xlink" version="1.1" x="0px" y="0px" viewBox="0 0 512 640" style="enable-background:new 0 0 512 512;" xml:space="preserve"><g><g><g><path d="M395.195,474.445c-2.063,0-4.126-0.637-5.878-1.91L256,375.668l-133.317,96.867c-3.504,2.548-8.25,2.548-11.755,0     c-3.505-2.546-4.972-7.06-3.633-11.18l5.45-16.773c1.707-5.253,7.35-8.128,12.601-6.421c2.214,0.72,4.006,2.139,5.21,3.933     l119.567-86.877c3.505-2.547,8.252-2.547,11.756,0l114.297,83.047l-33.208-102.208c-1.706-5.253,1.168-10.894,6.421-12.601     c5.253-1.705,10.894,1.168,12.601,6.421l42.718,131.479c1.339,4.12-0.128,8.634-3.633,11.18     C399.32,473.809,397.258,474.445,395.195,474.445z M137.706,410.122c-1.024,0-2.065-0.159-3.092-0.492     c-5.253-1.707-8.127-7.349-6.421-12.601l30.024-92.409L24.899,207.751c-3.504-2.546-4.971-7.06-3.632-11.18     c1.339-4.12,5.179-6.91,9.511-6.91h164.789l13.655-42.029c1.707-5.253,7.35-8.126,12.601-6.421     c5.253,1.707,8.127,7.348,6.421,12.601l-15.9,48.939c-1.339,4.121-5.178,6.91-9.511,6.91H61.552l114.299,83.049     c3.504,2.546,4.971,7.06,3.632,11.18l-32.269,99.318C145.842,407.435,141.921,410.122,137.706,410.122z M355.125,301.291     c-3.092,0-6.141-1.43-8.098-4.123c-3.246-4.468-2.256-10.722,2.212-13.968l101.209-73.539h-141.28     c-4.332,0-8.172-2.79-9.511-6.91L256,68.379l-12.307,37.88c-1.706,5.253-7.344,8.127-12.601,6.421     c-5.253-1.707-8.127-7.348-6.421-12.601l21.818-67.153c1.339-4.121,5.178-6.91,9.511-6.91c4.332,0,8.172,2.79,9.511,6.91     l50.923,156.735h164.789c4.332,0,8.172,2.79,9.511,6.91s-0.128,8.634-3.633,11.18L360.995,299.38     C359.221,300.67,357.163,301.291,355.125,301.291z"/></g><g><path d="M256,485.984c-62.388,0-121.739-26.961-162.836-73.969c-3.635-4.158-3.211-10.476,0.947-14.11     c4.158-3.636,10.475-3.212,14.111,0.946c37.298,42.664,91.162,67.133,147.778,67.133c108.195,0,196.219-88.031,196.219-196.236     c0-63.246-30.766-122.982-82.299-159.795c-4.494-3.21-5.535-9.456-2.324-13.95c3.209-4.494,9.455-5.534,13.949-2.324     c27.446,19.606,50.239,45.715,65.914,75.503c16.198,30.782,24.76,65.557,24.76,100.566c0,57.759-22.49,112.06-63.328,152.901     C368.052,463.491,313.755,485.984,256,485.984z M72.648,374.223c-3.623,0-7.118-1.975-8.894-5.415     c-15.685-30.385-23.975-64.639-23.975-99.06c0-57.758,22.491-112.059,63.329-152.9C143.947,76.006,198.245,53.514,256,53.514     c27.49,0,54.28,5.093,79.624,15.137c5.134,2.035,7.646,7.846,5.612,12.98c-2.035,5.133-7.848,7.647-12.981,5.612     c-22.988-9.11-47.298-13.729-72.255-13.729c-108.196,0-196.221,88.03-196.221,196.234c0,31.689,7.316,61.932,21.747,89.886     c2.534,4.907,0.609,10.939-4.299,13.473C75.76,373.864,74.193,374.223,72.648,374.223z"/></g><g><path d="M256,326.496c-31.289,0-56.744-25.457-56.744-56.748c0-31.29,25.455-56.746,56.744-56.746     c31.288,0,56.742,25.456,56.742,56.746C312.742,301.039,287.288,326.496,256,326.496z M256,233.002     c-20.261,0-36.744,16.484-36.744,36.746c0,20.263,16.483,36.748,36.744,36.748c20.26,0,36.742-16.485,36.742-36.748     C292.742,249.486,276.26,233.002,256,233.002z"/></g><circle cx="256" cy="269.748" r="13.748"/><rect x="141.221" y="135.065" width="20.949" height="20.951"/><rect x="350.273" y="135.065" width="20.949" height="20.951"/><rect x="400.273" y="306.016" width="20.949" height="20.951"/><rect x="250.994" y="413.131" width="20.951" height="20.951"/><rect x="91.221" y="306.016" width="20.949" height="20.951"/></g></g></svg>