<svg xmlns="http://www.w3.org/2000/svg" xmlns:xlink="http://www.w3.org/1999/xlink" version="1.1" x="0px" y="0px" viewBox="0 0 64 80" style="enable-background:new 0 0 64 64;" xml:space="preserve"><g><path d="M61.879,56.464L60.414,55l2-2L58,48.586l-2,2L35.914,30.5l1.5-1.5l-3.592-3.592l-1.928-3.855l-0.009,0.004   C31.953,21.156,32,20.756,32,20.364C32,16.303,28.696,13,24.636,13c-1.505,0-2.939,0.452-4.154,1.285L19.721,12H12v7.721   l2.285,0.762C13.452,21.697,13,23.131,13,24.636C13,28.697,16.304,32,20.364,32c0.393,0,0.792-0.047,1.193-0.115l-0.005,0.009   l3.855,1.928L29,37.414l1.5-1.5L50.586,56l-2,2L53,62.414l2-2l1.465,1.464C57.188,62.602,58.148,63,59.172,63   C61.282,63,63,61.283,63,59.171C63,58.149,62.602,57.188,61.879,56.464z M51.586,49L49,51.586L34.914,37.5l2.586-2.586L51.586,49z    M25.803,31.783L23,30.382V29h3v-3h3v-3h1.382l1.401,2.803L25.803,31.783z M14,14h4.279l0.577,1.73l-3.126,3.126L14,18.279V14z    M21,29.959c-3.255,0.415-6-2.156-6-5.323c0-1.433,0.558-2.78,1.571-3.793l4.271-4.272C21.855,15.558,23.203,15,24.636,15   C27.594,15,30,17.406,30,20.364c0,0.209-0.014,0.421-0.041,0.636H27v3h-3v3h-3V29.959z M27.414,33L33,27.414L34.586,29L29,34.586   L27.414,33z M34.5,31.914l1.586,1.586L33.5,36.086L31.914,34.5L34.5,31.914z M50.414,53L53,50.414L54.586,52L52,54.586L50.414,53z    M51.414,58L58,51.414L59.586,53L53,59.586L51.414,58z M59.172,61c-0.481,0-0.952-0.195-1.293-0.536L56.414,59L59,56.414   l1.465,1.464C60.81,58.224,61,58.683,61,59.171C61,60.18,60.18,61,59.172,61z"/><rect x="24" y="17" width="2" height="2"/><rect x="20" y="20" width="2" height="2"/><rect x="17" y="24" width="2" height="2"/><rect x="12" y="1" width="2" height="2"/><rect x="12" y="5" width="2" height="5"/><rect x="4.222" y="4.222" transform="matrix(0.7071 -0.7071 0.7071 0.7071 -2.1629 5.2217)" width="2" height="2"/><rect x="8.111" y="6.611" transform="matrix(0.7071 -0.7072 0.7072 0.7071 -3.774 9.1118)" width="2" height="5.001"/><rect x="1" y="12" width="2" height="2"/><rect x="5" y="12" width="5" height="2"/><rect x="4.222" y="19.778" transform="matrix(0.7071 -0.7071 0.7071 0.7071 -13.1631 9.7781)" width="2" height="2"/><rect x="6.611" y="15.889" transform="matrix(0.7071 -0.7071 0.7071 0.7071 -9.2738 11.389)" width="5.001" height="2"/><rect x="19.778" y="4.222" transform="matrix(0.7071 -0.7071 0.7071 0.7071 2.3935 16.2219)" width="2" height="2"/><rect x="14.389" y="8.111" transform="matrix(0.7071 -0.7071 0.7071 0.7071 -1.4958 14.611)" width="5.001" height="2"/></g></svg>