<svg xmlns="http://www.w3.org/2000/svg" xmlns:xlink="http://www.w3.org/1999/xlink" viewBox="0 0 50 95" version="1.1" x="0px" y="0px"><title>Awards - Outline - 002 - Sheild</title><desc>Created with Sketch.</desc><g stroke="none" stroke-width="1" fill="none" fill-rule="evenodd"><g fill-rule="nonzero" fill="#000000"><path d="M0.322,10.46973 C0.53684,27.23682 6.15989,54.35059 21.30344,75.58105 C21.4913809,75.8439699 21.7946848,75.9999921 22.11787,76 C22.14033,76 22.16376,75.999 22.1872,75.99805 C25.5685572,75.7834385 28.8098263,74.5686274 31.49928,72.50793 C44.59711,68.87927 49.48078,50.93018 49.67841,35.30273 C49.6786,35.28673 49.67347,35.27185 49.67286,35.25592 C49.67194,35.22913 49.66651,35.20374 49.66346,35.17692 C49.6522148,35.0748221 49.6252003,34.9750863 49.58338,34.88127 C49.57777,34.86875 49.57917,34.8552 49.57294,34.84281 L49.56336,34.83061 C49.5089468,34.7283408 49.4370635,34.6363782 49.35096,34.55888 C49.33027,34.53988 49.30933,34.52378 49.2873,34.50669 C49.2625226,34.4841222 49.2366089,34.4628344 49.20966,34.44291 L49.03876,34.32817 C48.85322,34.20217 48.58076,34.01811 48.41576,33.91068 C43.61205,30.70368 39.70287,22.90287 39.70287,16.52104 L39.70287,15.41553 C39.70287,15.40216 39.69853,15.38959 39.69798,15.37628 C39.69713,15.35284 39.69198,15.33057 39.68938,15.30713 C39.6783643,15.1999023 39.6499768,15.095181 39.60533,14.99707 C39.60094,14.98755 39.6021,14.97723 39.5974,14.96777 L39.59068,14.95917 C39.5363549,14.8568943 39.464556,14.7649111 39.37853,14.68738 C39.3582,14.66852 39.33861,14.65125 39.31694,14.63422 C39.29625,14.61792 39.27965,14.59772 39.25755,14.58301 L17.6247,0.168 C17.5864725,0.149198894 17.5470156,0.133008511 17.5066,0.11954 C17.4471965,0.0875831666 17.3846211,0.0619108787 17.31989,0.04294 C17.1284914,-0.0111055914 16.9245841,-0.000257778158 16.74,0.07379 C16.7002694,0.0817894685 16.661103,0.0923719328 16.62275,0.10547 L10.85126,2.98877 L10.84241,2.99567 L10.82685,3.00146 C10.7297721,3.05568404 10.6425132,3.12586096 10.56873,3.20905 C10.54688,3.23267 10.52943,3.25714 10.51014,3.28253 C10.4546764,3.35511326 10.4095341,3.43502935 10.376,3.52 C10.36685,3.54319 10.35434,3.56364 10.347,3.58744 C10.3159525,3.68302707 10.2996323,3.78278238 10.2986,3.88328 L10.2986,4.98486 C10.3114036,6.02934596 10.1809592,7.07065684 9.91091,8.07971 C9.40469699,7.85817678 8.91907699,7.59229014 8.45973,7.28516 L7.63844,6.74116 L7.62959,6.75453 C7.33657171,6.55262101 6.95763012,6.52382952 6.63747,6.67915 L0.94355,9.52808 C0.794926564,9.58779266 0.663605588,9.68374291 0.56155,9.80719 L0.56155,9.80719 C0.53512,9.83919 0.5112,9.87054 0.49283,9.89795 C0.455032225,9.95921256 0.424083036,10.0244443 0.40054,10.09247 C0.39212,10.11377 0.37839,10.13196 0.37143,10.15381 C0.337988519,10.2557533 0.321295305,10.362444 0.322,10.46973 Z M2.36692,12.31543 C4.69602,13.62695 6.94407,13.81836 8.76633,12.8418 C10.0161818,12.1300434 10.9754004,11.0008004 11.47562,9.65228 C11.47935,9.6402 11.48762,9.63098 11.49094,9.61865 L11.49119,9.61505 C11.974102,8.37807243 12.2415594,7.06751492 12.28196,5.74023 L31.93818,18.83838 L31.93818,19.40479 C31.93818,26.38379 36.24482,34.93115 41.53974,38.4585 L41.90595,38.70264 C41.58955,54.29492 36.3581,72.53711 22.60322,73.95508 C8.52021,53.94629 2.9499,28.76025 2.36689,12.31543 L2.36692,12.31543 Z M16.99824,2.15381 L36.71485,15.29281 L33.00935,17.14901 L13.288,4.00739 L16.99824,2.15381 Z M35.54151,68.43927 C41.23981,61.01654 43.6789,49.338 43.9004,38.7981 L47.638,36.92871 C47.21851,49.329 43.78962,62.8006 35.54151,68.43927 Z M46.72681,35.14807 L42.98621,37.01929 L42.64814,36.79395 C37.84541,33.59375 33.93814,25.79346 33.93814,19.40479 L33.93814,18.9209 L37.72171,17.02557 C37.91261,23.63751 41.822,31.48273 46.72681,35.14807 L46.72681,35.14807 Z M9.07905,9.89777 C8.7605551,10.3859629 8.32985826,10.7908511 7.82294,11.07861 C6.62617,11.71869 5.05256,11.53113 3.3418,10.56476 L7.0148,8.72699 L7.35812,8.95459 C7.90362022,9.31780905 8.47939139,9.63336857 9.07905,9.89777 Z"/><path d="M39.62959,39.35352 C34.44794,35.3457 30.44794,27.34473 30.11689,20.3291 C30.1022546,20.0115586 29.9372403,19.7199778 29.67255,19.54395 L14.78486,9.624 C14.5319746,9.45541544 14.2161327,9.41102177 13.9265726,9.50336202 C13.6370124,9.59570226 13.405181,9.81474803 13.29658,10.09861 C12.3105915,13.1654371 9.4757459,15.2596279 6.25458,15.30076 C6.01532,15.30076 5.77411,15.29002 5.53387,15.26805 C5.24070791,15.24372 4.95140626,15.3477482 4.74087,15.5532 C4.53100089,15.7601829 4.42339954,16.0493748 4.44693,16.3432 C5.98893,35.8012 12.95865,56.38861 23.09146,71.414 C23.2775677,71.6893522 23.5882124,71.8543712 23.92056,71.85443 C23.9974867,71.8543413 24.0741534,71.8454977 24.14908,71.82807 C37.81709,68.61426 39.7497,46.7959 40.0163,40.18457 C40.0296987,39.8612518 39.8855599,39.5514937 39.62959,39.35352 Z M24.35419,69.7041 C14.81123,55.294 8.1999,35.84082 6.53486,17.29688 C10.0384167,17.1949 13.1844172,15.1243348 14.66376,11.94678 L28.14912,20.93213 C28.65595,28.17188 32.71552,36.27979 37.9958,40.60938 C37.406,53.0752 33.52119,66.9541 24.35419,69.7041 Z"/><path d="M11.00361,18.25977 C10.7383716,18.2596984 10.483976,18.3650322 10.2964241,18.5525841 C10.1088722,18.740136 10.0035384,18.9945316 10.00361,19.25977 L10.00361,25.98682 C10.00361,26.5391047 10.4513253,26.98682 11.00361,26.98682 C11.5558947,26.98682 12.00361,26.5391047 12.00361,25.98682 L12.00361,19.25977 C12.003679,18.9945324 11.8983443,18.7401384 11.710793,18.552587 C11.5232416,18.3650357 11.2688476,18.259701 11.00361,18.25977 L11.00361,18.25977 Z"/><path d="M15.00361,25.94824 C14.7383724,25.948171 14.4839784,26.0535057 14.296427,26.241057 C14.1088757,26.4286084 14.003541,26.6830024 14.00361,26.94824 L14.00361,36.55859 C14.00361,37.1108747 14.4513253,37.55859 15.00361,37.55859 C15.5558947,37.55859 16.00361,37.1108747 16.00361,36.55859 L16.00361,26.94824 C16.003679,26.6830024 15.8983443,26.4286084 15.710793,26.241057 C15.5232416,26.0535057 15.2688476,25.948171 15.00361,25.94824 L15.00361,25.94824 Z"/><path d="M15.00361,17.29883 C14.7383716,17.2987584 14.483976,17.4040922 14.2964241,17.5916441 C14.1088722,17.779196 14.0035384,18.0335916 14.00361,18.29883 L14.00361,22.14307 C14.00361,22.6953547 14.4513253,23.14307 15.00361,23.14307 C15.5558947,23.14307 16.00361,22.6953547 16.00361,22.14307 L16.00361,18.29883 C16.003679,18.0335924 15.8983443,17.7791984 15.710793,17.591647 C15.5232416,17.4040957 15.2688476,17.298761 15.00361,17.29883 L15.00361,17.29883 Z"/><path d="M19.00361,29.792 C18.7383724,29.791931 18.4839784,29.8972657 18.296427,30.084817 C18.1088757,30.2723684 18.003541,30.5267624 18.00361,30.792 L18.00361,50.0127 C18.00361,50.5649847 18.4513253,51.0127 19.00361,51.0127 C19.5558947,51.0127 20.00361,50.5649847 20.00361,50.0127 L20.00361,30.792 C20.003679,30.5267624 19.8983443,30.2723684 19.710793,30.084817 C19.5232416,29.8972657 19.2688476,29.791931 19.00361,29.792 Z"/><path d="M19.00361,20.18164 C18.7383716,20.1815684 18.483976,20.2869022 18.2964241,20.4744541 C18.1088722,20.662006 18.0035384,20.9164016 18.00361,21.18164 L18.00361,25.98682 C18.00361,26.5391047 18.4513253,26.98682 19.00361,26.98682 C19.5558947,26.98682 20.00361,26.5391047 20.00361,25.98682 L20.00361,21.18164 C20.003679,20.9164024 19.8983443,20.6620084 19.710793,20.474457 C19.5232416,20.2869057 19.2688476,20.181571 19.00361,20.18164 Z"/></g></g></svg>