<svg xmlns="http://www.w3.org/2000/svg" viewBox="0 0 64 80" x="0px" y="0px"><g><path d="M35,44H29v8h6Zm-2,6H31V46h2Z"/><path d="M60,2H4V34H2V62H62V34H60ZM6,4H58V34H54V30h2V22H50V16H42V10H20v6H8v8h2v6h2v4H6Zm8,16V18h2v2h2V18h2v2h2V18h2v2h2V18h2v4H10V18h2v2Zm12-6V12h2v2h2V12h2v2h2V12h2v2h2V12h2v4H22V12h2v2Zm20,6V18h2v4H30V18h2v2h2V18h2v2h2V18h2v2h2V18h2v2ZM36,28V24h2v2h2V24h2v2h2V24h2v2h2V24h2v2h2V24h2v4Zm-4-4h2v4H32ZM12,24h2v2h2V24h2v2h2V24h2v2h2V24h2v2h2V24h2v4H12Zm2,6h2v2h2V30h2v2h2V30h2v2h2V30h2v2h2V30h2v4H14Zm20,0h2v2h2V30h2v2h2V30h2v2h2V30h2v2h2V30h2v4H34ZM4,42H6V52H4ZM4,60V54H7a3,3,0,0,1,3,3v3Zm8,0V57a5.009,5.009,0,0,0-4-4.9V42H25v9a5.006,5.006,0,0,0,5,5h4a5.006,5.006,0,0,0,5-5V42H56V52.1A5.009,5.009,0,0,0,52,57v3ZM27,42H37v9a3,3,0,0,1-3,3H30a3,3,0,0,1-3-3ZM60,60H54V57a3,3,0,0,1,3-3h3Zm0-8H58V42h2Zm0-12H4V36H60Z"/><polygon points="54 10 56 10 56 6 48 6 48 8 54 8 54 10"/><rect x="54" y="12" width="2" height="2"/><rect x="10" y="44" width="2" height="2"/><rect x="14" y="44" width="2" height="2"/></g></svg>