<svg xmlns="http://www.w3.org/2000/svg" data-name="Layer 1" viewBox="0 0 500 625" x="0px" y="0px"><title>ojos</title><g><path d="M400.49,335.52v0L280.14,127.06v0l-23.2-40.19a8,8,0,0,0-13.86,0L202.55,157h0L59.31,405.15a8,8,0,0,0,6.92,12H433.77a8,8,0,0,0,6.92-12Zm-47.68,8.67A101.64,101.64,0,0,0,381,348.57a73.83,73.83,0,0,0,8.24-.47l7.27,12.59c-15.14-.77-33-8.53-46.26-15.77ZM231.69,138.57c2-1.73,8.56-6.77,16.71-6.77s15.79,3.41,18.92,5l4.52,7.84A143.64,143.64,0,0,0,250.4,142,71.09,71.09,0,0,0,228,144.88Zm-54.93,95.15c3.12-3.53,25-26.27,69.46-26.27,43,0,69.06,17.6,74.24,21.45l26,45c-15.28-11.8-57.71-41-103.23-41-30.33,0-59.87,13.38-80.87,25.91Zm69.46-42.27c-21.32,0-38.26,4.68-51.11,10.49l4.59-8c5-2.85,21.82-11.48,42.78-12.25a8,8,0,0,0-.58-16A108.76,108.76,0,0,0,213,170.87l2.18-3.78c6.54-3.45,21.36-9.73,34.38-9.08,18.15.92,28.93,5,29,5a7.89,7.89,0,0,0,4.08.46l22.54,39C291,196.72,271.15,191.45,246.22,191.45Zm3.78-84.6,5.47,9.48a49.08,49.08,0,0,0-7.07-.53,34.19,34.19,0,0,0-3.68.2ZM100.14,366.42l5.65-9.78,12,9.78Zm-20,34.73L90.9,382.42h16.73a2.83,2.83,0,0,0,.24.25l19.74,18.48Zm70.94,0-20-18.73h6.53l23.07,18.73Zm35,0-72.12-58.54,4.11-7.13c13.86,15.58,48,42.68,118.88,45h.26a8,8,0,0,0,.25-16c-46.09-1.48-74.45-14.32-90.13-24.82-11.1-7.44-17.57-14.79-20.71-19L132.72,310A198.82,198.82,0,0,0,152,327.27a8,8,0,0,0,9.87-12.6q-3.25-2.55-6.14-5a8,8,0,0,0,7.7-2.53,89.39,89.39,0,0,1,8-7.63c5.17,13,16.2,32.85,36.42,36.69a8.46,8.46,0,0,0,1.5.14,8,8,0,0,0,1.48-15.86c-13.82-2.63-22.45-20.17-26.08-31a129.27,129.27,0,0,1,13.67-7.87c-.06,1-.11,2.06-.11,3.1a51.62,51.62,0,0,0,103.22,1.47,170.79,170.79,0,0,1,19.2,12.77c-4.69,4.28-11,9.16-16.49,10.93a8,8,0,1,0,4.88,15.23c9.27-3,18.31-10.41,23.93-15.75,2.27,2.12,3.52,3.44,3.59,3.51a8,8,0,1,0,11.7-10.92C346.57,300,303,254,246.22,254c-56.95,0-93.27,40.84-94.79,42.58a8,8,0,0,0-1.55,7.79c-3.74-3.49-6.72-6.56-8.81-8.83l2.44-4.22c7.31-6,53.75-42.5,99.68-42.5,49.76,0,98.17,41.49,98.64,41.91a8,8,0,0,0,11.29-.79,7.72,7.72,0,0,0,1.34-2.15l25.86,44.79c-21.4-.24-41.77-11.15-42-11.28a8,8,0,0,0-9.09,13l-31.76,9.15a8,8,0,0,0,2.21,15.69,7.74,7.74,0,0,0,2.22-.32L329.28,351c10.14,6.63,41.87,25.77,69.78,25.77a56.58,56.58,0,0,0,6.54-.38l14.31,24.79Zm99-123.09a35.62,35.62,0,1,1-69.18-3.41A99,99,0,0,1,285,278.06Z" fill="#000000"/><path d="M267,345.58a8,8,0,0,0-9.86-5.56c-19.77,5.51-40.5,3.78-61.61-5.14a8,8,0,0,0-6.23,14.74c15.09,6.37,30.08,9.57,44.81,9.57a101.17,101.17,0,0,0,27.33-3.76A8,8,0,0,0,267,345.58Z" fill="#000000"/><path d="M322.49,358c-29.31,17.6-53.81,7.56-54.93,7.09a8,8,0,0,0-6.41,14.66c.73.32,10.72,4.58,25.73,4.58,12.1,0,27.46-2.77,43.85-12.61A8,8,0,0,0,322.49,358Z" fill="#000000"/></g></svg>